<?xml version="1.0" encoding="utf-8"?>
<!-- Generator: Adobe Illustrator 21.1.0, SVG Export Plug-In . SVG Version: 6.00 Build 0)  -->
<svg version="1.1" xmlns="http://www.w3.org/2000/svg" xmlns:xlink="http://www.w3.org/1999/xlink" x="0px" y="0px"
	 viewBox="0 0 125 40" enable-background="new 0 0 125 40" xml:space="preserve">
<g id="bg" display="none">
	<rect display="inline" fill="#FFFFFF" width="125" height="40"/>
</g>
<g id="icons">
	<g>
		<g id="Artboard-Copy-3_1_">
			<g id="US-UK_Apple_Music_lockup_RGB_blk_1_">
				<g id="Group-2_1_">
					<path id="_Compound_Path__1_" d="M18.385,7.328H6.98C5.949,7.291,4.918,7.4,3.917,7.65C2.383,8.109,1.134,9.23,0.511,10.705
						c-0.386,1.157-0.556,2.374-0.501,3.592v11.405c-0.055,1.218,0.115,2.436,0.501,3.592c0.622,1.475,1.871,2.596,3.405,3.055
						c1.001,0.25,2.032,0.359,3.063,0.323h11.405c1.031,0.036,2.062-0.072,3.063-0.323c1.534-0.459,2.783-1.579,3.405-3.055
						c0.386-1.157,0.556-2.374,0.501-3.592V14.297c0.055-1.218-0.115-2.436-0.501-3.592c-0.622-1.475-1.871-2.596-3.405-3.055
						C20.447,7.4,19.416,7.291,18.385,7.328z"/>
					<path id="_Path__1_" fill="#FFFFFF" d="M18.385,7.683c0.997-0.038,1.994,0.066,2.962,0.308
						c0.607,0.179,1.173,0.474,1.669,0.868c0.66,0.522,1.179,1.201,1.507,1.976c0.368,1.115,0.53,2.289,0.477,3.462v11.405
						c0.053,1.173-0.108,2.347-0.477,3.462c-0.328,0.775-0.847,1.454-1.507,1.976c-0.495,0.394-1.062,0.689-1.669,0.868
						c-0.968,0.242-1.965,0.346-2.962,0.308H6.98c-0.997,0.038-1.994-0.066-2.962-0.308c-0.607-0.179-1.173-0.474-1.669-0.868
						c-0.66-0.522-1.179-1.201-1.507-1.976c-0.368-1.115-0.53-2.289-0.477-3.462V14.297c-0.053-1.173,0.108-2.347,0.477-3.462
						C1.17,10.06,1.689,9.381,2.349,8.859C2.844,8.465,3.411,8.17,4.018,7.991C4.986,7.749,5.983,7.645,6.98,7.683L18.385,7.683"/>
					<g id="_Group_2_1_" transform="translate(5.000000, 4.000000)">
						<g id="_Clip_Group__1_">
							
								<linearGradient id="SVGID_41_" gradientUnits="userSpaceOnUse" x1="11.7581" y1="580.7445" x2="3.0425" y2="567.8231" gradientTransform="matrix(1 0 0 1 0 -558)">
								<stop  offset="0" style="stop-color:#22C9FD"/>
								<stop  offset="0.0493" style="stop-color:#2ABEFD"/>
								<stop  offset="0.3892" style="stop-color:#6B6BFF"/>
								<stop  offset="0.5271" style="stop-color:#756AF3"/>
								<stop  offset="0.5591" style="stop-color:#8D68D6"/>
								<stop  offset="0.6057" style="stop-color:#AC65B2"/>
								<stop  offset="0.6305" style="stop-color:#B864A4"/>
								<stop  offset="0.7326" style="stop-color:#D56182"/>
								<stop  offset="0.8377" style="stop-color:#EC5F67"/>
								<stop  offset="0.9304" style="stop-color:#FA5D56"/>
								<stop  offset="1" style="stop-color:#FF5D50"/>
							</linearGradient>
							<path fill="url(#SVGID_41_)" d="M13.576,7.919c-0.008-0.462-0.267-0.78-0.719-0.704c0,0-7.33,1.436-8.184,1.614
								C4.119,8.945,3.934,9.292,3.946,9.874c-0.002,0.049,0,9.499,0,9.499c0,0.952-0.807,0.726-1.879,0.996
								c-1.821,0.458-1.873,1.263-1.992,1.517c-0.186,1.015,0.051,2.138,1.427,2.468c0.565,0.135,0.918,0.073,1.479-0.035
								c0.907-0.174,1.366-0.619,1.764-1.451c0.187-0.391,0.205-1.045,0.205-1.474c-0.001-2.702-0.001-5.271-0.001-7.973
								c0-0.451,0.125-0.593,0.569-0.682c2.171-0.43,4.354-0.884,6.524-1.311c0.488-0.097,0.541,0.165,0.541,0.659
								c0.001,2.023-0.008,5.332-0.008,5.651c0,1.14-2.135,0.438-3.503,1.702c-0.48,0.47-0.564,1.354-0.414,1.837
								c0.231,0.736,0.708,1.191,1.436,1.348c0.465,0.101,1.996,0.269,2.9-0.832c0.611-0.745,0.567-1.197,0.567-1.877L13.576,7.919z
								"/>
						</g>
					</g>
				</g>
				<g id="_Group_4_1_" transform="translate(26.000000, 5.000000)">
					<g id="_Group_6_1_">
						<g id="_Group_7_1_">
							<path id="_Compound_Path_10_1_" d="M12.452,16.973H7.681l-1.145,3.383H4.515l4.52-12.517h2.099l4.52,12.517h-2.056
								L12.452,16.973z M8.175,15.412h3.782l-1.865-5.491H10.04L8.175,15.412z"/>
							<path id="_Compound_Path_11_1_" d="M25.403,15.794c0,2.837-1.518,4.659-3.808,4.659c-1.184,0.062-2.299-0.558-2.871-1.596
								h-0.043v4.519h-1.874V11.231h1.813v1.519h0.035c0.597-1.033,1.714-1.653,2.906-1.614
								C23.877,11.136,25.403,12.966,25.403,15.794z M23.478,15.794c0-1.847-0.954-3.062-2.412-3.062
								c-1.431,0-2.394,1.24-2.394,3.062c0,1.839,0.963,3.071,2.394,3.071C22.523,18.865,23.478,17.659,23.478,15.794L23.478,15.794
								z"/>
							<path id="_Compound_Path_12_1_" d="M35.44,15.794c0,2.837-1.518,4.659-3.808,4.659c-1.184,0.062-2.299-0.558-2.871-1.596
								h-0.043v4.519h-1.874V11.231h1.813v1.519h0.035c0.597-1.033,1.714-1.653,2.906-1.614
								C33.913,11.136,35.44,12.966,35.44,15.794z M33.514,15.794c0-1.847-0.954-3.062-2.412-3.062c-1.431,0-2.394,1.24-2.394,3.062
								c0,1.839,0.963,3.071,2.394,3.071C32.56,18.865,33.514,17.659,33.514,15.794L33.514,15.794z"/>
							<polygon id="_Compound_Path_13_1_" points="36.95,7.839 38.823,7.839 38.823,20.357 36.95,20.357 							"/>
							<path id="_Compound_Path_14_1_" d="M48.574,17.677c-0.426,1.784-2.105,2.977-3.93,2.793c-2.654,0-4.303-1.779-4.303-4.632
								c0-2.863,1.657-4.719,4.225-4.719c2.524,0,4.112,1.735,4.112,4.502v0.642h-6.445v0.113c-0.06,0.679,0.174,1.352,0.644,1.847
								s1.129,0.764,1.811,0.738c0.909,0.085,1.766-0.437,2.108-1.284H48.574z M42.241,14.953h4.563
								c0.034-0.611-0.188-1.208-0.613-1.647c-0.425-0.44-1.014-0.682-1.625-0.669c-0.616-0.004-1.209,0.239-1.645,0.674
								C42.484,13.745,42.24,14.336,42.241,14.953z"/>
							<polygon id="_Compound_Path_15_1_" points="64.839,20.357 64.839,11.144 64.778,11.144 61.004,20.262 59.564,20.262 
								55.782,11.144 55.722,11.144 55.722,20.357 53.952,20.357 53.952,7.839 56.198,7.839 60.25,17.719 60.32,17.719 
								64.362,7.839 66.618,7.839 66.618,20.357 							"/>
							<path id="_Compound_Path_16_1_" d="M76.595,20.357H74.8v-1.57h-0.044c-0.494,1.1-1.626,1.77-2.828,1.674
								c-0.895,0.052-1.767-0.293-2.384-0.944s-0.916-1.54-0.816-2.43v-5.856h1.874v5.492c0,1.388,0.659,2.125,1.951,2.125
								c0.615,0.02,1.209-0.229,1.626-0.682c0.417-0.453,0.615-1.066,0.543-1.677v-5.257h1.874L76.595,20.357z"/>
							<path id="_Compound_Path_17_1_" d="M81.923,11.127c2.021,0,3.47,1.12,3.513,2.733h-1.76
								c-0.079-0.807-0.763-1.301-1.804-1.301c-1.016,0-1.692,0.468-1.692,1.18c0,0.546,0.451,0.91,1.397,1.145l1.535,0.355
								c1.839,0.443,2.533,1.12,2.533,2.456c0,1.648-1.561,2.776-3.79,2.776c-2.151,0-3.601-1.102-3.739-2.768h1.856
								c0.131,0.877,0.833,1.345,1.97,1.345c1.118,0,1.822-0.46,1.822-1.189c0-0.563-0.347-0.867-1.301-1.11l-1.631-0.399
								c-1.648-0.399-2.481-1.24-2.481-2.506C78.349,12.229,79.797,11.127,81.923,11.127z"/>
							<path id="_Compound_Path_18_1_" d="M87.104,8.828c-0.009-0.443,0.251-0.847,0.658-1.022c0.407-0.175,0.879-0.087,1.194,0.224
								c0.316,0.311,0.412,0.781,0.243,1.191C89.03,9.63,88.63,9.897,88.188,9.895C87.594,9.899,87.11,9.422,87.104,8.828z
								 M87.251,11.231h1.874v9.126h-1.874V11.231z"/>
							<path id="_Compound_Path_19_1_" d="M97.196,14.371c-0.17-1.035-1.106-1.767-2.151-1.683c-1.44,0-2.394,1.206-2.394,3.106
								c0,1.943,0.962,3.115,2.412,3.115c1.033,0.103,1.968-0.616,2.134-1.64H99c-0.233,1.963-1.988,3.382-3.956,3.202
								c-2.602,0-4.303-1.779-4.303-4.676c0-2.836,1.7-4.675,4.285-4.675c1.982-0.168,3.737,1.275,3.956,3.252L97.196,14.371z"/>
						</g>
					</g>
				</g>
			</g>
		</g>
	</g>
</g>
</svg>
