<?xml version="1.0" encoding="utf-8"?>
<!-- Generator: Adobe Illustrator 19.2.0, SVG Export Plug-In . SVG Version: 6.00 Build 0)  -->
<svg version="1.1" xmlns="http://www.w3.org/2000/svg" xmlns:xlink="http://www.w3.org/1999/xlink" x="0px" y="0px"
	 viewBox="0 0 125 40" enable-background="new 0 0 125 40" xml:space="preserve">
<g id="bg" display="none">
	<rect display="inline" fill="#FFFFFF" width="125" height="40"/>
</g>
<g id="icons">
	<g>
		<g>
			<path fill="#FFFFFF" d="M27.336,28.285L27.336,28.285c0.338-0.549,0.162-1.267-0.387-1.605c-4.938-3.018-11.06-3.72-18.197-2.088
				c-0.629,0.143-1.021,0.769-0.879,1.398c0.144,0.628,0.771,1.023,1.399,0.878c6.521-1.489,12.06-0.882,16.459,1.807
				C26.281,29.011,27,28.838,27.336,28.285z"/>
			<path fill="#FFFFFF" d="M32.227,17.26c0.493-0.831,0.219-1.907-0.612-2.401c-6.952-4.127-17.955-4.516-24.572-2.506
				c-0.926,0.281-1.447,1.26-1.168,2.186c0.28,0.926,1.26,1.448,2.185,1.168c5.767-1.75,15.727-1.42,21.767,2.166
				C30.657,18.367,31.735,18.093,32.227,17.26z"/>
			<path fill="#FFFFFF" d="M29.156,21.178c-5.784-3.554-14.246-4.554-21.049-2.489c-0.772,0.235-1.208,1.049-0.977,1.822
				c0.234,0.77,1.05,1.206,1.822,0.973c5.956-1.808,13.642-0.911,18.676,2.183c0.687,0.422,1.435,0.207,2.016-0.481v0.001
				C30.225,22.499,29.843,21.6,29.156,21.178z"/>
			<path fill="#24CF5F" d="M18.604,1.266L18.604,1.266C8.145,1.265-0.061,9.653-0.061,19.999c0,10.348,8.423,18.736,18.77,18.736
				c10.348,0,18.682-8.387,18.682-18.736C37.391,9.654,29.063,1.266,18.604,1.266z M9.272,26.868
				c-0.628,0.145-1.255-0.249-1.399-0.878c-0.142-0.628,0.25-1.255,0.879-1.398c7.137-1.632,13.258-0.93,18.197,2.088
				c0.55,0.338,0.726,1.056,0.387,1.606l0.001-0.001c-0.336,0.552-1.056,0.725-1.605,0.389
				C21.332,25.985,15.793,25.379,9.272,26.868z M29.644,23.186L29.644,23.186c-0.581,0.687-1.33,0.902-2.017,0.48
				c-5.034-3.094-12.716-3.991-18.672-2.183c-0.772,0.233-1.591-0.202-1.825-0.973c-0.232-0.773,0.202-1.587,0.974-1.822
				c6.804-2.064,15.269-1.065,21.053,2.489C29.843,21.6,30.225,22.499,29.644,23.186z M29.827,17.873
				c-6.039-3.586-16-3.916-21.767-2.166c-0.925,0.28-1.905-0.242-2.185-1.168c-0.28-0.926,0.242-1.905,1.168-2.186
				c6.617-2.01,17.62-1.621,24.572,2.506c0.832,0.494,1.105,1.57,0.612,2.401C31.735,18.093,30.657,18.367,29.827,17.873z"/>
		</g>
		<path fill="#24CF5F" d="M51.101,18.561c-3.233-0.772-3.81-1.313-3.81-2.451c0-1.075,1.013-1.798,2.518-1.798
			c1.458,0,2.904,0.55,4.421,1.68c0.046,0.034,0.104,0.048,0.16,0.039c0.057-0.009,0.105-0.04,0.14-0.087l1.579-2.226
			c0.064-0.092,0.048-0.219-0.04-0.288c-1.805-1.448-3.837-2.153-6.212-2.153c-3.493,0-5.933,2.097-5.933,5.095
			c0,3.216,2.105,4.355,5.742,5.234c3.096,0.713,3.617,1.311,3.617,2.378c0,1.183-1.057,1.919-2.756,1.919
			c-1.889,0-3.428-0.636-5.15-2.128c-0.043-0.037-0.101-0.054-0.156-0.051c-0.056,0.005-0.109,0.031-0.145,0.075l-1.77,2.108
			c-0.074,0.087-0.064,0.218,0.02,0.293c2.005,1.79,4.47,2.735,7.13,2.735c3.764,0,6.196-2.057,6.196-5.239
			c0.006-2.687-1.602-4.175-5.541-5.133L51.101,18.561z"/>
		<path fill="#24CF5F" d="M65.165,15.37c-1.632,0-2.97,0.642-4.072,1.96v-1.482c0-0.117-0.096-0.212-0.213-0.212h-2.896
			c-0.117,0-0.211,0.095-0.211,0.212v16.466c0,0.117,0.094,0.212,0.211,0.212h2.896c0.117,0,0.213-0.096,0.213-0.212v-5.197
			c1.103,1.238,2.442,1.843,4.072,1.843c3.031,0,6.1-2.334,6.1-6.794c0.005-4.461-3.065-6.796-6.097-6.796H65.165z M67.896,22.166
			c0,2.271-1.4,3.857-3.404,3.857c-1.98,0-3.473-1.658-3.473-3.857c0-2.199,1.493-3.856,3.473-3.856
			C66.465,18.309,67.896,19.931,67.896,22.166L67.896,22.166z"/>
		<path fill="#24CF5F" d="M79.129,15.37c-3.904,0-6.962,3.006-6.962,6.844c0,3.796,3.037,6.771,6.915,6.771
			c3.917,0,6.985-2.996,6.985-6.819c0-3.811-3.047-6.795-6.937-6.795V15.37z M79.129,26.044c-2.076,0-3.642-1.668-3.642-3.88
			c0-2.222,1.512-3.833,3.594-3.833c2.09,0,3.666,1.668,3.666,3.882C82.747,24.434,81.226,26.044,79.129,26.044L79.129,26.044z"/>
		<path fill="#24CF5F" d="M94.403,15.635h-3.188v-3.259c0-0.117-0.095-0.212-0.211-0.212h-2.896c-0.118,0-0.213,0.095-0.213,0.212
			v3.259h-1.392c-0.117,0-0.211,0.095-0.211,0.212v2.489c0,0.117,0.094,0.212,0.211,0.212h1.392v6.442
			c0,2.603,1.296,3.922,3.851,3.922c1.039,0,1.9-0.215,2.713-0.675c0.066-0.037,0.107-0.108,0.107-0.184v-2.37
			c0-0.073-0.037-0.143-0.1-0.181c-0.063-0.04-0.143-0.042-0.207-0.01c-0.557,0.281-1.097,0.41-1.7,0.41
			c-0.93,0-1.344-0.422-1.344-1.367V18.55h3.188c0.116,0,0.211-0.095,0.211-0.212v-2.489c0.005-0.118-0.089-0.213-0.208-0.213
			L94.403,15.635z"/>
		<path fill="#24CF5F" d="M105.507,15.648v-0.4c0-1.177,0.452-1.702,1.465-1.702c0.604,0,1.089,0.12,1.632,0.3
			c0.067,0.021,0.137,0.011,0.191-0.029c0.056-0.04,0.087-0.104,0.087-0.172v-2.44c0-0.094-0.061-0.176-0.15-0.204
			c-0.573-0.17-1.308-0.346-2.407-0.346c-2.675,0-4.089,1.506-4.089,4.355v0.613h-1.392c-0.116,0-0.212,0.096-0.212,0.213v2.502
			c0,0.117,0.096,0.212,0.212,0.212h1.392v9.936c0,0.117,0.094,0.212,0.211,0.212h2.896c0.117,0,0.213-0.095,0.213-0.212V18.55
			h2.704l4.143,9.933c-0.471,1.044-0.932,1.251-1.563,1.251c-0.511,0-1.049-0.152-1.598-0.452c-0.053-0.029-0.113-0.034-0.169-0.016
			c-0.056,0.019-0.102,0.06-0.125,0.114l-0.982,2.153c-0.047,0.102-0.008,0.221,0.091,0.274c1.024,0.555,1.95,0.792,3.094,0.792
			c2.138,0,3.319-0.996,4.362-3.676l5.025-12.984c0.024-0.066,0.018-0.139-0.023-0.197c-0.04-0.058-0.104-0.092-0.173-0.092h-3.017
			c-0.09,0-0.17,0.057-0.2,0.142l-3.089,8.822l-3.383-8.829c-0.031-0.082-0.112-0.136-0.198-0.136h-4.949V15.648z"/>
		<path fill="#24CF5F" d="M99.07,15.635h-2.896c-0.117,0-0.213,0.095-0.213,0.212v12.637c0,0.117,0.096,0.212,0.213,0.212h2.896
			c0.116,0,0.212-0.095,0.212-0.212V15.849C99.282,15.732,99.188,15.636,99.07,15.635L99.07,15.635z"/>
		<path fill="#24CF5F" d="M97.637,9.881c-1.148,0-2.078,0.929-2.078,2.077c0,1.148,0.931,2.078,2.078,2.078s2.077-0.93,2.077-2.078
			C99.714,10.81,98.785,9.881,97.637,9.881L97.637,9.881z"/>
		<path fill="#24CF5F" d="M123.012,19.698c-1.147,0-2.038-0.921-2.038-2.039c0-1.118,0.904-2.049,2.049-2.049
			c1.147,0,2.038,0.921,2.038,2.038C125.061,18.766,124.157,19.698,123.012,19.698L123.012,19.698z M123.023,15.813
			c-1.045,0-1.834,0.83-1.834,1.846c0,1.016,0.783,1.835,1.823,1.835c1.043,0,1.835-0.829,1.835-1.846
			C124.848,16.632,124.061,15.813,123.023,15.813L123.023,15.813z M123.475,17.858l0.576,0.807h-0.486l-0.52-0.74h-0.446v0.74
			h-0.406v-2.139h0.953c0.497,0,0.825,0.254,0.825,0.682c0.001,0.351-0.202,0.565-0.495,0.65H123.475z M123.131,16.893h-0.532v0.677
			h0.532c0.265,0,0.422-0.13,0.422-0.339C123.552,17.01,123.394,16.893,123.131,16.893L123.131,16.893z"/>
	</g>
</g>
</svg>
