<svg xmlns="http://www.w3.org/2000/svg" viewBox="0 0 125 40"><path fill="#4C85C5" d="M45.376 27.426l-.005-1.381c.05-.309.142-.618.145-.928.014-1.692.007-3.385.007-5.078 0-2.148-.009-4.297.01-6.445.003-.304.044-.693.229-.891.372-.396 2.005-.072 2.368.366.21.254.498.443.751.662.214-.145.437-.279.641-.437 2.337-1.824 5.641-1.319 7.343.548.064.071.142.129.111.102 1.175-.566 2.243-1.311 3.422-1.597 2.042-.495 3.995-.175 5.456 1.581-.026.412.036.763.555.794a.13.13 0 01.052.131c.086.724.158 1.453.701 2.018l.024.4c-.245.461-.299.917.037 1.362l.094 7.621c-.643.344-.035 1.047-.432 1.476H63.7v-1.155c0-2.573.018-5.146-.009-7.718-.01-.948-.323-1.809-1.029-2.493-1.06-1.026-3.527-.92-4.167.626a5.848 5.848 0 00-.443 2.064c-.051 2.539-.02 5.08-.02 7.62v1.059h-3.323v-1.15c0-2.54.031-5.081-.022-7.62-.013-.622-.274-1.245-.473-1.851-.04-.122-.314-.168-.48-.249-.309-.226-.594-.5-.931-.67-1.162-.589-2.1-.131-2.939.697-.857.312-.806 1.079-.812 1.755-.025 3.033-.011 6.066-.011 9.112-1.338.146-2.516.072-3.665-.331z"/><path fill="#4E85C3" d="M70.67 12.303h4.119v1.098c.003 2.604.053 5.209-.009 7.811-.034 1.417 1.072 2.652 2.083 2.992 1.283.432 2.614.105 3.549-.944.577-.647.736-1.428.737-2.263.003-2.539.01-5.077.015-7.616v-1.048h3.956v15.761c-.845 0-1.684.021-2.521-.017-.178-.008-.395-.2-.507-.366-.196-.292-.325-.63-.532-1.051-.405.228-.764.424-1.118.63-2.626 1.532-5.989 1.115-7.988-.989-.834-.878-1.422-1.94-1.478-3.115-.172-3.6-.213-7.206-.306-10.883zM125 17.977c-1.228.318-2.396.283-3.548.068-.285-.053-.553-.379-.759-.635-1.35-1.68-3.572-1.968-5.302-.69-2.088 1.543-2.148 5.814.466 7.206 1.628.867 3.583.563 4.745-.927.505-.648 1.044-.889 1.818-.835.583.041 1.172-.007 1.757.015.272.01.54.095.811.146-.602 3.108-3.648 5.58-6.647 5.73-2.548.127-4.673-.568-6.372-2.483-2.078-2.343-2.563-5.091-1.638-7.98.944-2.95 3.113-4.776 6.164-5.355 3.716-.703 7.631 1.967 8.505 5.74zM100.073 16.903c-1.152 0-2.19.031-3.224-.021-.265-.013-.593-.233-.76-.456-.647-.867-1.513-1.075-2.509-.924-.722.109-1.25.643-1.276 1.282-.028.672.438.994.985 1.178 1.138.382 2.3.694 3.434 1.088 1.016.353 2.007.788 2.697 1.672 1.603 2.052.979 4.971-1.348 6.523-2.063 1.377-5.897 1.158-7.809-.125-1.397-.938-2.005-2.311-2.285-4.086 1.167 0 2.264-.035 3.356.028.228.013.497.349.642.598.74 1.266 2.449 1.696 3.617.803.344-.264.616-.763.697-1.196.106-.573-.426-.85-.888-1.01-.95-.33-1.927-.58-2.879-.903-.704-.239-1.425-.471-2.072-.826-2.107-1.157-2.791-3.769-1.507-5.797 1.462-2.308 3.729-2.828 6.227-2.504 2.369.308 4.111 1.529 4.811 3.943.051.18.048.377.091.733z"/><path fill="#4C85C5" d="M103.24 27.816c-.014-2.038-.039-4.077-.038-6.115.001-3.042.022-6.084.034-9.126.844-.001 1.687-.004 2.531-.001 1.115.004 1.126.012 1.126 1.159.002 4.316.002 8.631-.001 12.947 0 .284-.03.567-.046.837-1.209.54-2.425.207-3.606.299z"/><path fill="#4E85C3" d="M53.733 16.863c.166.081.44.127.48.249.199.606.46 1.229.473 1.851.052 2.539.022 5.08.022 7.62v1.15h3.323v-1.059c0-2.54-.031-5.081.02-7.62a5.826 5.826 0 01.443-2.064c.639-1.546 3.107-1.652 4.167-.626.706.684 1.02 1.545 1.029 2.493.027 2.572.009 5.145.009 7.718v1.155h3.185c.397-.428-.21-1.132.432-1.476v1.788h-3.869c-.026-.295-.071-.575-.072-.855-.01-2.638.006-5.277-.031-7.914a5.636 5.636 0 00-.317-1.808c-.353-.97-1.215-1.491-2.202-1.474-1.069.019-1.801.583-2.176 1.526-.21.527-.272 1.139-.285 1.715-.063 2.702-.085 5.404-.124 8.107-.003.19-.024.379-.041.626h-3.783c-.019-.335-.051-.652-.052-.969-.01-2.475-.033-4.951-.011-7.426.008-.962-.169-1.86-.62-2.707zM105.257 10.25c-1.265.006-2.311-.972-2.226-2.201.097-1.415 1.126-2.188 2.183-2.166 1.291.027 2.254.915 2.26 2.165.007 1.26-.936 2.196-2.217 2.202zM103.24 27.816c1.181-.092 2.396.241 3.606-.3.015-.269.045-.553.046-.837.003-4.316.003-8.631.001-12.947 0-1.147-.011-1.155-1.126-1.159-.844-.003-1.687 0-2.531.001.116-.082.23-.233.347-.234 1.133-.018 2.267-.011 3.476-.011v15.686c-1.273-.111-2.55.268-3.819-.199zM48.881 13.732c-.253-.218-.541-.408-.751-.662-.363-.439-1.996-.763-2.368-.366-.185.198-.227.587-.229.891-.018 2.148-.01 4.296-.01 6.445 0 1.693.008 3.385-.007 5.078-.003.31-.094.619-.145.928l-.05-11.079c-.004-.84-.001-1.681-.001-2.592.938 0 1.858-.133 2.702.062.367.083.577.842.859 1.295zM45.376 27.426c1.149.403 2.327.476 3.664.33 0-3.046-.014-6.079.011-9.112.006-.676-.045-1.443.812-1.755-.466.88-.623 1.815-.613 2.81.027 2.723.009 5.446.009 8.247h-3.884l.001-.52zM67.161 16.872c-.542-.565-.614-1.294-.701-2.018l.701 2.018zM67.222 18.634c-.336-.445-.282-.901-.037-1.362l.037 1.362zM66.408 14.723c-.519-.032-.581-.382-.555-.794l.555.794z"/><path fill="#FFF" d="M27.534 25.49l-.22-.389-.342-.416-.233-.324-.19-.249.003.005-.241-.36.01.003-.196-.204.009.006-.199-.209-.001.012-1.179-1.197-.164-.17-.395-.418.004.003c-.549-.684-.546-.714.199-1.593h-.002l.393-.589-.003.001.955-1.393-.008.009.223-.385-.007.002.795-1.366-.006.009.204-.397-.005.007.005-.007v.001l.167-.224-.019-.009c-.009-.561.517-1.11.042-1.68-.861-.016-1.725-.002-2.583-.057-.801-.051-1.372.192-1.642.991-.038.113-.148.202-.225.302.024.042.016.076-.024.104l-.166.235.017-.007-.205.395.009-.005-.209.394.009-.009-.246.548c-.458.728-.863 1.496-1.39 2.169-.359.459-.888.784-1.341 1.169-.589.239-.546-.256-.563-.545-.034-.598.009-1.201.02-1.802v-.391l.001-2.345-.004-.597c-.173-.379-.426-.608-.885-.598-1.344.029-2.689.033-4.033.046l-.266.367.082.573-.007-.006c.705.543.906 1.311.92 2.142a66.084 66.084 0 01-.01 3.302c-.011.322-.194.638-.298.957-.308-.14-.634-.251-.916-.432-.147-.094-.216-.31-.32-.471l-.169-.21-.447-.74-.002.011-.546-.824.002.001-.205-.389.008.01-.206-.398.007.011a155.22 155.22 0 00-.205-.4l.009.01-.206-.42-.002-.082-.606-1.447.011.007-.547-1.207c-.317-.136-.63-.379-.95-.388-1.036-.029-2.074.027-3.111.051-.287 1.013.233 1.912.415 2.859l.151.4 1.19 2.529-.016-.01.171.228.22.387c.049.037.063.084.042.141l-.02.01.347.438v.001l.221.38-.008-.01.433.761.003-.013.357.426h-.007l.222.377-.016-.005.224.214c.18.186.346.388.542.554.962.817 1.862 1.734 2.917 2.408 1.334.852 2.86 1.235 4.472 1.007.877-.124.98-.26.996-1.126.013-.684-.02-1.37.025-2.051.043-.649.39-.868.991-.63.357.141.721.334.997.593.877.821 1.685 1.718 2.582 2.516.39.347.908.661 1.41.749.727.126 1.494.063 2.241.026.904-.045 1.115-.393.854-1.291-.036-.126-.076-.249-.115-.372z"/><path fill="#4C85C5" d="M33.169 28.199c-.026-.122-.063-.243-.094-.365a1.487 1.487 0 01-.055-.365 4131.19 4131.19 0 010-14.936c0-.243.097-.487.149-.73a10.854 10.854 0 00-.965-4.511c-.59-1.322-1.581-2.289-2.899-2.877-1.555-.695-3.211-.947-4.905-.979-.343.049-.686.139-1.029.139-4.59.009-9.182-.056-13.77.041-1.525.034-3.043.462-4.558.743-.305.057-.572.292-.873.4-.414.148-.844.252-1.267.374l-.208.188.007-.005-.007.005-.002.002.002-.002-.243.192C.837 6.922.362 8.856.213 10.84.03 13.301-.003 15.777 0 18.247c.005 3.348.096 6.696.176 10.043.018.742.071 1.498.229 2.22.329 1.498.783 2.955 2.056 3.975l.243.197-.009-.006.211.189c.371.084.809.071 1.102.271 1.148.781 2.458 1.035 3.77 1.065 5.197.119 10.395.15 15.593.223.343.005.686.092 1.028.14.674-.054 1.357-.058 2.022-.17 2.079-.352 4.05-.945 5.294-2.847 1.059-1.622 1.409-3.446 1.454-5.348zm-6.374-1.048c-.747.037-1.514.1-2.241-.026-.502-.087-1.019-.401-1.41-.749-.897-.798-1.705-1.695-2.582-2.516-.277-.259-.641-.452-.997-.593-.601-.238-.948-.019-.991.63-.045.681-.012 1.367-.025 2.051-.016.866-.119 1.002-.996 1.126-1.613.229-3.138-.154-4.472-1.007-1.055-.674-1.955-1.591-2.917-2.408-.196-.167-.362-.369-.542-.554a44.243 44.243 0 01-.224-.214l.016.005-.222-.377c-.305.019-.443-.102-.353-.414l-.434-.759.008.01a47.115 47.115 0 00-.221-.38l-.347-.438.02-.01-.17-.026.128-.115-.22-.387-.171-.228.016.01c-.34-.552-.741-1.079-.991-1.669-.102-.241-.687-.463-.199-.86l-.151-.4c-.901-.717-1.095-2.064-.418-2.871.067-.422.386-.434.716-.433.801.001 1.602-.012 2.402.005.502.011.989.082.945.777.623.203.531.729.547 1.207l-.011-.007c.46.374.678.85.606 1.447l.002.082.206.42-.009-.01.205.4-.007-.009.206.398-.008-.01.205.389c.321.181.654.355.544.822l.002-.011.447.74.169.21 1.196.512c0-1.501.009-2.924-.011-4.346-.003-.205-.156-.405-.226-.612-.118-.349-.224-.702-.335-1.053l.007.005-.395-.291.313-.283.266-.367c.135-.138.268-.391.406-.395 1.254-.029 2.51-.05 3.763.001.654.027.851.349.749.945l.004.597c.112.091.317.177.322.273.03.599.03 1.201 0 1.8-.005.096-.21.182-.323.272v.391c.114.122.35.299.323.357-.328.716.004 1.345.219 1.99.453-.385.982-.711 1.341-1.169.527-.673.933-1.442 1.39-2.169l.246-.548-.009.009.209-.394-.009.005.205-.395-.017.007.166-.235c.04-.027.048-.062.024-.104.03-1.378.68-1.646 1.636-1.653.682-.005 1.366-.04 2.043.018.265.023.513.255.768.395a.018.018 0 00-.004-.005c.493.015.773.283.504.716-.198.318.271 1.02-.539.974l.019.009-.167.224-.204.397.006-.009c-.064.572-.167 1.122-.795 1.366l.007-.002-.223.385.008-.009c.011.688-.247 1.192-.95 1.391.013.292.058.605-.391.589l-.201 1.593-.004-.003.395.418.164.17c.874.091 1.126.346 1.179 1.197l.001-.012.199.209-.009-.006.196.204-.01-.003.241.36-.003-.005.19.249.233.324.342.416-.003-.005.003.005.007.009-.007-.009.22.389c.038.123.079.246.115.369.264.901.053 1.248-.851 1.294zM26.939 15.888l.005-.007zM8.193 20.975v.001z"/><path fill="#4E85C3" d="M5.043 4.359c1.515-.281 3.034-.71 4.558-.742 4.588-.097 9.18-.032 13.77-.041.343-.001.686-.091 1.029-.139-.323-.018-.646-.05-.969-.051-3.31-.006-6.62-.033-9.929-.001-2.137.021-4.277.07-6.408.219-1.518.106-2.989.489-4.192 1.53h.001l.002-.002-.002.001c.423-.122.853-.226 1.267-.374.301-.107.568-.343.873-.4zM7.777 36.2c-1.312-.03-2.622-.284-3.77-1.065-.293-.199-.73-.186-1.102-.271l.001.001-.001-.001h-.001c.766.39 1.493.952 2.305 1.132 1.473.327 2.994.569 4.498.594 4.54.074 9.083.028 13.624.025.355 0 .711-.033 1.066-.05-.343-.049-.685-.135-1.028-.14-5.196-.075-10.395-.106-15.592-.225zM33.02 27.468c0 .122.025.244.055.365.031.122.068.243.094.365.018-2.537.051-5.075.05-7.612-.001-2.928-.032-5.856-.05-8.784-.052.243-.149.487-.149.73a4131.19 4131.19 0 000 14.936z"/><path fill="none" d="M2.903 5.133l.002-.001M2.695 5.321l.208-.188M2.695 5.321l-.002.002M2.906 34.864v.001M2.906 34.864l-.211-.189M2.462 34.485l.243.197M2.452 5.513l.243-.192M2.695 5.321l.007-.005"/><path fill="#4E85C3" d="M13.178 20.871c.282.18.608.292.916.432.104-.319.287-.635.298-.957.038-1.1.028-2.202.01-3.302-.014-.832-.214-1.6-.92-2.142.111.351.218.704.335 1.053.07.207.223.407.226.612.02 1.422.011 2.845.011 4.346l-1.196-.512c.104.16.173.376.32.47zM18.591 14.517c.102-.596-.095-.919-.749-.945-1.253-.051-2.509-.03-3.763-.001-.138.003-.271.257-.406.395 1.344-.014 2.689-.017 4.033-.046.459-.011.712.217.885.597zM24.551 13.911c.859.055 1.722.041 2.583.057.475.57-.051 1.12-.042 1.68.81.046.341-.656.539-.974.269-.433-.011-.701-.504-.716l.004.005c-.255-.14-.503-.372-.768-.395-.677-.058-1.361-.023-2.043-.018-.957.007-1.606.275-1.636 1.653.077-.1.187-.189.225-.302.27-.798.841-1.041 1.642-.99zM5.693 13.995c1.037-.024 2.075-.08 3.111-.051.32.009.634.252.95.388.044-.695-.443-.767-.945-.777-.801-.017-1.602-.004-2.402-.005-.33-.001-.65.011-.716.433-.677.807-.483 2.154.418 2.871-.183-.947-.703-1.846-.416-2.859zM6.458 18.113c.25.59.651 1.117.991 1.669l-1.19-2.529c-.487.397.097.619.199.86zM18.574 19.652c.016.289-.026.783.563.545-.215-.645-.547-1.274-.219-1.99.026-.057-.209-.235-.323-.357-.012.601-.054 1.203-.021 1.802zM18.917 17.186c.03-.599.03-1.201 0-1.8-.005-.096-.209-.182-.322-.273l-.001 2.345c.113-.09.318-.176.323-.272zM24.756 22.168l1.179 1.197c-.053-.85-.305-1.106-1.179-1.197zM24.791 19.401l-.393.589h.002c-.745.879-.748.908-.199 1.593l.201-1.593c.449.016.403-.298.391-.589.703-.198.961-.702.95-1.391l-.955 1.393.003-.002zM26.746 16.27l-.795 1.366c.628-.245.731-.794.795-1.366zM10.291 15.531l.606 1.447c.071-.597-.147-1.072-.606-1.447zM9.755 14.332l.547 1.207c-.016-.478.075-1.005-.547-1.207zM12.24 19.461c.11-.468-.223-.641-.544-.822l.004.007-.004-.007-.002-.001.546.823zM13.094 14.614l.395.291-.082-.573-.313.282z"/><path fill="none" d="M8.838 22.107l-.433-.761M12.242 19.45l.447.74"/><path fill="#4E85C3" d="M8.841 22.094l-.003.013c-.09.312.048.433.353.414l-.003-.004.003.004h.007l-.357-.427z"/><path fill="none" d="M8.193 20.975v.001M8.193 20.975l-.347-.438M24.592 21.998l-.395-.418M27.314 25.101l-.342-.416M27.314 25.101l.007.009M21.868 16.858l.246-.548M27.534 25.49l-.22-.389M27.311 25.096l.003.005M9.413 22.898l-.222-.377M9.189 22.516l.002.004M26.552 24.117l-.241-.36M8.414 21.356a47.115 47.115 0 00-.221-.38M11.491 18.249l.205.389M11.7 18.646l-.004-.008M11.293 17.861l.206.398M25.735 18.019l.223-.385M11.095 17.47l.205.4M10.899 17.06l.206.42M26.944 15.881l-.204.397M22.105 16.319l.209-.394M22.306 15.93l.205-.395M22.494 15.543l.166-.235M26.944 15.881l-.005.007M26.944 15.881l.167-.224M26.549 24.112l.19.249M26.322 23.76l-.196-.204M26.136 23.562l-.199-.209M9.621 23.106a44.243 44.243 0 01-.224-.214M7.605 19.999l-.171-.228"/><path fill="#4E85C3" d="M7.824 20.386l-.128.115.17.026c.022-.057.008-.104-.042-.141z"/></svg>