<?xml version="1.0" encoding="UTF-8" standalone="no"?>
<svg
   xmlns:dc="http://purl.org/dc/elements/1.1/"
   xmlns:cc="http://creativecommons.org/ns#"
   xmlns:rdf="http://www.w3.org/1999/02/22-rdf-syntax-ns#"
   xmlns:svg="http://www.w3.org/2000/svg"
   xmlns="http://www.w3.org/2000/svg"
   id="svg4216"
   version="1.1"
   viewBox="0 0 124 38"
   height="38px"
   width="124px">
  <metadata
     id="metadata4230">
    <rdf:RDF>
      <cc:Work
         rdf:about="">
        <dc:format>image/svg+xml</dc:format>
        <dc:type
           rdf:resource="http://purl.org/dc/dcmitype/StillImage" />
        <dc:title>music_en_color</dc:title>
      </cc:Work>
    </rdf:RDF>
  </metadata>
  <!-- Generator: Sketch 40 (33762) - http://www.bohemiancoding.com/sketch -->
  <title
     id="title4218">music_en_color</title>
  <desc
     id="desc4220">Created with Sketch.</desc>
  <defs
     id="defs4222" />
  <g
     id="Page-1-9"
     style="fill:none;fill-rule:evenodd;stroke:none;stroke-width:1"
     transform="translate(0.19040001,3.9887994)">
    <g
       id="music_color_en">
      <g
         transform="translate(0,1)"
         id="Group">
        <polygon
           points="13.8188,-0.0001 11.3148,-0.0001 6.7188,13.5649 2.7248,2.3449 -0.0002,2.3449 5.4188,16.8929 5.4188,25.0059 7.9228,25.0059 7.9228,16.9879 "
           id="Fill-1"
           style="fill:#fa0b00" />
        <path
           id="Fill-2"
           d="m 67.6982,9.0332 -2.979,7.479 3.328,8.494 -2.568,0 -2.471,-6.592 -2.41,6.592 -2.439,0 3.327,-8.272 -3.011,-7.701 2.568,0 2.059,5.8 2.187,-5.8 2.409,0 0,0 z m -17.367,6.528 4.088,0 c 0,-2.725 -0.444,-4.722 -1.87,-4.722 -1.521,0 -2.06,1.87 -2.218,4.722 l 0,0 z m 2.725,9.666 c -3.296,0 -5.325,-2.63 -5.325,-7.543 0,-5.133 1.427,-8.874 4.818,-8.874 2.662,0 4.405,1.997 4.405,7.416 l 0,1.364 -6.655,0 c 0,3.613 1.014,5.514 2.979,5.514 1.395,0 2.408,-0.633 3.042,-1.078 l 0.57,1.903 c -1.013,0.792 -2.25,1.298 -3.834,1.298 l 0,0 z m -10.268,-13.628 c -0.508,-0.506 -1.046,-0.76 -1.87,-0.76 -1.997,0 -2.948,3.011 -2.948,6.275 0,3.74 0.698,6.022 2.504,6.022 1.236,0 1.902,-0.602 2.314,-1.236 l 0,-10.301 0,0 z m -7.448,6.022 c 0,-5.926 2.218,-8.811 5.42,-8.811 0.76,0 1.552,0.254 2.028,0.603 l 0,-7.067 2.472,0 0,22.66 -1.838,0 -0.191,-1.268 -0.158,0 c -0.697,0.888 -1.585,1.489 -2.884,1.489 -3.137,0 -4.849,-2.662 -4.849,-7.606 l 0,0 z m -8.938,7.385 -2.472,0 0,-16.005 2.472,0 0,1.394 0.159,0 c 0.444,-0.601 1.648,-1.585 3.138,-1.585 2.092,0 3.2,1.173 3.2,3.614 l 0,12.582 -2.503,0 0,-12.361 c 0,-1.204 -0.539,-1.616 -1.49,-1.616 -1.046,0 -1.933,0.792 -2.504,1.585 l 0,12.392 0,0 z m -7.986,-8.335 -0.285,0 c -3.075,0 -3.74,1.362 -3.74,3.423 0,1.837 0.602,3.042 1.869,3.042 0.857,0 1.712,-0.571 2.156,-1.268 l 0,-5.197 0,0 z m 2.725,8.335 -2.091,0 c -0.095,-0.349 -0.19,-0.856 -0.222,-1.268 l -0.158,0 c -0.698,0.888 -1.585,1.489 -2.98,1.489 -2.281,0 -3.835,-1.711 -3.835,-4.848 0,-3.423 1.743,-5.578 6.212,-5.578 l 0.349,0 0,-0.951 c 0,-2.091 -0.697,-2.979 -2.092,-2.979 -1.268,0 -2.345,0.665 -3.169,1.394 l -0.476,-2.186 c 0.73,-0.603 2.188,-1.269 3.804,-1.269 2.82,0 4.373,1.205 4.373,5.072 l 0,7.51 c 0,1.522 0.158,2.853 0.285,3.614 l 0,0 z"
           style="fill:#1d1c1b" />
        <path
           id="Fill-4"
           d="m 77.168182,9.0549996 c -0.318939,-1.173 -0.573486,-2.187 -0.765655,-3.232 l -0.09458,0 c 0.06339,1.077 0.09458,2.218 0.09458,3.359 l 0,15.8779994 -1.402527,0 0,-22.6599994 1.849243,0 3.85846,14.4829994 c 0.158966,0.603 0.382324,1.775 0.477905,2.631 l 0.09558,0 c 0.127777,-0.856 0.38333,-2.061 0.542297,-2.631 l 3.889649,-14.4829994 1.786864,0 0,22.6599994 -1.53131,0 0,-15.8779994 c 0,-1.077 0.06439,-2.219 0.127777,-3.359 l -0.127777,0 c -0.286744,1.267 -0.510102,2.186 -0.765656,3.137 l -3.410737,12.6139994 -1.244567,0 L 77.16818,9.0549996 Z"
           style="fill:#1d1c1b" />
        <g
           transform="translate(90,8.3232)"
           id="Group-8"
           style="fill:#1d1c1b">
          <path
             id="Fill-6"
             d="m 7.874,12.3721 0,-11.662 1.489,0 0,15.973 -1.362,0 -0.064,-2.631 -0.063,0 c -0.444,1.141 -1.616,2.948 -3.804,2.948 -2.123,0 -3.327,-1.554 -3.327,-4.405 l 0,-11.885 1.489,0 0,11.694 c 0,2.219 0.666,3.327 2.092,3.327 1.616,0 2.757,-1.331 3.55,-3.359" />
        </g>
        <path
           id="Fill-9"
           d="m 101.2764,24.2138 0.317,-1.3 c 0.761,0.666 1.522,1.204 3.043,1.204 1.584,0 2.536,-1.235 2.536,-2.598 0,-3.645 -5.484,-5.198 -5.484,-9.254 0,-2.409 1.743,-3.55 3.486,-3.55 1.553,0 2.536,0.57 3.075,1.015 l -0.412,1.362 c -0.698,-0.761 -1.49,-1.173 -2.599,-1.173 -1.173,0 -2.219,0.761 -2.219,2.155 0,3.455 5.547,4.786 5.547,9.254 0,2.536 -1.807,3.994 -3.898,3.994 -1.775,0 -2.789,-0.602 -3.392,-1.109"
           style="fill:#1d1c1b" />
        <path
           id="Fill-11"
           d="m 111.054,25.001 1.489,0 0,-15.9730001 -1.489,0 0,15.9730001 z M 110.8,4.8759999 c 0,-0.538 0.443,-1.046 1.014,-1.046 0.539,0 1.014,0.508 1.014,1.046 0,0.57 -0.475,1.014 -1.014,1.014 -0.571,0 -1.014,-0.444 -1.014,-1.014 l 0,0 z"
           style="fill:#1d1c1b" />
        <path
           id="Fill-13"
           d="m 122.7764,22.3115 0.476,1.236 c 0,0 -1.173,1.776 -3.676,1.776 -3.201,0 -5.039,-3.074 -5.039,-8.273 0,-5.26 1.805,-8.335 5.07,-8.335 1.648,0 2.789,0.634 3.486,1.49 l -0.412,1.585 c -0.697,-0.983 -1.712,-1.807 -3.074,-1.807 -2.44,0 -3.581,2.567 -3.581,7.067 0,4.374 1.109,6.973 3.581,6.973 2.06,0 3.169,-1.712 3.169,-1.712"
           style="fill:#1d1c1b" />
      </g>
    </g>
  </g>
</svg>
