<svg xmlns="http://www.w3.org/2000/svg" width="400" height="89.7"><g fill-rule="evenodd"><path d="M326 4c-.1 0-.2 17.9-.2 39.6v39.6h10.9v-1c0-.6 0-.9.2-1 .2 0 .3-.2.3-.5-.1-1.2 0-1.5.3-1.5s.3-.1.2-.6V78c.2 0 .8.7.8 1l.2.2c.2 0 .2.3.2.5 0 .3 0 .5.5.8l.6.6c0 .2.1.2.4.1.2 0 .4 0 .8.4.2.3.6.6.8.6l.3.3.5.2.6.4c0 .2.2.2.6.2a23.4 23.4 0 008.5.2c.1-.3.4-.3.6-.3.3.1.4 0 .6-.2.1-.3.3-.3.6-.2.3 0 .4 0 .4-.2s.1-.3.3-.4c.2 0 .3-.2.3-.3 0-.1.1-.2.3-.2.1 0 .2-.1.2-.3 0-.1.1-.2.3-.2.1 0 .2-.1.2-.3 0-.1.1-.2.3-.2.1 0 .2-.1.2-.3l.2-.2.3-.5c0-.3.2-.4.4-.3.2 0 .2 0 .2-.3s0-.4.2-.4.2-.2.2-.5c0-.4.1-.5.3-.5.2 0 .2-.2.2-.7 0-.4.1-.7.3-.7l.2-.8c0-.5.1-.7.3-.7.2 0 .2-.2.2-1 0-.9 0-1.1.3-1.1.2 0 .2-.3.2-1.5s0-1.5.3-1.5c.1 0 .2-.6.2-2.6s0-2.5.3-2.7a255.8 255.8 0 000-19c-.3 0-.4-3.7-.3-5.3.1-.7.1-.8-.2-.9-.2 0-.3-.3-.3-1.5s0-1.5-.2-1.6c-.2 0-.3-.3-.3-1s0-1-.2-1c-.2-.1-.3-.4-.3-.8s0-.7-.2-.7-.3-.3-.3-.4a1 1 0 00-.2-.6c-.2-.1-.3-.4-.3-.7 0-.2 0-.4-.2-.4s-.3-.2-.3-.4c0-.3 0-.4-.2-.4s-.3-.1-.3-.2c0-.3-1.9-2-2.3-2l-.2-.1-.6-.3c-.3 0-.5-.2-.5-.3l-.4-.1c-.7 0-1.5-.2-1.5-.4 0-.4-4.6-.3-4.8.1-.2.2-.4.3-1 .2-.7 0-.9 0-.9.2 0 .1-.2.3-.4.3-.3 0-.6.2-.7.4 0 .1-.2.2-.4 0-.3 0-.5 0-.6.3l-.4.4-.3.1c0 .1-.1.2-.3.2-.2 0-.4.2-.6.4-.3.5-1.2 1.4-1.7 1.7-.2.2-.4.4-.4.6l-.1.3c-.1 0-.2 0-.2.2 0 .3-.7 1.4-.8 1.2 0 0-.2-6.6-.2-14.5V3.9h-12M140.4 7c0 .4 0 .8.2.8 0 0 .2.4.2.9 0 .4.3 1 .4 1 .2.2.2.4.2 1-.1.8 0 1 .2 1 .3.2.3.4.3 1-.1.5 0 .6.2.7.3.2.3.4.3 1 0 .5 0 .8.2.9.2.1.3.4.3.9s0 .7.3.7c.1 0 .2.2.2 1 0 .6 0 .9.3 1 .2 0 .2.2.2 1-.1.7 0 .9.2 1 .2 0 .3.2.3.8 0 .5 0 .7.3.8.2 0 .2.3.2 1-.1.6 0 .8.2.8s.3.3.3.9c0 .5 0 .7.3.8.2 0 .2.3.2 1 0 .8 0 1 .2 1s.2.3.3 1c0 .7 0 1 .3 1 .1 0 .2.1.2.7 0 .5 0 .7.3.8.1 0 .2.3.2 1 0 .5 0 .8.3.9.1 0 .2.3.2.8s0 .8.3.8c.1.1.2.4.2 1.1 0 .8 0 1 .3 1 .2 0 .2.2.2.9s0 .9.2.9.3.2.3.9c0 .6 0 .8.3.8.1 0 .2.2.2 1 0 .6 0 .8.3.8.2 0 .2.2.2 1.1l.1 1c.3-.1.5.2.4 1 0 .4 0 .6.3.6.1 0 .2.2.2.9 0 .6 0 1 .3 1 .1 0 .2.3.2.8 0 .6 0 .8.3.8.1 0 .2.2.2.9 0 .6 0 1 .3 1 .1 0 .2.4.2 1.1 0 .6 0 1 .2 1 .2-.2.5.5.3 1 0 .4 0 .5.2.5s.3.2.3 1a77.3 77.3 0 01.5 14.2v13h13v-13a69.2 69.2 0 01.6-15c.3-.2.3-.3.3-1.1s0-1 .2-1c.2-.1.2-.3.2-.9 0-.6.1-.7.3-.8.3 0 .3-.3.3-1 0-.5 0-.8.2-.9.2 0 .2-.3.2-.8 0-.6.1-.7.3-.8.3 0 .3-.2.3-.8 0-.6 0-.8.2-1 .3-.2.3-.4.3-1-.1-.5 0-.6.2-.7.4 0 .4-.2.3-.7-.1-.6 0-1.2.3-1.2.2 0 .3-.3.2-1l.2-1 .2-.9c0-.4.1-.6.3-.7.2-.1.3-.5.3-1 0-.4.2-.9.3-1l.2-.9c0-.5 0-.6.4-.6.3 0 .3 0 .2-.5-.2-.7 0-1.4.3-1.4.2 0 .2-.1.1-.7 0-.7 0-.8.3-1 .2-.1.3-.2.2-.8 0-.5 0-.7.3-1 .2-.2.3-.5.2-.7 0-.5 0-1.1.4-1.1.1 0 .2-.3.2-1 0-.6 0-1 .2-1l.3-1c0-.5.1-.8.3-1 .1 0 .2-.3.2-.8s0-.7.3-.7c.1 0 .2-.2.2-1 0-.7 0-.9.3-.9l.2.2v-.5c-.2-.7 0-1.3.3-1.3.2 0 .2-.2.2-.6-.2-.7 0-1.3.3-1.3.2 0 .2-.1.2-.5 0-1 0-1.2.3-1.1.3 0 .3 0 .2-1 0-.7 0-1 .2-1 .2-.2.3-.5.3-1 0-.6 0-1 .3-1 .1 0 .2-.3.2-.8s0-.7.3-.7c.1 0 .2-.3.2-1 0-.8 0-1 .3-1 .2 0 .2-.2.2-1v-.8h-12.3v.5c0 .4-.1.6-.3.6-.2 0-.2.2-.2 1.1 0 1 0 1.2-.3 1.3-.2 0-.2.4-.2 1.1 0 .8 0 1-.3 1.1-.3 0-.3.2-.3 1.2 0 .8 0 1-.2 1.1-.2.1-.2.4-.2 1.1 0 .9 0 1-.3 1.1-.3 0-.3.2-.3 1.1 0 1 0 1.1-.2 1.3-.3.1-.3.3-.3 1 .1.9 0 1-.2 1.1-.3 0-.3.2-.3 1.1 0 1 0 1.1-.2 1.3-.3.1-.3.3-.3 1 .1 1 0 1-.2 1.1-.3 0-.4.2-.3.8.1.9 0 1.6-.3 1.6-.2 0-.3.2-.2 1.2.1 1 0 1.1-.2 1.2-.2.1-.2.4-.2 1.2 0 1 0 1.1-.3 1.2-.3 0-.3.2-.3 1.2.1 1 0 1.2-.2 1.3-.3 0-.3.2-.3 1.2.1 1 0 1.2-.2 1.3-.3 0-.3.2-.3 1.2s0 1.2-.2 1.3c-.3 0-.3.2-.3 1.5 0 1.2 0 1.4-.2 1.5-.2.1-.3.4-.3.7 0 .3 0 .6-.2.6l-.1-.4c0-.2 0-.4-.2-.4-.2-.1-.3-.4-.3-1.6 0-1.3 0-1.5-.2-1.5s-.3-.3-.3-1.5c0-1.1 0-1.4-.2-1.4-.3 0-.4-.5-.3-1.8 0-.5 0-.7-.2-.7-.3 0-.4-.5-.3-1.8 0-.4 0-.7-.2-.7-.2-.1-.3-.4-.3-1.1 0-.7 0-1-.2-1-.2-.2-.3-.5-.3-1.2 0-.8 0-1.1-.2-1.2-.3-.2-.3-.5-.3-1.4 0-.9 0-1.2-.2-1.2-.3 0-.5-1.2-.3-1.8.1-.5.1-.5-.2-.4-.3 0-.4-.5-.3-2 0-.3 0-.5-.2-.5-.3 0-.5-1-.3-1.8 0-.4 0-.5-.2-.5-.3 0-.4-.6-.3-1.7 0-.4 0-.5-.2-.5-.3 0-.4-.7-.3-2 0-.3 0-.5-.2-.5-.3 0-.4-1-.3-1.8 0-.4 0-.5-.2-.5-.3 0-.4-.6-.3-1.7 0-.3 0-.5-.2-.5-.3 0-.5-1.2-.3-2 0-.5 0-.7-.2-.7-.1 0-.3 0-.3-.2s-.8-.3-6.1-.3h-6.2V7m110.4-.5v10.3h6c4.8 0 6.1 0 6.2.3.2.1.2 9.3.3 33v33h12.3V16.9h12.6V6.3h-18.6a229 229 0 00-18.8.2m-94.5 13.7v-.3.3m36.5 6.2c0 .2-.2.3-1.6.2-1.2 0-1.5 0-1.5.2 0 .3-.6.4-1.2.2-.3-.1-.4-.1-.3.2 0 .2 0 .3-.5.3-.3 0-.5.1-.6.3l-.4.2c-.1 0-.4.1-.5.3 0 .2-.3.4-.5.4s-.7.4-1.3 1l-1.1 1-.2.1-.5.7c-.3.3-.5.6-.4.7 0 0 0 .3-.3.5l-.3.6-.2.2s-.2.1-.2.3c0 .2 0 .4-.2.6-.1.1-.3.4-.3.7l-.4.6-.2.8c0 .3-.1.7-.3.8l-.2.5c0 .8 0 1.4-.3 1.4-.1 0-.2.3-.2 1.2 0 1.7 0 1.8-.3 1.8-.1 0-.2.5-.2 2.5 0 2.8 0 3-.3 3a97.3 97.3 0 00.3 18.4c0 2.4 0 2.9.2 2.9.3 0 .4.8.3 2 0 .5 0 .7.2.7.3 0 .4.4.3 1.3 0 .3.1.6.3.8.2.3.3.5.2.8 0 .3 0 .5.3.7.2.3.3.5.2.9 0 .4 0 .5.2.5.1 0 .3.1.3.3l.3.3c.1 0 .2.1.2.3l.3.5.2.7c0 .2 0 .4.2.4s2 1.5 2 1.8l.3.3c.3 0 .5.1.5.2s0 .2.2.2.3 0 .4.2c0 .2.2.3.5.3.2 0 .4.1.5.3.2.3.3.3.6.3.3-.1.5 0 .7.1.1.2.5.3.9.3.5 0 .7 0 .8.3 0 .3.2.3 1.7.2 1.9 0 2.4 0 2.3.4 0 .3.1.3 2 .3 2 0 2.2-.1 2.3-.4 0-.3.2-.3 1.7-.3s1.7 0 1.8-.2c0-.3.2-.3.8-.3l.8-.2.6-.3c.4 0 .7-.2.8-.3 0-.1.2-.2.5-.2.2 0 .4-.2.5-.3 0-.2.2-.2.6-.2.4.1.5.1.5-.1 0-.3.5-1 .7-1A6 6 0 00209 79c.5-.6.7-.8.7-1 0-.2 0-.3.2-.3s.3-.2.3-.5 0-.6.2-.6.3-.3.3-.5c0-.3 0-.5.3-.5.2-.1.3-.2.2-.8 0-.5 0-.7.2-.7.2-.1.3-.4.3-1 0-.5 0-.8.2-.9.2 0 .3-.3.3-1 0-.9 0-1 .3-1.1.2-.1.3-.3.2-2.1 0-1.8 0-2 .2-2a172.5 172.5 0 00-.3-25.4c-.3 0-.4-.1-.4-1.2 0-.7-.1-1.2-.3-1.4-.2-.2-.2-.4-.2-1 0-.5 0-.7-.2-.8-.2-.1-.3-.4-.3-.7 0-.3-.1-.5-.3-.6-.2 0-.2-.2-.2-.6.1-.4 0-.5-.2-.6-.3 0-.3-.2-.3-.5 0-.2 0-.4-.2-.5-.2 0-.3-.2-.3-.3l-.3-.3c-.2 0-.2-.2-.2-.4 0-.3 0-.4-.2-.5-.4-.1-.8-.6-.8-.8 0-.2-.6-.7-.8-.7-.2 0-.7-.7-.7-1 0-.2-.1-.2-.5-.2-.3.1-.4 0-.5-.2-.1-.2-.4-.3-.6-.3-.3 0-.4 0-.3-.2l-.3-.1c-.3 0-.6-.1-.8-.3l-.7-.2c-.6 0-1-.2-1-.4s-.3-.2-1.1-.2c-1.3 0-1.7 0-1.7-.3 0-.4-6.2-.3-6.3 0m188.2 0c-.2.3-.5.3-1.5.3-.8 0-1.3 0-1.4.2-.2.2-1 .4-1.4.2-.2-.1-.3 0-.5.2 0 .3-.3.5-.5.5-.3 0-.5 0-.5.2s-.3.3-.5.3-.5 0-.5.2-.2.3-.4.3c-.3 0-.4 0-1.8 1.4l-1.3 1.1c-.2 0-.2.2-.2.5 0 .4 0 .5-.2.5-.1 0-.2.1-.2.4 0 .2-.1.4-.3.5-.1 0-.2.2-.2.5 0 .2-.1.4-.3.5-.1 0-.2.2-.2.5 0 .2-.1.4-.3.5-.1 0-.2.3-.2.7 0 .5-.1.7-.3.7-.2 0-.2.2-.2.8 0 .7 0 1-.3 1s-.3.2-.3 1.4c0 1 0 1.3-.2 1.4-.2 0-.2.4-.2 2.2 0 1.7 0 2-.3 2a155.7 155.7 0 00.5 24.3c.3 0 .3.2.2 1.2 0 1 0 1.2.3 1.3.2 0 .3.2.3.8 0 .5 0 .8.2.8s.3.3.3.8c0 .4 0 .7.2.8.3.1.3.3.2.8 0 .5 0 .6.3.6.2 0 .3 0 .2.4 0 .3 0 .4.2.4l.3.3c0 .2.2.4.3.4.2 0 .3.2.3.5s0 .5.2.5.8.5.8.8c0 .1.6.7.8.7.2 0 .7.6.7.9 0 .2 0 .2.5.2.3-.1.5 0 .6.1 0 .1.3.3.5.3s.4 0 .5.2c0 .2.3.3.5.3.3 0 .6 0 .8.2.1.2.5.3.9.3.5 0 .7 0 .8.3 0 .2.3.2 2.1.2 2 0 2.1 0 2.3.3.2.5 1.6.5 1.7 0 0-.3.2-.4 2.3-.3 2.2 0 2.3 0 2.4-.2 0-.3.1-.4 1-.3.8.1.9 0 .9-.2 0-.3.1-.3.6-.3l.6-.2.4-.3c.3 0 .6-.2.7-.3l.4-.2c.2 0 .3-.1.4-.3l.3-.2c.2 0 .3-.1.3-.2l.4-.2c.2 0 .4 0 .4-.2s1.3-1.4 1.5-1.4l.2-.5c0-.3 0-.5.2-.6.2 0 .3-.2.3-.4l.1-.4c.1 0 .2-.1.2-.3l.3-.8.4-.7c0-.2 0-.3.2-.4.2 0 .3-.4.3-1 0-.8 0-1.1.2-1.1s.2-.7.2-3.3v-3.3h-3.9c-3.4 0-4 0-4.1-.3-.2-.2-.5-.3-1.2-.3-1.6 0-1.6 0-1.6 2 0 1.5 0 1.7-.3 1.7-.2 0-.2.2-.2 1.2s0 1.1-.3 1.3c-.2.1-.3.3-.2.6 0 .3 0 .5-.2.6l-.4.7-.5.6c-.2 0-.4.2-.5.3l-.4.2c-.2-.1-.4 0-.6.1-.4.4-2.7.5-2.8 0 0-.2-.2-.3-.4-.2-.4 0-1.7-1-1.7-1.3 0-.1 0-.3-.2-.3l-.1-.6c0-.3-.1-.6-.3-.7-.2-.1-.3-.4-.2-1.8 0-1.4 0-1.7-.3-1.7-.2 0-.3-8.5-.1-8.9l10.5-.1H400v-8c0-6.7 0-8-.2-8.3-.2-.1-.3-.6-.2-2.3 0-1.6 0-2-.2-2s-.4-1.1-.3-2l-.1-.7c-.3 0-.5-.4-.5-.9l-.2-.7-.3-.8c0-.2 0-.3-.2-.3l-.1-.6c0-.4-.1-.6-.3-.6-.1 0-.3-.1-.3-.3 0-.2-.2-.3-.3-.4-.2 0-.2-.2-.2-.4s0-.4-.3-.6a8.2 8.2 0 01-1.7-1.7c-.2-.2-.4-.4-.6-.4-.2 0-.3 0-.3-.2l-.4-.1a1 1 0 01-.5-.3.9.9 0 00-.5-.2c-.2 0-.4-.2-.6-.4-.3-.3-.5-.3-.8-.2-.4 0-.6 0-.8-.2-.2-.3-.5-.3-1.7-.3s-1.4 0-1.5-.2c-.1-.5-5.4-.5-5.8 0m-161.5.8c-.3.2 0 43.3.2 43.3s.3 2 .2 4c0 .5 0 .7.2.7.3 0 .4.5.3 1.5 0 .3 0 .5.2.6.2 0 .3.3.3.5 0 .3.1.6.3.8l.2.5c0 .2.1.4.3.5l.2.6c0 .3 0 .5.2.5.3 0 1.5 1 1.5 1.3l.4.3.4.2.2.2c.2 0 .4.1.5.3.1.3.3.3.6.3.2-.1.4 0 .6.2.2.2.5.3 1.2.2 1 0 1.4 0 1.4.4s3.1.3 3.2 0c0-.3.3-.4 1.3-.4s1.2 0 1.4-.3c.2-.2.3-.3.7-.2.5.1.6 0 .7-.2.2-.2.3-.3.5-.3.2.1.4 0 .5-.2.1-.2.3-.3.5-.3l.2-.2.4-.2c.2 0 .4-.2.4-.3 0-.2 1.6-1.8 2-1.9l.2-.4c0-.2.1-.4.3-.4l.2-.4.3-.3.2-.4.1-.4.3-.3c0-.2.2-.3.4-.3.4 0 .5.6.4 2.2 0 .4 0 .7.2.8.3.2.3.5.3 1.9v1.6H254v-56h-12.6v21.9c0 22.1-.1 22.9-.5 22.9l-.3.4c0 .2-.1.3-.3.3-.2 0-.2.1-.2.3 0 .2 0 .4-.2.4l-.2.4c0 .2-.1.2-.4.2-.2-.1-.4 0-.5.2 0 .2-.2.3-.3.3l-.5.3c-.2.2-.4.2-1 .2-.5-.1-.7 0-.7.2-.1.4-.6.3-.5-.1 0-.2-.1-.3-.6-.2-.7.1-1.9-.7-1.9-1.3 0-.1 0-.3-.2-.3s-.3-.4-.3-.8c0-.5 0-.7-.2-.7s-.3-2.6-.3-22.3V27.2h-12.7m65 0l-.1 23.6a1439.7 1439.7 0 01.2 24.3c.3-.1.3 0 .3.9 0 .7 0 1 .3 1.1.1 0 .2.3.2.7 0 .4 0 .7.3.8 0 0 .2.2.2.5 0 .2.1.5.3.5l.2.5c-.1.3 0 .3.2.3s.3 0 .3.3 0 .5.2.5l.8.5c.3.4.6.6.8.6l.2.2s.1.2.3.2c.1 0 .3.1.3.3 0 .2.2.3.5.3.6 0 .9 0 .9.3 0 .1.2.2 1 .1 1.1 0 1.5 0 1.5.4s3.1.3 3.2-.1c0-.3.2-.3 1.3-.3s1.3 0 1.6-.2c.1-.2.4-.3.6-.2.3 0 .4 0 .5-.3 0-.2.2-.3.6-.3.3 0 .5-.1.5-.2l.3-.3 1-.7.5-.3 1.1-1c.6-.7 1-1 1.2-1 .2 0 .2 0 .1-.3-.1-.5.4-1.2.8-1.2l.2-.4c0-.7 0-.8.3-.8.4 0 .6 1.2.4 2.2 0 .5 0 .7.2.9.2.1.3.4.3 1.6 0 1.1 0 1.5.2 1.5.1 0 .3 0 .3.2.1.2.8.3 5 .2h4.7V55v-28a4309.6 4309.6 0 00-12.6 0l-.1 22.5c0 22 0 22.4-.4 22.5-.2 0-.2.2-.2.3.1.4-1 1.5-1.5 1.5-.2 0-.3 0-.3.2 0 .1-.1.3-.3.3l-.5.4c-.2.2-.5.2-1 .1-.5 0-.6 0-.7.3-.1.4-.5.4-.6 0 0-.3-.2-.4-.6-.3-.8.2-1.8-.8-1.7-1.5.1-.3 0-.4-.2-.4-.3 0-.4 0-.4-.6 0-1 0-1-.2-1s-.3-2.6-.3-22.2v-22h-12.1m-87.4 8l.3.1c.2 0 1.4 1.3 1.3 1.4 0 0 0 .2.2.2.1.1.2.3.2.8 0 .4.1.6.3.6.3 0 .4.7.2 1.4l-.1.9c0 .3 0 .3 0 0 .3-.7.6-.3.6.6a505 505 0 01-.2 28.8c-.1 0-.3-.1-.3-.3v.5c.1 1.2 0 2-.2 2.2-.2 0-.3.3-.3.5s0 .4-.2.5c-.2 0-.3.2-.3.3 0 .2-1 1.3-1.2 1.3-.1 0-.3 0-.3.2-.1.3-2.6.4-2.7 0l-.5-.2c-.3 0-1-.6-1.1-1 0 0 0-.2-.2-.2l-.1-.4c0-.2-.2-.5-.4-.6-.2-.1-.3-.3-.3-.7 0-.4 0-.7-.2-.8-.3-.2-.3-.4-.2-1.8 0-1.5 0-1.6-.3-1.7a211.2 211.2 0 01.2-26.9c0-1.3 0-1.4.3-1.5.3-.2.3-.3.2-1 0-.4 0-.7.2-.8.1-.1.3-.3.3-.5l.4-.3c.2 0 .3 0 .2-.3-.1-.4.5-1.2 1-1.2 0 0 .3 0 .4-.2.3-.4 2.7-.3 2.8 0m146.8 0c0 .3.2.4.6.3.3 0 .5 0 .6.2l.3.2c.4 0 .9.5.9.9l.3.4s.2.2.2.5c0 .2.1.4.3.5l.2.6c0 .4.1.7.3.8.2.1.2.4.2 2s0 1.8.2 1.8a125.9 125.9 0 010 23c-.3 0-.4.1-.3.5.2 1.3.2 3-.1 3-.2 0-.3.2-.3.8 0 .6 0 .8-.3.9-.3 0-.3.1-.3.5.1.4 0 .5-.2.5-.3.1-.4.2-.3.4.1.3-1 1.6-1.5 1.6l-.7.3c-.7.3-2.6.3-2.7-.2 0-.2-.1-.3-.4-.2-.2 0-.3 0-.4-.2 0-.2-.2-.4-.5-.4-.4 0-1-.5-1-.8 0 0-.1-.2-.3-.2a.3.3 0 01-.2-.2c0-.2-.1-.3-.3-.3-.4 0-.4-.7-.4-16.9a82.5 82.5 0 01.7-16.5c0-.2 0-.4.2-.4s.3-.1.3-.3l.1-.4c.2 0 1.2-1 1.6-1.5.2-.3.4-.5.6-.5.2 0 .3 0 .4-.2 0-.2.3-.3.6-.2.4 0 .6 0 .7-.3.2-.4.8-.4 1 0m41.2.1c0 .2.2.3.4.2.3-.1 1.1.7 1 1 0 .2 0 .3.2.4.3 0 .4.2.3.8 0 .6 0 .7.2.8.4 0 .4.2.3 1.5 0 1.3 0 1.5.2 1.6.4 0 .5 9.8.1 10.1-.2.2-1.5.2-4.6.2H379l-.1-4.9c0-5.2 0-5.4.3-5.4.1 0 .2-.4.2-1.7 0-1.4 0-1.7.2-1.8.2-.1.3-.4.3-.7 0-.3 0-.5.3-.5.1 0 .2-.1.2-.5 0-.3 0-.5.3-.5 0 0 .2 0 .2-.2s.1-.2.4-.2c.3.1.4 0 .5-.2.1-.5 3.4-.5 3.5 0m7.3 30.6h.3-.3" fill="#2a2a2a"/><path d="M43.2.2l6 .1 6.1-.1c0-.1-2.1-.2-6-.2-4 0-6.1 0-6.1.2m29.5 0l6 .1 6.1-.1c0-.1-2.1-.2-6-.2-4 0-6.1 0-6.1.2M31 .4c-.3.4.1.4 2.5.4 2.2 0 2.6 0 2.6-.2 0-.3-4.8-.4-5-.2m61 .2c0 .2.3.2 2.6.2 2 0 2.5 0 2.5-.2a13 13 0 00-5.1 0M23.6.9c-.3.3 0 .4 1.6.4 1.3 0 1.6 0 1.6-.2 0-.3-3-.4-3.2-.2m77.7.2c0 .2.3.2 1.6.2 1.2 0 1.6 0 1.6-.2-.2-.3-3.2-.4-3.2 0M19 1.6c0 .2.1.2 1 .2s1.1 0 1.1-.2-.2-.3-1-.3c-.7 0-1 .1-1 .3m88.3 0c0 .2.3.2 1.1.2 1.5 0 1.4-.4 0-.4-.9 0-1 0-1 .2M15.4 2c0 .2.2.2.8.2.5 0 .7 0 .7-.2s-.2-.3-.8-.3c-.5 0-.7.1-.7.3m95.8 0c0 .2.2.2.6.2.4 0 .6 0 .6-.2s-.2-.3-.6-.3c-.4 0-.6.1-.6.3m-97.9.3c-.2.3 0 .4.5.4.4 0 .6 0 .6-.2 0-.3-.8-.4-1-.2m100.3.2c0 .1.2.2.5.2.5 0 .4-.4-.1-.4-.2 0-.4 0-.4.2M12 2.9c-.2.3 0 .4.3.4.2 0 .3 0 .3-.2 0-.3-.4-.4-.6-.2m103.6.2c0 .1.1.2.3.2.5 0 .4-.4 0-.4-.2 0-.3 0-.3.2m-104.7.5c0 .1.1.2.3.2a.3.3 0 10-.3-.2m105.7 0c0 .1.1.2.3.2.2 0 .4 0 .4-.2s-.2-.3-.4-.3-.3.1-.3.3m221.7.1l.1 14.4c0 12.6 0 14 .3 13.6.2-.3.4-25.2.2-28.2l-.3-.2c-.3 0-.4.1-.3.4m-13 39.8l.1 40.1c0 .2 10.7.3 11.3.1.8-.3-.5-.4-5.4-.4h-5.5V43.4c0-31.8 0-39.9-.2-39.9s-.2 8-.2 40M9.8 4c0 .1.1.2.3.2a.3.3 0 10-.3-.2m107.9 0a.3.3 0 10.5 0 .3.3 0 00-.5 0m1 .5c0 .1 0 .2.2.2.3 0 .3-.3 0-.4-.1 0-.2 0-.2.2M8.3 5c0 .1.1.2.3.2a.3.3 0 10-.3-.2m131.9.9v.2l6.6.1c4.6 0 6.5 0 6.4-.1a175.4 175.4 0 00-13-.2M169 6c-.2.3.8.3 6.4.3a59.2 59.2 0 006.4-.3h-.1A265.1 265.1 0 01169 6m81.4 0c-.4.5-.4 11.3 0 11.3.2 0 .3-.7.3-5.5V6.3h18.8a392 392 0 0018.3-.3 2140.4 2140.4 0 01-37.4 0m38 5.8c0 4.8 0 5.5.2 5.4l.2-.3c0-.2 0-.2-.2-.1-.1 0-.1 0 0-.2.3-.3.3-10.1 0-10.2-.2 0-.3 1-.3 5.4M121.7 7.1c0 .1 0 .2.2.2.3 0 .3 0 .1-.2l-.3-.3v.3m31.7-.2c-.2.3 0 1 .2 1 .1 0 .2-.2.2-.5 0-.4-.2-.6-.4-.5m-13.5.4c0 .3.1.5.2.5.2 0 .2 0 .2-.3 0-.2-.2-.4-.3-.5-.1 0-.2 0-.1.3m28.2.8c0 .1 0 .2.2.2.1 0 .2 0 .2-.2s-.1-.3-.2-.3-.2.1-.2.3m13.6-.1c0 .3.3.3.4 0 0 0 0-.2-.2-.2l-.2.2M4.8 8.6c0 .1.1.2.3.2a.3.3 0 10-.3-.2m118.4.5a.3.3 0 10.5 0 .3.3 0 00-.5 0m17.3-.1l.1.8c.3 0 .3-.4 0-.8 0-.2-.1-.2-.1 0m13.3.8c0 .3.1.5.3.5.2 0 .2-.2.2-.5s-.1-.5-.3-.5c0 0-.2.2-.2.5m-150 .3c0 .1.1.2.3.2a.3.3 0 10-.3-.2m163.8-.2c-.2.3-.1 1 .2 1 .1 0 .2-.2.2-.6 0-.4-.2-.6-.4-.4m-26.8 1c0 .2.2.4.3.5.2 0 .2 0 .2-.3 0-.4-.5-.6-.5-.1M3.3 11c0 .2.1.3.3.3a.3.3 0 10-.3-.2m177.4.3c-.1.4 0 .5.3.3.2-.2.2-.2 0-.4-.1-.1-.2-.1-.3.1m-56 .5c0 .5.3.7.4.3 0-.1 0-.3-.2-.5-.2-.3-.2-.2-.2.2m29.6.3c0 .5.1.6.3.6.1 0 .2-.1.2-.4 0-.2 0-.5-.2-.6-.2-.1-.3 0-.3.4m-151.5 0c0 .2.1.3.3.3.1 0 .2-.1.2-.3 0-.2 0-.4-.2-.4s-.3.2-.3.4m164.4 0c-.2 1-.2 1.1 0 1 .3 0 .4-1.2.1-1.2l-.1.1m-25.9.4c0 .3.2.7.4.7s.1-.7-.1-.8h-.3m-16.1.8c0 .2 0 .3.2.3s.3-.1.2-.3c0-.4-.4-.5-.4 0m55 0l.1.6.2-.1v-.4c.1-.1 0-.3 0-.4-.3 0-.3 0-.3.3m-177.8.2c-.2.3 0 1.1.2 1.1s.2-.2.2-.6c0-.5-.1-.7-.4-.5m152.4 1c0 .4.1.6.3.6.3 0 .3-1 0-1-.2-.1-.3 0-.3.4m-13 0c0 .2.1.5.3.7.2.3.2.3.2-.2 0-.3 0-.6-.2-.6s-.3 0-.3.2m24.8 0c-.1.2 0 .9.2 1 .2 0 .2-.1.2-.6s-.2-.7-.4-.4m-41 .7c0 .6.1.8.3.8.2 0 .3-.2.3-.6 0-.3-.1-.6-.3-.7-.2-.2-.2-.1-.2.5m54.2-.4l-.2.4c0 .4 0 .4.2 0 .3-.4.3-.5 0-.4m-178 .6c-.2.3 0 1.3.2 1.3s.2-.2.2-.7c0-.6-.1-.8-.4-.6m140.5 1.2s0 .2.2.2a.2.2 0 000-.5c-.1 0-.2.1-.2.3m13-.2c-.2.3 0 1 .2 1 .1 0 .2-.2.2-.5 0-.4-.2-.6-.4-.5m24 .1c-.3.3-.3.6 0 .8 0 0 .1 0 0 0l.1-.5c.2-.4.1-.5-.1-.3m-53.2 1.3c0 .5 0 .7.2.7s.3-.2.3-.8c0-.5-.1-.7-.3-.7-.2 0-.2.2-.2.8m39.8-.3c0 .4.1.5.3.3.3-.2.3-.8 0-.8-.2 0-.3.2-.3.5m109.8 32.8v33h-6.6c-5.2 0-6.5 0-6.5.2.1.3 13.3.4 13.5.1.3-.4.2-66.3-.1-66.3-.2 0-.3 3.9-.3 33M1.5 18c-.3.2-.2 1.6 0 1.6.3 0 .3-.2.3-.8v-.9l-.3.1m177.5.2c0 .1-.1.2-.3.2-.2 0-.3.3 0 .7.1.3.5-.6.4-.9 0-.1 0-.1 0 0m-36.3.3l.3.3.2-.2c-.1-.3-.5-.4-.5-.1m13.2.5c-.2.2-.2.7 0 .8.3.1.3 0 .3-.4v-.5l-.3.1m9.5.6c0 .4 0 .5.2.5s.3-.2.3-.5 0-.5-.2-.5l-.3.5m-22.2.5c0 .3.2.7.4.7l.1-.4c0-.3 0-.5-.2-.5s-.3.1-.3.2m34.9 0c-.3.4-.1 1 .2.7v-.5c0-.4 0-.4-.2-.1m-51.5.9c0 .8 0 1 .2 1s.3-.2.3-.8c0-.5-.1-.9-.3-1-.2-.2-.2-.1-.2.8m29.7.3c-.1.4 0 .7.2.7.1 0 .2.1.2.3l.1.2c.2-.2 0-1.5-.2-1.5l-.3.3M1 21.3c-.3.4-.2 2.2 0 2.2.3 0 .3-.2.3-1.2 0-1.2 0-1.2-.3-1m164.2 0c-.2.3-.3 1.2 0 1.2.2 0 .3-.4.3-1 0-.3-.1-.3-.3-.1m-21.4.3s.1.1.2 0c.1 0 .2 0 0 .3v.3c.2 0 .3-.2.3-.4s0-.4-.2-.4-.3 0-.3.2m34 .4c-.3.3-.4.5-.1.3h.1l-.1.3c-.1 0-.1 0 0 0l.2-.4c0-.5 0-.5-.2-.2m-33.3 1.6c0 .6.4.8.4.2 0-.4 0-.6-.2-.6s-.2.2-.2.4m12.6 0l-.1.5c0 .2 0 .3.2.3.5 0 .5-.3.2-.8-.3-.2-.3-.2-.3 0m7.5.3c0 .3 0 .5.3.5l.2-.4c0-.2-.1-.4-.3-.5-.1 0-.2 0-.2.4m12.5.2v.3l.3-.3c.2-.3.2-.4 0-.4s-.3.2-.3.4m-49.8 1.4c0 1.1 0 1.4.2 1.4s.3-.2.3-1.2-.1-1.3-.3-1.5c-.2-.1-.2 0-.2 1.3m17.8 0l.3.4v-.3c0-.2 0-.4-.2-.4s-.2.1-.1.4m31.7 0c-.3 0-.3.6 0 .6.2 0 .3-.1.3-.4v-.4l-.3.1m16.5 0v.3h2.8c4 0 4.1-.3.1-.4-2 0-3 0-2.9.1m154.2 0c-.3.3.1.4 2.2.4 2 0 2.2 0 2-.3-.1-.2-4-.3-4.2 0m33.9 0c-.3.2.3.3 2.7.3 2 0 2.7 0 2.6-.2 0-.2-5.1-.4-5.3-.2m-223.8.8c0 .6.2.8.4.3 0-.1 0-.4-.2-.6-.2-.3-.2-.3-.2.3m6.7-.4c-.3.3-.3 1 0 1 .2 0 .3-.2.3-.6 0-.6 0-.7-.3-.4M.5 26.1c-.3.1-.2 3.2 0 3.2.3 0 .3-.3.3-1.6V26l-.3.1m51 0c-.2.2-.2 37.7 0 37.8l.8-.4a49.8 49.8 0 015.3-3 64.6 64.6 0 005.2-3l2.4-1.4A731.8 731.8 0 0181.1 47l3-1.9c0-.2-.2-.5-1.2-1l-1.2-.7a52.9 52.9 0 01-4.3-2.5 78.3 78.3 0 01-5.2-3 48.1 48.1 0 01-4.3-2.5 61.5 61.5 0 01-4.6-2.6 76.5 76.5 0 01-5.2-3 34.9 34.9 0 01-3.5-2l-1.5-.9c-1.4-.8-1.5-.9-1.7-.7m138.8.1c0 .2.1.3.4.3.2 0 .4-.2.4-.3l-.4-.2c-.3 0-.4 0-.4.3m11 0c0 .1.1.2.5.2s.5 0 .3-.3a.8.8 0 00-.5-.2c-.2 0-.3.1-.3.3m144.2-.2c-.1.2 0 .4.4.4 0 0 .2-.1.2-.3 0-.2-.4-.3-.6 0m7.6 0c0 .2.2.3.4.3s.4-.1.4-.3l-.4-.2c-.2 0-.4.1-.4.3m25.3-.2c-.3.3-.1.4.4.4.3 0 .5 0 .5-.3 0-.2-.7-.3-1 0m10.6 0c-.3.2 0 .3.5.3.6 0 1-.3.6-.3l-.6-.1h-.5m-185.9.6c0 .2.3.3.4.3.2 0 .3-.1.3-.3 0-.1-.1-.2-.4-.2-.2 0-.3 0-.3.3m16.5 0a1631.8 1631.8 0 00-.1 22V27h13.2v21.2c0 16.9 0 21.1.2 21 .2 0 .2-4.4.2-21.3V26.6h-6.7c-5.6-.1-6.7 0-6.8.1m21.3 0c-.2.6-.1 44.6 0 44.6.3 0 .3-4.6.3-22V27h6.6l6.6-.1v56.3h-5.3c-5 0-5.4 0-5.2.2.2.5 10.7.5 10.9 0 .1-.4 0-56.3-.1-56.7a78 78 0 00-13.8 0m43.2-.2v.3l6.8.1c5.4 0 6.8 0 6.8-.2-.1-.2-13.3-.4-13.6-.2m21.3.2c-.3.5-.2 44.9 0 45 .3 0 .3-4.5.3-22.4V27h13.2v56.3h-5.4c-4.2 0-5.3 0-5.3.2.1.2 1.4.3 5.6.3h5.5V55.4 26.8a73 73 0 00-14 0m38.8 0l.3.2.1-.3s0-.2-.2-.2-.2.1-.2.3m47.3 0c0 .1 0 .2.2.2l.2-.2c0-.1 0-.2-.2-.2-.1 0-.2 0-.2.2m-245.8.3c-.2.2 0 .7.2.8.2 0 .2 0 .2-.3 0-.4-.2-.7-.4-.5m197.5 0c0 .1 0 .4.2.4.1 0 .2-.1.2-.3 0-.2-.2-.3-.4 0m12.5 0c-.1.1 0 .3.2.3.1 0 .2 0 .2-.2s-.2-.3-.4-.2m19.7.1c0 .2 0 .3.3.3.1 0 .3 0 .2-.2 0-.3-.4-.3-.5 0m-199.1.4c0 .3 0 .4.3.4l.2-.5c0-.1-.1-.3-.3-.3l-.2.4m198.2 0c-.2.3-.2.3.1.3.2 0 .4-.1.4-.3l-.2-.2-.3.3m-216 .3c-.3.2-.2.9 0 .9 0 0 .2 0 .2-.2.1-.2-.1-.8-.3-.7m5.5 0c-.2.2-.1.9.2.9l.2-.4c0-.4-.2-.7-.4-.5m21.7 0c-.2.2-.1.4.1.4s.3-.1.3-.3c0-.2-.2-.3-.4 0m208.9 0c0 .2 0 .3.2.3s.3.1.3.3c0 0 0 .2.2.2s.3.1.3.3c0 0 0 .2.2.2s.3.1.3.3c0 0 0 .2.2.2s.3.1.3.3c0 0 0 .2.2.2s.3.1.3.3c0 0 0 .2.2.2s.3 0 .3-.2c0 0-.1-.2-.3-.2l-.2-.4-.2-.2a4 4 0 01-1.3-1.3c0-.1-.1-.2-.3-.2l-.3-.3-.3-.2-.1.3m-53.2.4c.2 0 .2.1 0 .1s-1.7 1.4-1.7 1.6l.3.1c.1 0 .2-.1.2-.3 0 0 .1-.2.3-.2.1 0 .2-.1.2-.3 0 0 .1-.2.3-.2.1 0 .2-.1.2-.3l.3-.2c.3 0 .2-.4-.1-.5-.2 0-.2 0 0 .2m31.5.1l-.2.2c-.2 0-.3.1-.2.3l.3.2.1-.3s.1-.2.3-.2c0 0 .2 0 .2-.2l-.3-.1-.2.1m-226.6.3c0 .1 0 .4.2.5.2.3.2.3.2-.2 0-.6-.2-.8-.4-.3m29.6.3c.1.6.4.6.4 0 0-.3 0-.4-.2-.4-.1 0-.2.1-.2.4m196 .5c-.1.2-.2.3-.3.2-.2-.1-.2 0-.1 0 0 .1 0 .3-.3.4-.4.2-.4.5 0 .5 0 0 .2-.1.2-.3 0 0 .1-.2.3-.2 0 0 .2-.1.2-.3 0 0 .1-.2.3-.2l.2-.2c0-.4-.5-.3-.6 0m-163 .4c0 .1.2.3.3.2.2-.2.2-.4 0-.4-.1 0-.2 0-.3.2m-80.7 2.7c0 2 0 2.4.2 2.4s.3-.3.3-2.2c0-1.8 0-2.3-.3-2.4-.2-.2-.2 0-.2 2.2m18.8-2.3v.8c.3 0 .4-.6.2-.8-.1 0-.2-.1-.2 0m12.1 0c-.2.2-.1.8.1.8s.2-.1.2-.3c0-.5-.1-.6-.3-.5m4.5.4c0 .3 0 .4.2.4.1 0 .2-.1.2-.4 0-.3 0-.4-.2-.4-.1 0-.2.1-.2.4m45.7-.3c0 .2.1.3.3.3.1 0 .2.1.2.3l.2.2c.2 0 .2 0 0-.5-.3-.5-.7-.6-.7-.3m-33.8.6c0 .6.2.7.4.3.2-.5.1-.8-.2-.8-.1 0-.2.2-.2.5m7.2-.1c.1 0 0 .2-.2.3-.4.2-.4.5 0 .5 0 0 .1 0 0-.2 0 0 .1-.2.3-.2.4-.2.5-.6.1-.6-.1 0-.2 0-.2.2m176.8.4c0 .2.2.3.3.3v-.3c-.2-.4-.3-.4-.3 0m-184.3 1c.1.1 0 .2 0 .2-.1 0-.2.1-.2.3 0 .1.1.2.3.1.2 0 .3-.5 0-.6-.1-.1-.1 0 0 0m184.8.1c-.2.4 0 .6.3.3.1-.1.1-.2 0-.4-.2-.1-.2 0-.3.1m-212.7.1l.1.2c.1 0 .1 0 0 .2l.2.1.1-.3c0-.4-.2-.4-.4-.2m15.7 0c-.2.4-.1 1.2.1 1.2s.3-.2.3-.7c0-.6-.2-.9-.4-.5m-3.6.6c0 .7.2.8.4.2 0-.2 0-.4-.2-.6-.2-.2-.2-.2-.2.4M0 36.7c0 2 0 3.3.2 3.3l.1-3.3-.1-3.4c-.1 0-.2 1.3-.2 3.4m210.8-3c0 .2.2.3.3.3.2 0 .2 0 0-.3l-.2-.2v.3m157.8.2c-.2 0-.2.2 0 .2.2.2.4 0 .3-.2h-.3m-8.6.1c-.2.2-.1.7.1.8.2 0 .2 0 .2-.3 0-.5-.1-.6-.3-.5m-212.6.6c-.1.2 0 .3 0 .2l.2.1c0 .2.1 0 .1-.1 0-.5-.2-.7-.3-.2m26.5 0l.3.6.1-.4c0-.3 0-.4-.2-.4 0 0-.2 0-.2.2m224.7.3c0 .4 0 .5.2.4.3-.1.3-.8 0-.9-.2 0-.2.1-.2.5m-239.2.7c0 .6 0 .8.2.8.3 0 .3-1 0-1.4-.2-.1-.2 0-.2.6m36.1-.6c-.2.2-.1.4.2.4.2 0 .4-.1.4-.3 0-.2-.4-.3-.6 0m172.5 0c-.2.1-.1.3.1.3s.3-.1.3-.3c0-.2-.2-.3-.4 0m14.4 0c.1.3 2.2.3 2.2 0 0-.1-.3-.2-1.1-.2s-1.1 0-1 .2m-220.5 0c-.2.5-.1 1.3.1 1.3s.3-.2.3-.5 0-.5-.2-.5c0 0-.1 0 0-.2v-.1h-.2m17.7.6c0 .2.1.3.2.3l.2-.4-.2-.2-.2.3m14.4 0s0 .2.2.2.3-.1.3-.3c0 0-.1-.2-.3-.2-.1 0-.2.1-.2.3m148.4 0c0 .1 0 .2.3.2.2 0 .4-.2.4-.3l-.4-.2c-.2 0-.3 0-.3.3m1.4-.2l.3.3c.2 0 .3 0 .3-.2-.1-.2-.6-.3-.6 0m-146.6.2l.5.3s.1 0 0 0c0 .2.5.8.7.8v-.3s0-.2-.2-.2a.3.3 0 01-.2-.3s-.1-.2-.3-.2c-.1 0-.2 0-.2-.2l-.3-.1c-.3 0-.3 0 0 .2m-49.4.2c-.2.3 0 .8.1.9.2 0 .2-.1.2-.5 0-.5-.2-.7-.3-.4m193.4.1c0 .2-.2.3-.3.3-.2 0-.3.1-.3.3 0 .3.3.3.5-.1l.3-.3c.1 0 .2 0 .2-.2 0-.3-.2-.3-.4 0m4 0c0 .2.3.2.3 0l-.2-.2c-.1 0-.2 0-.1.2m15.1.4c0 .3 0 .6.2.6.3 0 .3-.8 0-1-.2-.2-.2-.2-.2.4m-148.7-.1c0 .4.3.6.4.4.2-.2 0-.7-.2-.7-.1 0-.2.1-.2.3m187.4.3c0 .8.5 1 .5.2 0-.3-.1-.5-.2-.4l-.2-.1v.3m-225.8 0l.3.1s.2 0 .2-.2c0-.1-.1-.2-.3-.2l-.2.2m172.4 0c0 .2.3.2.3 0l-.2-.2c-.1 0-.2 0-.1.2m21.7 0c-.1.4 0 .8.2.8l.2-.4c0-.5-.3-.7-.4-.4m18.6 0c.1.3.5.4.5 0l-.3-.2c-.1 0-.2 0-.2.2m-207 .4c-.1.2 0 .8.2.8s.3-.1.3-.4c0-.5-.2-.6-.4-.4m19.5.6c.1.4.4.5.3.1 0-.1 0-.3-.2-.4-.1 0-.2 0-.1.3m181.5-.2c-.1 0-.2.2 0 .3l.2-.1c.3-.3.1-.4-.2-.2m6.4.1c0 .1 0 .3.2.4.2.2.3.1.3-.1 0-.3-.1-.4-.3-.4l-.2.1m-226.7.7c0 .5 0 .7.2.7l.2-.4-.1-.4s-.1-.1 0-.2l-.1-.2c-.1-.1-.2.1-.2.5m1.7-.6c-.2.5-.2 1.1 0 1.1s.3-.1.3-.4c0-.2 0-.4-.2-.4 0 0-.1 0 0-.2v-.1h-.1m-13.3.4c0 .1 0 .4.2.5.2.3.2.3.2-.1 0-.6-.3-.8-.4-.4m25 0c0 .2-.1.2-.2.1-.1 0-.2.1-.2.4 0 .2 0 .4.2.4s.3-.4.3-.8c0-.1-.1-.2-.1 0m39 .4c0 .4 0 .6.2.6.3 0 .2-1 0-1.2-.2 0-.3.2-.3.6m-20.1.3c0 .2 0 .3.2.1.2-.1.3-.3.3-.4l-.3-.1c-.1 0-.2.1-.2.4m175-.2l-.1.5c-.1.2 0 .3.1.3.2 0 .3-.2.3-.5s0-.5-.2-.5l-.1.2m-20.3.5l.2.2c.1 0 .2 0 .2-.2 0 0 0-.2-.2-.2-.1 0-.2 0-.2.2m-168 0c-.3 0-.3 1 0 1 .2 0 .3-.2.3-.6V39l-.3.1m160.1 0c-.1.1-.2.3-.1.4 0 0 .1.1.2 0 .2 0 .2-.2.2-.3h-.3m-139.7.4c0 .2.1.4.3.4l.2-.4c0-.3 0-.4-.2-.4s-.3.1-.3.4m161.7.6c0 .7 0 1 .3 1 .2 0 .2-.8 0-2 0-.5-.3.2-.3 1m38.7-.4l.1.7c.1 0 .2-.3.2-.7 0-.3 0-.6-.2-.6l-.1.6m-12.5.4c0 .5 0 .8.2.8.4 0 .3-1.4 0-1.6-.2 0-.2 0-.2.8m-7.6-.4l.1 1c0 .9.3.7.3-.4 0-.7 0-.8-.2-.9-.3 0-.3 0-.2.3m-230.7.3c0 .1 0 .4.3.4l.1-.3c0-.2-.2-.3-.4 0m23.6.2c0 .4 0 .4.3.2l.2-.4c0-.1-.1-.2-.3-.2l-.2.4m165.8 15.7c0 14 0 15.7.3 15.6.3-.1.3-31.2 0-31.3-.2 0-.3 3.1-.3 15.7M160.5 41c0 .6.2.7.7.6.2 0 .3-.2.3-.6 0-.6-.2-.8-.4-.4l-.3.1s-.1 0 0-.1l-.1-.2-.2.6m31.4-.5c-.2 0-.2.5-.2 1.2 0 1 .1 1.3.4.8.1-.4 0-.5-.1-.3-.1 0-.2 0 0-.1l.1-1.7-.2.1m21 .7c0 .4 0 .7.2.8.3 0 .3-.8 0-1v-.3c.3-.1.3-.1 0-.1-.2 0-.3.1-.3.6m153.9-.2c-.2.2-.2.2 0 .2s.2 0 0 .2c-.3.3-.3 1.3 0 1.2.2 0 .3-.3.3-1 0-1 0-1-.3-.6m-19.3.8c0 .6 0 .9.2.9.3 0 .3-1.6 0-1.7-.2 0-.2.1-.2.8m-175-.2s-.1.1-.2 0c-.1 0-.2.1-.2.4 0 .6.4.5.5-.1v-.5c-.1 0-.2 0-.2.2m6 .4c-.2.5-.1 2.1.2 2 .1-.2.2-.5.1-1.3 0-1 0-1-.2-.7m-29 .1c0 .2.2.3.3.3l.1-.3s0-.2-.2-.2-.2.1-.2.3M199.8 55c0 11.4 0 12.9.3 12.8.3-.1.3-25.4 0-25.5-.2 0-.3 2.5-.3 12.7M150 43.7l.2.4c.1 0 .2 0 .2-.3 0-.1 0-.3-.2-.3-.1 0-.2 0-.2.2m21.6.3c0 .6.2.5.4-.1l-.1-.4c-.2 0-.3.2-.3.5m41.8 2.8c0 2.4 0 2.8.3 2.8s.4-4.7 0-5.2c-.2-.3-.3 0-.3 2.4m-62.9-1.4v.4c.2.3.4.2.4-.2 0-.5-.3-.6-.4-.2m20.6.2l.2.4.2-.4c0-.2 0-.4-.2-.4l-.2.4m190.5 9.2a110.7 110.7 0 00.3 8.2c.1 0 .2-2.3.2-8.3a59 59 0 00-.3-9.5c-.1 0-.2 3.3-.2 9.6m4.5-8.7c0 .1 0 .3.2.3v.3a193 193 0 000 18.2c.3.3.3-.8.3-9.4 0-8.5 0-9.7-.3-9.7 0 0-.2.1-.2.3m-215 1.2c0 .6.3.9.3.3 0-.3 0-.6-.2-.7-.2 0-.2 0-.2.4m19.6.2c0 .5.2.7.4.2.2-.4.1-.7-.2-.7-.1 0-.2.2-.2.5m7.3.3c-.1.1 0 .2 0 .2.2 0 .2 0 0 .2A112.6 112.6 0 00178 63c.1 0 .2-2.9.2-7.7 0-7-.1-8-.4-7.5m-26.4 1.3c0 .1 0 .3.2.4.2.2.2.1.2-.1 0-.4-.2-.5-.4-.3m18.6.2c0 .4.3.5.4.1.1-.4.1-.4-.2-.4 0 0-.2.1-.2.3m177.8 5.9c0 5.2 0 6 .3 6 .2 0 .2-.8.2-6 0-5.3 0-6-.2-6s-.3.7-.3 6M0 53.3c0 2.1 0 3.4.2 3.4l.1-3.4L.2 50C0 50 0 51.2 0 53.3M151.8 51c0 .5.5.8.5.3 0-.3 0-.5-.2-.5s-.3.1-.3.2m17.8 0v.5c.3.2.4 0 .2-.5 0-.3-.1-.3-.2 0m210 .4c-.3.3.3.4 4 .4 3.5 0 4 0 4-.3 0-.2-7.7-.4-8-.1m-227.2 1.4c0 .1.2.8.4.8V53c0-.5-.2-.7-.4-.3m16.6 0c0 .2.1.3.3.3 0 0 .2-.1.2-.3 0 0-.1-.2-.3-.2 0 0-.2.1-.2.3m-16 1.5c-.1.1-.1.3 0 .4 0 .1.1.3 0 .4h.1c.3-.1.3-.7 0-.8 0-.1-.1 0-.2 0m15.6.3c0 .4 0 .6.2.5.2 0 .2-.6 0-.8-.1-.1-.2 0-.2.3M127.7 57c0 2.3 0 3 .4 2.2.2-.6 0-4.7-.2-4.7s-.2.4-.2 2.5m40.3-.6c0 .3 0 .4.3.3.3 0 .2-.6 0-.7-.2 0-.3.1-.3.4m-14.4 0v.6l.2-.4c0-.5 0-.5-.2-.2m13.9 13.7a114.8 114.8 0 000 13c0 .2-.7.2-6.7.2-6.4 0-6.8 0-6.5.2.2.3.8.3 6.6.3h6.4l.3-.4.4-.3V70.4c0-11 0-12.7-.3-12.7-.2 0-.2 1.7-.2 12.4m-13.6-12l.1 12.6c0 8.2 0 12.3.2 12.3l.1-12.2.1-12.3c0-.2 0-.4-.3-.5-.3-.2-.3-.2-.2 0m225.6 1.8c0 .1 3.5.2 10.3.2 6.7 0 10.2 0 10.2-.2l-10.3-.1-10.2.1M.3 62.1c0 1.1 0 1.6.3 1.7.2.2.2 0 .2-1.5s0-1.8-.2-1.8-.3.3-.3 1.6m213 1c0 1.8 0 2.4.3 2.5.1 0 .2-.4.2-2.4 0-2.2 0-2.5-.2-2.5s-.3.3-.3 2.4m-86.1 1c0 1.4 0 1.6.2 1.4.2-.2.3-.6.3-1.6 0-1.1 0-1.4-.3-1.4-.2 0-.2.3-.2 1.6m261.3 1.2c-.2 0-.3.2-.3.3a60.1 60.1 0 013.3 0c.3 0 0-.2-.4-.2a12 12 0 00-2.6-.1m7.6.6c-.1.4.2.5 1.9.4l1.7-.1c.4 0 .3-.2-.2-.3-1.4-.3-3.3-.3-3.4 0M1 67.5c0 1.5.4 1.6.4.1 0-.9 0-1.1-.2-1.1s-.3.2-.2 1m177.3 0c0 .6 0 1 .2 1.3.2.3.3.2.3-.8 0-.9 0-1.2-.3-1.2-.2-.1-.2 0-.2.8m169.2 0c0 .6 0 .7.2.7s.2-.2.2-.7c0-1-.4-1-.4 0m-220.7 1c0 1.4.4 1.4.4 0 0-.8 0-1-.2-1s-.2.3-.2 1m239.8-.2c0 .4.1.8.3 1 .2.1.2 0 .2-.7 0-.6 0-.9-.3-1-.1 0-.2.1-.2.7m-174.7-.5l.2.3s0 .1-.2 0l-.1.8c0 .6 0 .8.2.9.2 0 .3 0 .2-1 0-.6-.1-1-.2-1s-.2 0 0 0M361 69c0 .8.2 1.3.4.7.1-.4 0-1.7-.2-1.7-.1 0-.2.2-.2 1m-148-.6s-.2.4-.2 1 0 .7.2.6c.2-.2.4-1.8.3-1.7h-.3m166.6 1.3c0 .8 0 1.3.2 1.3.3 0 .4-1 .2-1.2V69l-.1-.3c-.1 0-.2.2-.3.7m8.3.3c-.2 0-.2.4-.2.7 0 .4.1.5.3.4.1-.1.2-.4.1-.7 0-.4 0-.5-.2-.4m-41 .2c0 .2 0 .6.2.8v-.3c.2 0 .2-.2.2-.3 0-.4-.2-.5-.4-.2m-147.5.7c0 .2 0 .4.2.4l.2-.4c0-.3 0-.4-.2-.4s-.3.2-.2.4m-198 .4c0 .9.4 1 .4 0 0-.4 0-.6-.2-.6s-.3.1-.2.6m177.3 0c0 .3 0 .5.2.5l.2.1v-.4c0-.5 0-.6-.2-.6s-.2.1-.2.5m188.5-.2c-.2.1-.2.2 0 .6.2.5.2.5.3.1 0-.6 0-.9-.3-.7m-154.7.3c-.2 0-.2 1 0 1l.3-1h-.3m-20.3.5c0 .4 0 .5.2.5s.3-.1.3-.5c0-.3-.1-.5-.3-.5-.2 0-.2.2-.2.5m105.5-.5c-.2.8-.2 1 0 1 .2.2.3 0 .3-.2 0-.3-.3-1-.3-.8m102 1l.1.9c.1 0 .2-.4.2-1 0-.5 0-.9-.2-.9l-.1 1m-273.5 0c0 .6 0 .7.2.5.2 0 .3-.4.3-.7 0-.4-.1-.6-.3-.6-.2 0-.2.2-.2.8m220.3-.7v.5c-.1.1 0 .2 0 .2.3 0 .4-.8.2-.8l-.2.1m14.2 0c-.3.1-.3.8 0 1 .1 0 .1 0 0 0v-.3c.2 0 .2-.2.2-.4v-.4l-.2.1m-127.7.5c0 .1.1.2.3.2 0 0 .2 0 .2-.2 0-.1-.1-.2-.3-.2 0 0-.2 0-.2.2m147.2.2c0 .5.5.7.5.3l-.2-.3s-.1 0 0-.2c0-.2 0-.3-.2-.3l-.1.5m7.2-.3v.2c-.2 0-.2.1-.2.3 0 .4 0 .4.2 0 .3-.3.3-.7 0-.7v.2m-208.2 1.3c0 .6.5.7.5 0 0-.3-.1-.5-.3-.5-.2 0-.2.2-.2.5m-177.4.4l.1.7c.2.5.4.3.4-.5 0-.5 0-.7-.2-.7s-.3.1-.3.5m365.8-.2c0 .1 0 .3.2.3l.2-.3c0-.2 0-.3-.2-.3s-.3 0-.2.3m-155.8.3c0 .4.1.5.2.5.3 0 .2-.6 0-.9-.1 0-.2 0-.2.4m26.9-.2l.1.2c.1 0 .2 0 .3-.2 0-.2 0-.3-.2-.3-.1 0-.2.1-.2.3m45.3-.1c-.2.2 0 1.2 0 1.2.2 0 .3-.3.3-.7 0-.6-.1-1-.3-.5m76.2.3c-.2 0-.3 1 0 1 0 0 .1 0 0-.1l.1-.2.2-.4v-.4h-.3M198 74l-.3.3c-.3.1-.4.3-.3.4h.3l.4-.4c.2 0 .2-.2 0-.4h-.1m21.5.3l.1.5.1.1v.4c.2.1.2 0 .2-.6 0-.5 0-.8-.2-.8-.1 0-.2.2-.2.5M234 74l.2.2c.1 0 .2 0 .2-.2 0-.1 0-.2-.2-.2-.1 0-.2 0-.2.2m64.5 0l.2.2c.1 0 .2 0 .2-.2s0-.3-.2-.3c-.1 0-.2.1-.2.3m46-.2v.3l.2.1.1-.2c0-.2-.1-.3-.3-.3-.1 0-.2 0 0 .1m36.7.2c0 .1 0 .2.2.2l.3-.1-.3-.3c-.1 0-.2 0-.2.2m-255.5.6c0 .8.4.8.4 0 0-.6 0-.7-.2-.7s-.2.2-.2.7m68.5-.1c0 .1 0 .2.2.2s.3 0 .2-.2c0-.3-.4-.3-.4 0m40.8 0c0 .1.1.2.3.2 0 0 .2 0 .2-.2 0-.1-.1-.2-.3-.2 0 0-.2 0-.2.2m1.3 0c-.1.2-.1.2.4.2.3 0 .5 0 .4-.2 0-.3-.5-.3-.8 0m63.1-.1c-.1.1.1.3.4.3 0 0 .2 0 .2-.2s-.4-.3-.6-.1m1.7 0c0 .3.4.4.4.1.1-.1 0-.2-.2-.2s-.3 0-.3.2m84.2 0a.3.3 0 10.5 0 .3.3 0 00-.5 0m-205.5.4c0 .2.1.3.3.3 0 0 .2-.1.2-.3 0-.2-.1-.3-.3-.3-.1 0-.2.1-.2.3m188.4 0l.2.3c.3 0 .2-.4 0-.5-.2 0-.3 0-.2.2m-172.5 0c0 .2 0 .3.2.3s.3 0 .3-.2-.1-.3-.3-.3c-.1 0-.2.1-.2.3m15.8-.2c-.1.2 0 .8 0 .8.2 0 .3-.1.3-.3.1-.2 0-.6-.3-.5m-209 .8c-.1.2 0 1 .3 1 .2 0 .2-1 0-1.1h-.3m357.1.4l.1.3c.2 0 .4-.4.3-.5-.2-.2-.4-.1-.4.2m9.2 0c-.2.2-.1.3 0 .4.2 0 .3 0 .3-.2 0-.4 0-.4-.3-.1m30-.2v.4c0 .2 0 .2.2 0V76c0-.1 0-.1-.1 0m-273.6.6c0 .5 0 .6.2.4.2-.1.3-.3.3-.5s-.1-.3-.3-.4c-.2 0-.2 0-.2.5m85.6-.1c0 .2.1.3.2.3.2 0 .3-.2.3-.3 0-.1-.1-.3-.3-.3 0 0-.2 0-.2.3m9.2 0c-.2.1-.2.2 0 .3v.3c0 .3 0 .3.2.1.3-.3.1-1-.2-.7m178.2.5l.2.2c.1 0 .2 0 .2-.2 0 0 0-.2-.2-.2l-.2.2m-39.2.3c0 .2 0 .3.2.3l.1-.4-.1-.2-.2.3m-356.2.3c0 .1.1.2.3.2a.3.3 0 10-.3-.2m207.5 0l.2.2c.3-.1.4-.5.1-.5l-.3.3m-85.4 0c-.3.1-.3.7 0 .7.1 0 .3-.4.2-.6 0 0-.1-.1-.2 0m182 .1c-.4.1-.5.5-.2.5l.1-.1.2-.2.1.5c0 .3 0 .6.2.6.1 0 .2-.1.2-.6 0-.6-.2-.9-.7-.7m-21.8.5c0 .2 0 .4.2.4l.1-.3-.1-.3c-.1 0-.2 0-.2.2m-281.7.2c0 .3.2.7.4.7l.1-.5c0-.2 0-.4-.2-.4s-.3.1-.3.2m217.3 0c0 .4.3.3.4 0 0 0 0-.2-.2-.2-.1 0-.2.1-.2.3m22 .5c.2 1 .4 1 .4 0 0-.4 0-.5-.2-.6-.3 0-.3 0-.2.6m-118.4 0a.3.3 0 10.5 0 .3.3 0 00-.5 0m85.2-.1l.1.2c.2 0 .2-.3 0-.3h-.1m128.4.2c0 .1.1.2.3.2a.3.3 0 10-.3-.2m32.4-.2c0 .3.4.9.6.8.3 0 .3-.4 0-.4a.3.3 0 01-.3-.2c0-.2 0-.3-.2-.3l-.1.1m-366.4.7c0 .1.1.2.3.2a.3.3 0 10-.3-.2m178.4 0l.4.3c.1 0 .2.2.1.3 0 .1 0 .1.1 0 .1 0 .3 0 .3.3 0 .2.2.3.2.2l.4.3c0 .2.2.3.3.2.3-.1.2-.4 0-.4a.3.3 0 01-.3-.2c0-.2-.1-.3-.3-.3a.3.3 0 01-.2-.2c0-.2-.1-.3-.3-.3a.3.3 0 01-.2-.2c0-.2-.1-.3-.3-.3l-.2.2m58.8 0c0 .1 0 .1.2 0l.2.2c0 .1 0 .1 0 0 0-.2 0-.4-.2-.4l-.2.2m64.5 0c0 .2.1.3.3.3l.2-.2c0-.2-.1-.3-.3-.3 0 0-.2.1-.2.3m91.3 0l-.3.2c-.2 0-.3.2-.3.3l-.2.3c-.2 0-.2 0 0 0 0 0 .2 0 .3-.2 0-.2.1-.2.2 0s.2.1.2 0l.1-.4c.1 0 .2 0 .2-.2s0-.3-.2-.3c0 0-.1.1 0 .2m-273.1.6c0 .3.3.2.4 0 0-.2 0-.3-.2-.3l-.2.3m116.8 0c0 .1-.1.2-.3.2 0 0-.2.1-.2.3 0 .1-.1.2-.3.2 0 0-.2.1-.2.3 0 .1-.1.2-.3.2 0 0-.2.1-.2.3 0 .4.1.3 1-.6l.8-.7.1-.2c0-.2 0-.3-.2-.3-.1 0-.2.1-.2.3m117 0c-.1.4-.1.4.2.1.4-.3.4-.4 0-.4l-.3.4m-20 .4l.1.4c.3-.1.3-.8 0-.8 0 0-.2.1-.2.4m-333 0c0 .1.1.2.3.2a.3.3 0 10-.3-.2m217.5.2l.6.5.1.3.2.2c.2 0 .3.1.4.3l.2.2c.1 0 .2 0 .2-.2s-.1-.3-.3-.3a.3.3 0 01-.2-.2c0-.2-.1-.3-.3-.3 0 0-.2 0-.2-.2l-.3-.3c-.2 0-.4-.2-.3-.3 0 0 0-.2-.2-.2s-.2.1.1.5m117.1-.3c0 .2.2.4.3.2.2-.1.2-.4 0-.4l-.3.2m56.3.6l.1.2.2-.2c0-.1 0-.2-.2-.2l-.1.2m-108.5 0c0 .1 0 .3.2.3s.2.2.2.3v.1c.2 0 .2 0 .2-.2s0-.3-.2-.3c-.1 0-.3 0-.3-.2 0-.1-.1-.1-.1 0m-43.7.4c0 .6.4 1.6.5 1.3.3-.4.2-1.3-.2-1.5-.2-.1-.3 0-.3.2m64.6-.3v.9c.2-.1.2 0 .2.2-.1.2 0 .4 0 .4l.2-.8c0-.6-.2-1-.4-.7m-185 .4c0 .1 0 .2-.2.2-.1 0-.2.1-.2.3 0 .1-.1.2-.3.2-.1 0-.2.1-.2.3a.3.3 0 00.5 0c0-.2 0-.3.2-.3s.3 0 .3-.2c0-.1 0-.3.2-.3s.3-.2.3-.3c0 0-.1-.2-.3-.2-.1 0-.2.1-.2.3m61.5 0c.1.2.4.3.4 0 0-.1 0-.2-.2-.2-.1 0-.2 0-.2.2m22.6 0c0 .1.1.2.3.1l.2-.2c0-.1 0-.2-.2-.2s-.3.1-.3.3m133-.2l.3.3c.2.1.2.1.2-.1 0-.1 0-.3-.2-.3l-.3.1m32.7 0c0 .2.1.3.2.3l.2-.1c0-.2 0-.3-.2-.3l-.2.2m-69.2.3c-.4 0-.4.5 0 .5 0 0 .2-.1.2-.3l.1-.3h-.3m-64.8.4c0 .1 0 .2.2.2l.1-.2-.1-.3c-.1 0-.2.1-.2.3m49 0c0 .1.1.2.2.1 0 0 .2 0 .2.3l.3.3c.4-.1.3-.4 0-.5-.2 0-.4-.2-.3-.3l-.1-.2c-.1 0-.2.1-.2.3m106 0l.3.2.2-.2-.3-.3-.1.3m-387.9.4l.3.3.2.3c0 .1.1.2.3.2.1 0 .2.1.2.3l.2.2.5.3c.2.2.3.2.3 0s-.1-.3-.2-.3c-.2 0-.3 0-.3-.2s0-.3-.2-.3a.3.3 0 01-.3-.2c0-.2 0-.3-.2-.3a.3.3 0 01-.3-.2c0-.2 0-.3-.2-.3s-.3.1-.3.2m180 0c-.2 0 0 .3.2.3.1 0 .2 0 .2-.2 0-.3-.2-.3-.4-.2m19.4.1c0 .2.2.3.3.3.1 0 .3-.1.3-.3 0 0 0-.2-.3-.2-.2 0-.3.1-.3.2m18.4 0c-.2.1-.1.3.2.3l.2-.2c0-.3-.2-.3-.4-.2m113.3.2c-.1.5 0 .9.3.5v-.5c-.1-.3-.2-.3-.3 0m4.4 0c0 .1.1.2.3.2a.3.3 0 10-.3-.2m32.9 0l.3.2c.1 0 .2 0 .2-.2s-.2-.3-.4-.3c-.3 0-.3 0-.1.3m-170 .5c0 .2 0 .2.3 0 .2 0 .3-.1.3-.2h-.3c-.2 0-.3 0-.3.2m32.9 0c0 .3.3.2.4 0 0-.1 0-.2-.2-.2-.1 0-.2 0-.2.2m64.4-.1l.2.2.2-.1c0-.2 0-.3-.2-.3l-.2.2m73.7 0c0 .2 0 .3.2.3s.3-.1.3-.2c0-.2-.1-.3-.3-.3-.1 0-.2.1-.2.3m16.5 0c0 .1 0 .2.2.2.1 0 .2 0 .2-.2s0-.3-.2-.3c-.1 0-.2.1-.2.3m-271 .5c0 .1-.1.2-.3.2-.1 0-.2.1-.2.3 0 .1-.1.2-.3.2-.1 0-.2.1-.2.3l.1.2c.1 0 .3 0 .3-.2s.2-.3.3-.3c.2 0 .3 0 .3-.2s0-.3.2-.3.3 0 .3-.2-.1-.3-.3-.3c-.1 0-.2.1-.2.3m67.5 0c0 .1 0 .2.2.1.2 0 .3-.1.3-.2s-.1-.2-.3-.2c-.1 0-.2.1-.2.3m14.5 0c0 .2 0 .2.3.2s.3-.4 0-.4c-.2 0-.3 0-.3.2m22.3-.2l.3.3c.2.1.2.1.2-.1 0-.1-.1-.3-.3-.3l-.2.1m10.8.2l.2.2s.2 0 .3-.2c.2-.2.2-.3-.2-.3-.3 0-.4.1-.3.3m64.7 0h.5c0-.2-.1-.3-.3-.3l-.2.2m43 0c-.3.2-.2.3.2.3.2 0 .3 0 .2-.2-.1-.3-.3-.3-.5-.2m10 .2c0 .3.3.2.4 0 0-.2 0-.3-.2-.3l-.3.3m23.4 0c.1.2.5.3.5 0l-.3-.3-.2.2m13.4 0v.3c.1.1.6 0 .6-.3 0-.2-.5-.2-.6 0m-200 .6c0 .2.2.2.6.2.3 0 .5 0 .5-.2s-.2-.3-.5-.3c-.4 0-.5.1-.5.3m10.1 0c0 .2.2.2.6.2.6 0 1-.2.5-.4s-1 0-1 .2m26.1 0c0 .3.8.3 1 0 0-.2-.2-.3-.5-.3s-.5.1-.5.3m7.8 0l.3.2c.4 0 .3-.4 0-.4s-.4 0-.3.2m56.8 0s.1.2.4.1c.6 0 .6 0 .3-.2s-.7-.2-.7 0m7.5 0c0 .2 0 .3.2.2h.5l.2-.2c0-.3-.8-.2-.9 0m46.3 0c-.2.1.1.3.6.3.3 0 .5 0 .5-.2 0-.3-.8-.4-1-.2m6.4.1c0 .3 1 .3 1 0l-.6-.2c-.3 0-.5.1-.4.2m26.9 0c-.2.2 0 .3.6.3.4 0 .6 0 .6-.2 0-.3-1-.4-1.2-.2m9.4.2c0 .1.1.2.4.2.3 0 .6 0 .6-.2.1-.2 0-.3-.5-.3-.4 0-.5.1-.5.3m-193.7.5c-.2.2 0 .2 1.7.2 1.5 0 1.9-.1 2-.3 0-.2 0-.2-.2 0-.1.2-.2.2-.2 0 0-.3-3-.2-3.3 0m35.4 0l-.1.2c-.2 0-.2.1 0 .1l.6-.1c.2-.2.3-.2.2 0l.6.1c.6 0 .7 0 .7-.2s-.2-.3-1-.3c-.6 0-1 .1-1 .2m64.2 0c.3.4 2.7.4 2.8.1 0-.3-1.8-.4-2.2 0h-.2c0-.2-.1-.3-.3-.3-.2 0-.2 0 0 .3m89-.1v.2h1.1c.2-.2.2-.2.1 0s.2.2.4-.1c.2-.2.1-.3-.6-.3l-1 .2m-373.9.6c0 .1.1.2.3.2a.3.3 0 10-.3-.2m109.4.5c0 .1 0 .2.2.2.3-.1.3-.5 0-.5l-.2.3m-107.9.5l.4.2c.2 0 .3 0 .3-.2s-.1-.3-.3-.3c-.2 0-.4.1-.4.3M117 86c0 .1.1.2.3.2.2 0 .4 0 .4-.2s-.2-.3-.4-.3-.3.1-.3.3m-105.6.4c0 .4.6.4.6.1 0-.2-.1-.3-.3-.3-.3 0-.4.1-.3.2m104.6.1c0 .2.1.2.3.2.4 0 .5-.5 0-.5-.2 0-.3.1-.3.3m-103.2.5c0 .2.1.2.4.2l.4-.2-.4-.2c-.3 0-.4 0-.4.2m101.7 0c0 .2.1.2.3.2.4 0 .5-.5 0-.5-.2 0-.3.1-.3.3m-100 .5l.6.2c.4 0 .6 0 .6-.2s-.2-.3-.7-.3c-.5 0-.6 0-.6.3m98 0c0 .2.1.2.5.2s.6 0 .6-.2-.2-.3-.6-.3c-.4 0-.6.1-.6.3m-95 .4c.2.4 1.7.4 1.7 0 0-.1-.2-.2-.8-.2-.6 0-.9 0-.8.2m91.5 0c0 .3.1.3.8.3.6 0 1 0 1.1-.2.2-.2.1-.3-.8-.3-.7 0-1 .1-1 .3m-87.5.5c0 .2.3.2 1.3.2 1.1 0 1.3 0 1.3-.2-.1-.2-.4-.3-1.4-.3-1 0-1.2 0-1.2.3m82.3 0c0 .2.3.2 1.3.2s1.4 0 1.6-.2c.1-.2 0-.3-1.3-.3s-1.6 0-1.6.3m-76.3.4c.2.4 4.2.4 4.2 0 0-.1-.4-.2-2.1-.2-1.6 0-2.1 0-2 .2m68.7 0c0 .4 4 .4 4.2 0 0-.1-.5-.2-2-.2-1.8 0-2.2 0-2.2.3m-59.1.4c0 .1 1.4.2 3.9.2s3.9 0 3.9-.2c0-.1-1.4-.2-4-.2-2.4 0-3.8 0-3.8.2m46 0c0 .1 1.4.2 3.8.2s3.8 0 3.8-.2c0-.1-1.4-.2-3.8-.2a18 18 0 00-3.8.2" fill="#fcfafa"/><path d="M55.3.2l-9.5.1a40 40 0 00-9.6.3c0 .2-.7.2-4.7.2s-4.7 0-4.7.3c0 .2-.4.2-2.9.2s-2.9 0-2.9.3c0 .2-.3.2-2 .2s-2 0-2 .3c0 .2-.2.3-.8.2-1.4 0-1.7 0-1.7.3 0 .2-.2.2-1 .2s-1 0-1 .3c0 .2-.2.2-.6.2-.4 0-.6.1-.6.3 0 .1-.1.2-.5.2-.3 0-.5.1-.5.3 0 .2-.1.2-.5.2-.3 0-.5.1-.5.3 0 .1 0 .2-.2.2s-.3.1-.3.3c0 .2-.1.2-.5.2-.3 0-.5.1-.5.3 0 .1 0 .2-.2.2s-.3.1-.3.3c0 .1 0 .2-.2.2s-.3.1-.3.3c0 .1 0 .2-.2.2s-.3.1-.3.3c0 .1 0 .2-.2.2s-.3.1-.3.3c0 .1 0 .2-.2.2s-.3.2-.3.5c0 .4 0 .5-.2.5s-.3.1-.3.3c0 .1 0 .2-.2.2s-.3.2-.3.5c0 .4 0 .5-.2.5s-.3.2-.3.5c0 .4 0 .5-.2.5s-.3.2-.3.6c0 .4 0 .6-.2.6s-.3.2-.3 1 0 1-.2 1-.3.2-.3 1c0 1 0 1.2-.2 1.2s-.3.2-.3 1.4c0 1.1 0 1.4-.2 1.4s-.3.3-.3 2 0 2-.2 2-.3.4-.3 3c0 2.4 0 2.8-.2 2.8s-.3.4-.3 2c0 1.3 0 1.9-.2 2-.1 0-.1 0 0 0 .3 0 .3 6.7 0 6.7L0 45c0 3.2 0 5 .2 5l.1 5.3c0 4.5 0 5.2.3 5.2.2 0 .2.4.2 3s0 3 .3 3c.2 0 .2.3.2 2s0 2 .3 2c.2 0 .2.3.2 1.3 0 1.1 0 1.4.3 1.4.2 0 .2.2.2 1.2s0 1.3.2 1.2c.2 0 .3.3.3.9 0 .6.1.8.3.8.1 0 .2.2.2.5 0 .4.1.5.3.5.1 0 .2.2.2.5 0 .4.1.5.3.5.2 0 .2.2.2.5 0 .4.1.5.3.5.2 0 .2.2.2.5 0 .4.1.5.3.5.1 0 .2.1.2.3 0 .1.1.2.3.2.1 0 .2.1.2.3 0 .1.1.2.3.2.1 0 .2.1.2.3 0 .1.1.2.3.2.1 0 .2.1.2.3 0 .1.1.2.3.2.1 0 .2.1.2.3l.3.2c.1 0 .2.1.1.2h-.3v.1c.1.1.2.2.7.2.1 0 .2.1.2.3 0 .2.2.2.5.2.4 0 .5.1.5.3 0 .1.1.2.3.2.1 0 .2.1.2.3 0 .2.2.2.6.2.4 0 .6.1.6.3 0 .2.2.2.5.2s.5.1.5.3c0 .1.2.2.8.3.5 0 .8 0 .7.2 0 .2.3.2 1 .2 1 0 1.2 0 1.2.3 0 .2.3.2 1.6.2 1.4 0 1.7 0 1.7.3 0 .2.4.2 2.5.2 2 0 2.5 0 2.6.3 0 .2.6.2 3.8.2 3.2 0 3.8 0 3.8.3 0 .2.8.2 6.6.2a415.7 415.7 0 0025.8.3 415.8 415.8 0 0025.7-.3c5.7 0 6.5 0 6.5-.2s.6-.3 3.8-.3c3.2 0 3.7 0 3.7-.2s.4-.3 2.5-.3 2.6 0 2.6-.2c.1-.2.5-.3 1.8-.3 1.4 0 1.6 0 1.6-.2s.2-.3.7-.3c1.2 0 1.5 0 1.5-.2s.2-.3.8-.3c.5 0 .7 0 .7-.2s.2-.3.5-.3.5 0 .5-.2.2-.3.6-.3c.4 0 .6 0 .6-.2s.1-.3.5-.3c.3 0 .5 0 .5-.2s0-.3.2-.3.3 0 .3-.2 0-.3.2-.3.3 0 .3-.2 0-.3.2-.3.3 0 .3-.2.1-.3.5-.3.5 0 .5-.5c0-.3 0-.5.2-.5s.3 0 .3-.2 0-.3.2-.3.3 0 .3-.2 0-.3.2-.3.3 0 .3-.2 0-.3.2-.3.3-.1.3-.5c0-.3 0-.5.2-.5s.3-.1.3-.5c0-.3 0-.5.2-.5s.3-.1.3-.5 0-.6.2-.7c.2 0 .3-.3.3-.8 0-.6 0-.8.2-.7.2 0 .3 0 .3-1 0-.9 0-1.1.2-1.1s.3-.3.3-1.3 0-1.2.2-1.2.3-.3.3-2c0-1.5 0-1.8.2-1.8s.3-.4.3-2.6 0-2.6.2-2.6.3-.6.3-4 0-4 .2-4 .3-1.2.3-9.6 0-9.6-.3-9.6c-.2 0-.2-.5-.2-4.1 0-3.6 0-4.2-.3-4.2-.2 0-.2-.4-.2-2.5s0-2.5-.3-2.5c-.2 0-.2-.3-.2-1.8 0-1.4 0-1.7-.3-1.7-.2 0-.3-.2-.2-.8 0-1.4 0-1.7-.3-1.7-.2 0-.2-.3-.2-1.3s0-1.2-.3-1.2c-.2 0-.2-.2-.2-.6 0-.3-.1-.5-.2-.5-.2.2-.3 0-.4-1 0-.5 0-.7-.2-.6-.2 0-.3 0-.2-.2 0-.2 0-.4-.2-.6l-.3-.5s-.1-.2-.3-.2c-.2 0-.2-.1-.2-.5 0-.3-.1-.5-.3-.5a.3.3 0 01-.2-.2c0-.2-.1-.3-.3-.3a.3.3 0 01-.2-.2c0-.2-.1-.3-.3-.3-.1 0-.2-.1-.2-.3 0-.2-.1-.3-.3-.2-.2 0-.2 0-.2-.3 0-.2-.1-.3-.3-.2-.1 0-.2 0-.2-.2 0-.1-.1-.3-.3-.3a.3.3 0 01-.2-.2c0-.2-.1-.3-.3-.3 0 0-.2 0-.3-.2 0-.2-.3-.3-.5-.3-.3 0-.4 0-.4-.2s-.2-.3-.5-.3c-.4 0-.5 0-.5-.2s-.2-.3-.6-.3c-.4 0-.6 0-.6-.2s-.2-.3-.5-.3-.5 0-.5-.2-.2-.3-.8-.3c-.7 0-.9 0-.9-.2s-.2-.3-1.2-.3-1.3 0-1.3-.2-.3-.3-2-.3c-1.6 0-2 0-2-.2s-.4-.3-3-.3c-2.5 0-3 0-3-.2s-.6-.3-4.5-.3c-4 0-4.6 0-4.6-.2S91 .3 82.4.3L72.7.2c0-.1-3-.2-8.7-.2-5.7 0-8.7 0-8.7.2m-2.2 26.6l1.5.9a29.3 29.3 0 013.5 2 77.7 77.7 0 015.2 3 62.8 62.8 0 014.6 2.6 52.1 52.1 0 014.3 2.5 69.8 69.8 0 015.2 3A57.7 57.7 0 0183 44c1 .5 1.3.8 1.3 1L81 47a142.5 142.5 0 00-6.5 3.6 682 682 0 01-18.1 10.5 67.3 67.3 0 01-5 2.8c-.2-.1-.2-37.6 0-37.8.1-.2.2-.1 1.6.7" fill="#fc0404"/><path d="M326 3.6c-.1.3.3.3 5.9.3h6l.1 14.5.1 14.6c.1 0 .4-.2.6-.6.2-.3.2-.3-.2 0l-.3.3V18.3c0-9.5 0-14.4-.2-14.6-.3-.5-12-.6-12 0M152.8 6.5c0 .1.1.2.3.2a.3.3 0 10-.3-.2m15.7.6c0 .5 0 .8.1.6 0-.2.2-.3.3-.3.2 0 .3-.2.3-.6 0-.4 0-.5-.4-.5-.3 0-.3.1-.3.8m13-.5c0 .3.1.4.4.4.4 0 .3-.4-.2-.6-.3-.1-.3 0-.2.2m-41.1.7c0 .7 0 1 .2 1s.2.1.2.8c0 .6.1.8.3.8l.3.6v-.1l-.1-.9c-.2 0-.3-.4-.4-1l-.2-1-.2-.6c0-.4-.1-.3-.1.4M181 8.6c0 .3 0 .4.3.3.4-.1.4-.6 0-.7-.2 0-.3 0-.3.4m-12.5.2c0 .2-.1.4-.3.4-.1 0-.2.2-.2.7 0 .4 0 .6.1.4l.3-.4c.2-.1.3-.4.2-.8v-.3m-15.3.3c0 .2.1.4.3.4l.2-.4c0-.3 0-.4-.2-.4s-.3.1-.3.4m27.7.9s-.1.2-.3.2c0 0-.2 0-.2.2 0 .4.6.2.6-.2v-.4l-.1.2m-27.2 1.2c0 .3.1.5.3.5.3 0 .3-.8 0-1-.2 0-.3.1-.3.5m14.2 0h-.2c-.2 0-.2.1-.3.5 0 .3 0 .5.3.5s.4-.4.3-.9v-.2m-26.8.6c0 .2.1.3.3.2.1 0 .2 0 .3.5v.5-.5c0-.4 0-.6-.2-.7-.3-.2-.4-.2-.4 0m38.8 0c-.3.3-.1.8.2.7.2 0 .4-.2.3-.4 0-.3-.3-.4-.5-.2m-38.3 1.6c0 .2.1.3.3.3l.3.6v.6-.7c0-.5 0-.7-.2-.9-.3-.1-.4 0-.4.1m12.5.3c0 .2.1.3.3.3.1 0 .2-.1.2-.3 0-.2 0-.4-.2-.4s-.3.2-.3.4m13.2 0l-.3.1c-.1 0-.2.2-.2.7 0 .3 0 .5.1.3l.4-.4c.1-.1.2-.3.1-.6v-.2m12.1 0c-.3.1-.3.4 0 .4.2 0 .3-.1.3-.3v-.2l-.3.1m-37.4 1.6s.1.2.3.2c.2.1.2.4.2 1 0 .7.1 1 .3 1 .2.1.2.4.2 1s0 .7.3.7c.2-.1.2 0 .3.6v.7-.8c0-.6 0-.8-.2-.9-.1 0-.2-.3-.2-1s0-.9-.3-.9c-.1 0-.2-.2-.2-.7 0-.6 0-.8-.3-1h-.4m12.5 1c0 .2.1.4.3.4l.2-.4c0-.3 0-.4-.2-.4s-.3.1-.3.4m12.2-.2c0 .1-.1.3-.3.3 0 0-.2 0-.2.2 0 .3.5.3.6 0V16c0-.3 0-.3 0 0m11.9-.1l.3.3c.3 0 .4 0 .3-.2 0-.2-.6-.3-.6-.1m72 1.2c0 .3.5.3 6 .3h6l-.1 6.7-.1 32.8V83l.5.1c.3.2 2.4.2 6.4.2h5.9l-6.1-.1-6-.1-.1-33c0-23.5-.1-32.9-.3-33a64 64 0 00-12.1 0m24.7.3v.2c.1-.3.3-.3 6.3-.3 5.5 0 6.2 0 6.2-.2s-.8-.3-6.3-.3h-6.2v.6m-97.2.1l.3.2.4-.2-.4-.2c-.2 0-.3.1-.3.2m-23.2.8c0 .2.1.4.3.4l.2-.4c0-.3-.1-.5-.2-.5-.2 0-.3.2-.3.4m11.2 0l-.3.1c-.1 0-.2.2-.2.5s0 .4.3.2.5-1 .3-1l-.1.2m11.5 1.1c0 .1.1.2.3.2 0 0 .2 0 .2-.2l-.3-.1-.2.1m-12 1.2c0 .3 0 .3-.3.3l-.2.1c0 .3.5.3.6 0v-.5c0-.2 0-.2 0 0m-10.3.3c0 .2.1.3.3.3.1 0 .2-.1.2-.3 0-.2 0-.4-.2-.4s-.3.2-.3.4m-12 .1c0 .1.1.2.3.2.1 0 .2 0 .3.2v-.1c0-.4-.6-.6-.6-.3m33.7.4c0 .2.1.3.3.3 0 0 .2-.1.2-.3 0-.2-.1-.4-.3-.4l-.2.4m-33.1 1c0 .5 0 .6.2.5.1 0 .2 0 .3.2 0 .3 0 .3 0 0l-.1-.5a.8.8 0 01-.3-.5l-.1.3m21.1.5l-.3.1c-.1 0-.2.2-.2.5s0 .4.3.2.5-1 .3-1l-.1.2m11.5.1l.3.2.2-.2-.3-.1-.2.1m-20.7.4c0 .2.1.3.3.3.2 0 .3-.2.3-.3 0-.2-.1-.3-.3-.3-.2 0-.3 0-.3.3m-11.5 1.1c0 .1.1.3.3.3.2 0 .2.3.2.9 0 .6.1.8.4 1 .3.3.3.3.3 0l-.2-.6c-.2 0-.3-.5-.3-.9 0-.7-.7-1.3-.7-.7m32 0c-.4.1-.4.7 0 .7l.2-.4v-.4h-.3M165 25c0 .2-.1.3-.3.3l-.2.2c0 .3.5.2.6 0v-.6c0-.3 0-.2 0 0m-7.8.2c0 .1 0 .2-.2.2s-.3.1-.3.2c0 0 .1.2.3.2.2 0 .5-.7.3-.8v.2m18.8 1c-.3.1-.3.5 0 .5.2 0 .3-.1.3-.3V26l-.3.1m15.5.1c0 .3.7.6 1 .4.6-.2.3-.6-.4-.6-.4 0-.6 0-.6.2m7.4 0c0 .5 1.1.5 1.3 0 0-.1 0-.2-.6-.2-.4 0-.6 0-.6.2m147.5 0c0 .2-.3.3-.7.3l-.6.1h.7c.6 0 .8 0 .9-.3V26c-.2 0-.3.1-.3.2m2 0h1.5c.4-.1 0-.1-.8-.1h-.7m3.1.1c0 .3.7.5 1.5.5l.4.1.1.2c.1 0 .2-.1.2-.3 0-.1-.2-.2-.8-.2-.5 0-.7 0-.7-.3 0 0-.1-.2-.3-.2l-.4.2m28.2 0c0 .2-.2.3-.6.3-.5 0-.4.1.3.1 1.1 0 1.4 0 1.5-.4.1-.1 0-.2-.5-.2s-.7 0-.7.2m3.2 0h1.5c.4-.1 0-.1-.8-.1h-.7m3.6.2c0 .3.4.4 1 .3.6-.2.5-.6-.3-.6-.5 0-.7 0-.7.3m-186 .3h.2-.3m1.3.1c0 .3.4.5 1 .5.2 0 .6 0 .7.2.2.2.5.3.8.3l.3.1c-.1.1 0 .2.1.2.2 0 .3-.1.3-.3 0-.1-.2-.2-.6-.2-.3 0-.6-.1-.7-.3 0-.1-.3-.2-.8-.2-.6 0-.8 0-.8-.3l-.1-.2-.2.2m142.8 0c0 .2-.1.3-.3.3a1 1 0 00-.7.3c-.2.3-.2.4 0 .4l.3-.3.5-.3c.5 0 .8-.6.4-.6-.1 0-.2.1-.2.3m32.7 0s.1.2.3.2c.2 0 .4-.1.4-.3.1-.1 0-.2-.3-.2-.2 0-.4 0-.4.3m11.1-.2H389h-.3m1.3.1c.1.3.7.6.9.4l-.2-.1c-.2 0-.2 0-.2-.3.1-.1 0-.2-.2-.2s-.3 0-.3.2m-232 .5l-.3.1c-.2 0-.3.2-.3.4 0 .4.3.8.5.6l.1-1.3v.2m6.6 0l-.3.1-.2.4c0 .4.5.4.6-.1V27l-.1.1m23.4.1c0 .2.2.3.3.3l.1-.3s0-.2-.2-.2-.2.1-.2.3M284.2 27h-.4V50c0 22.5 0 22.8.4 22.9.3 0 .3-.2.3-22.8 0-18.2 0-23 .2-23h-.5m12.4 0c.2 0 .2 4.7.2 22.2 0 18.9 0 22 .3 22l.3.2a1471.6 1471.6 0 000-44.1l-.6-.3h-.2m57.9 0c.2 0 .3.2.3.2l.2.2s.2-.1.2-.3c0-.1-.2-.2-.6-.2-.4 0-.4 0-.1.1m21.7.1c0 .2-.2.3-.5.3-.4 0-.5 0-.5.3 0 .1-.2.2-.5.2-.4 0-.5 0-.5.3 0 .1-.2.2-.5.2-.4 0-.5 0-.5.3 0 0-.1.2-.3.2l-.3.4c0 .3 0 .3.2 0 .6-.6.8-.7 1.1-.7.2 0 .3-.1.4-.3l.5-.2c.2 0 .4-.1.5-.3l.5-.2c.4 0 .7-.4.5-.7l-.1.2m15.4 0c0 .2.3.4.5.4.3 0 .6.2.7.3.1.2.4.3.5.3l.4.1c0 .1 0 .2.2.2.5 0 .2-.4-.4-.5-.3 0-.5-.1-.5-.3 0-.1-.2-.2-.5-.2s-.5 0-.5-.3l-.2-.2c-.2 0-.3.1-.2.3m-204.8.4c0 .2.1.3.2.3 0 0 .2-.1.2-.3l-.1-.2c-.2 0-.3.1-.3.3m156 0s-.2.2-.5.2-.5 0-.5.3c0 0 .1.2.3.2.1 0 .2 0 .2-.2l.3-.1.4-.4v-.3l-.1.3m-197 .3c0 .1 0 .2.3.3.2 0 .3 0 .3-.2 0-.3-.7-.4-.7-.1m40.4.1c0 .2-.2.3-.5.3l-.4.1h.4c.3 0 .5 0 .6-.3.2-.2.2-.3 0-.3l-.1.2m-10.7.1c0 .1.1.2.3.2 0 0 .2 0 .2-.2l-.3-.1-.2.1m65.7 21.2v10.7a3185 3185 0 000-10.7m12.9 6v13.8a5251.7 5251.7 0 000-13.7m87.2-26.8c-.3.4-.4.6-.1.5l.4-.8-.3.3m53.2 0c.3.5.5.6.3.1l-.3-.4v.3m-230.5.6c0 .2-.1.4-.3.5-.1 0-.2.3-.2 1s0 1-.3 1c-.1 0-.2.1-.2.4 0 1.2.6.6.6-.6 0-.7.2-1.2.3-1.3.2-.1.3-.4.2-.8v-.2m42.9 0l.4.3c.1 0 .3 0 .3.2l.1-.1c0-.2 0-.3-.3-.3-.2 0-.3-.1-.4-.3l-.3-.2.2.3m-60.6.2c0 .3 0 .5.3.5h.3l-.2-.2c-.2 0-.3-.1-.3-.3-.1-.4-.1-.4-.1 0m37.8.3l-.4.2c-.2 0-.3 0-.2.3 0 .1 0 .2-.2.2s-.2 0-.1.1l.8-.5c.4-.4.5-.6.3-.6-.1 0-.2.1-.2.3m-26.4.3c0 .5.3.7.5.4.3-.4.2-.5-.1-.7-.3-.1-.4 0-.4.3M372 30c-.5.5-.6.8 0 .3l.3-.5s-.2 0-.3.2m-197 .2c-.1.2-.2.5-.1.7v-.1c0-.3.2-.5.3-.5.2 0 .3 0 .3-.2 0-.4-.3-.3-.5 0m182.8.1c0 .2.2.3.4.3h.3l-.3-.3c-.3-.2-.4-.2-.4 0m38.1.1l.5.4.4.2-.4-.4c-.4-.3-.7-.5-.5-.2m-249 1c0 .5 0 .7.2.7.1 0 .2 0 .3.2V32l-.1-.6a.9.9 0 01-.3-.4c-.1-.1-.1 0-.2.4m192 .1c0 .3.1.5.2.3l.2-.3v-.3c-.2-.4-.4-.2-.4.3m19.5-.2c0 .2.5.5.6.3v-.3c-.1-.2-.6-.2-.6 0m38.2 0l.3.4c.3.2.4.2.4 0l-.4-.2-.3-.1m-26 .3c0 .2 0 .3-.2.4-.1 0-.1 0 0 0 .3 0 .4 0 .4-.3l-.1-.3-.1.2m-195.9.2c-.2.1-.3.3-.2.6 0 .4 0 .4 0 0 0-.3.2-.5.3-.5.2 0 .3 0 .3-.2s0-.2-.4 0m-16.3.4c0 .3.2.5.4.6.3.2.4-.1.2-.7-.2-.4-.6-.3-.6.1m23.9.1c0 .1-.1.2-.3.2-.1 0-.2.1-.2.3 0 .2 0 .1.3-.1l.3-.5-.1.1m176.6 0c0 .3.5.4.6.1 0 0 0-.2-.3-.2l-.3.1m11 .3c-.2 0-.3.2-.3.3 0 .3.1.3.5.1.3-.2.2-.4-.2-.4m-222.5.6c0 .5 0 .6.3.5.1 0 .2 0 .3.2v-.1-.5c-.2 0-.3-.1-.4-.3-.1-.4-.1-.3-.2.2m62.9 0c0 .3 0 .5.3.5h.3c0-.1 0-.2-.2-.2-.1 0-.3-.1-.3-.3 0-.2-.1-.2-.1 0m-29 .5v.2l.3-.4c.1 0 .2 0 .2-.2l-.3-.1c-.2 0-.2.1-.2.5m216.5-.4l.1.2.2.4c.1.2.1.2.1-.2s0-.5-.2-.5l-.2.1m-223.8.6V34.4c0-.4.2-.6.3-.6l.3-.1c0-.4-.5-.2-.6.2m185.4 0l.3.2c.4.1.4.1.4-.2 0-.1-.1-.2-.3-.2l-.4.1m10 0c-.2 0-.3.1-.3.2 0 .2.2.2.5 0s.2-.3-.2-.2m-206.3.4c0 .2-.1.3-.3.3l-.2.4c0 .3 0 .4.3.4s.4-.3.3-1c0-.2 0-.3 0 0m47.6.2c0 .2 0 .4.2.4s.3.3.3.6 0 .6.3.7h.3c0-.1 0-.2-.2-.2s-.3-.2-.3-.7c0-.4 0-.6-.2-.6l-.3-.3c0-.2-.1-.2-.1 0m-51.9.5c0 .6.6.6.7 0 0-.4 0-.5-.3-.5s-.4.1-.4.5m21.9-.1v.1l.4-.4-.1-.2c-.3 0-.3.2-.3.5m217.5-.3l.1.3.2.6c.1.4.1.4.1-.2 0-.5 0-.7-.2-.8h-.2m-29.4.4c-.2 0-.3.2-.3.7 0 .5 0 .7-.3.7-.1 0-.2.1-.2.5s0 .4.1.2c0-.2.2-.4.3-.4.2 0 .3-.2.3-.7 0-.4 0-.7.3-.8.3-.2.2-.3-.2-.2m-221 .4c0 .1.1.3.3.3.1 0 .2 0 .3.2v-.2c0-.3 0-.5-.2-.6-.3-.1-.4-.1-.4.3m46.7-.1l-.5.2c-.3 0-1 .8-1 1l.2-.1c0-.1 0-.2.2-.2s.3-.1.3-.3c0-.1.2-.2.6-.2.5 0 .7 0 .6-.2 0-.2 0-.3.3-.3.4-.1.4-.1 0-.1-.3 0-.6 0-.7.2m2-.1c.1 0 .2.1.2.3 0 .1.1.2.4.2.3 0 .4 0 .3-.3l-.3-.2h-.5s-.1 0 0 0m146.6.2c-.2.3-.2.3.4.3.5 0 .6 0 .5-.3 0-.4-.7-.5-1 0M382 35v.4l.1-.2c0-.2.1-.3.3-.4.3 0 .3 0 0 0-.2 0-.4 0-.4.2m3-.2c.2 0 .3.2.3.4l.1.2v-.3c0-.2-.1-.4-.3-.4-.2 0-.2 0 0 .1m-211.6.7v.5c0 .3 0 .2 0 0 0-.3.2-.4.3-.4.2 0 .3-.1.3-.2 0-.3-.5-.2-.6 0m24.3-.1c0 .1.8 1 .9.9l-.4-.6-.5-.3m144.2.2l-.4.2c-.2 0-.4.2-.6.4-.2.4-.2.4 0 .4s.3-.2.3-.4c0-.1.1-.2.4-.2.2 0 .4 0 .4-.2s.2-.3.5-.3l.4-.1h-.4c-.3 0-.5 0-.6.2m2.8-.1l.4.3.5.2.4.1.3.3c.2.1.2 0 0-.2l-.6-.4c-.2 0-.4 0-.4-.2s-.3-.3-.5-.3c-.3 0-.3 0-.1.2m15.1.2c0 .2.2.4.4.5.3.1.3 0 .3-.3 0-.4 0-.5-.3-.5-.2 0-.4.1-.4.3m21.2-.1c0 .1-.1.2-.3.2-.1 0-.2.2-.2.5s-.1.5-.3.6c-.2 0-.2 0 0 0 .4.1.5 0 .5-.4 0-.3 0-.5.2-.5.1 0 .3-.1.3-.3v-.4c-.1 0-.2.1-.2.3m5-.2l.2.4s0 .2.2.2.3.1.3.3c0 .2 0 .2 0 0 .2-.2-.5-1-.8-1v.1m-223.4.9c0 .5 0 .7-.2.7s-.3.2-.3.4c0 .3.1.4.3.4.3 0 .4-.3.3-1.3v-.2m-14.2.6c0 .3 0 .4.3.5.2 0 .3 0 .3-.2l-.2-.2c-.2 0-.3-.1-.4-.3v.2m24.8 0c-.3.3-.2.8.1.8l.2-.5c0-.6 0-.6-.3-.3m38.5.3c0 .3 0 .7.2.8l.3.6.1-.4c0-.5 0-.7-.2-.7-.1 0-.3-.2-.3-.5s0-.3-.1.2m175.2-.3c.1.1.3.4.3.7 0 .4 0 .4.1-.1 0-.4 0-.7-.2-.7-.4-.2-.5-.1-.2 0m-227.6.5c0 .4.1.5.3.5l.3.2v-.4c0-.8-.6-1-.6-.3m20.4-.1c0 .3 0 .3.2.1.2 0 .3-.2.3-.3 0-.1-.1-.2-.3-.2l-.2.4m19.1-.1c0 .1.1.2.3.2l.2-.1c0-.1 0-.2-.2-.3-.2 0-.3 0-.3.2m147.5 0c0 .1.1.2.3.2.1 0 .2.2.2.5 0 .4.1.5.3.5l.3.3c0 .2 0 .2 0 0l-.1-.5c-.2 0-.3-.3-.3-.5 0-.3-.1-.5-.3-.6-.3-.1-.4-.1-.4 0m-153.8.2c0 .2-.1.3-.3.4-.1 0-.2.3-.2.7 0 .6 0 .6.1 0 0-.3.2-.5.3-.5.2 0 .3-.1.3-.4l-.1-.4-.1.2m167.8 1.2c0 .6.1.7.4.8.2 0 .3 0 .3-.6s-.1-.8-.3-.8c-.3 0-.4 0-.4.6m7.7-.6c0 .1-.1.2-.3.2 0 0-.2 0-.2.2l.3.1c.2 0 .5-.4.3-.6l-.1.1m-28.8.4c0 .2-.1.3-.3.3-.1 0-.2 0-.2.2 0 .3.5 0 .6-.3 0-.2.2-.4.3-.4l-.1-.2c-.2 0-.3.2-.3.4m40.5-.2l-.2.4c0 .5.4.4.6 0 0-.4 0-.6-.4-.4m19.5.4c0 .3 0 .4.2.4s.3-.1.3-.4c0-.2-.1-.4-.3-.4l-.2.4m-237.2.4c0 .5 0 .7-.3.7l-.2.4c0 .3 0 .4.3.4s.6-2.1.3-2.1l-.1.6m225.2-.3s0 .2.2.2c.1 0 .3.1.3.3 0 .3 0 .3 0 0 0-.5-.5-1-.5-.5m-208 .3c0 .2 0 .4.2.4s.3-.2.3-.4-.1-.3-.3-.3c-.1 0-.2.1-.2.3m-30.3.2c0 .2 0 .3.2.2.1 0 .2 0 .3.2 0 .3 0 .2 0 0 0-.4 0-.6-.2-.6-.3 0-.3 0-.3.2m23.7-.2c-.2.2-.3.4-.3.8l-.1.8-.3.9v.3c0-.2.2-.4.4-.5.1 0 .2-.4.2-1 0-.8 0-1 .3-.9.1 0 .2 0 .2-.2 0-.4 0-.4-.4-.2m19.2.5c-.2.2-.3.4-.3.8 0 .2 0 .4.1.3l.3-.2c.4 0 .3-.5 0-.6-.3 0-.3 0 0 0l.3-.3c0-.2 0-.2-.4 0m155.5.3c0 .3.1.4.3.4.3 0 .3 0 0 .2-.4.2-.3.4 0 .5.4 0 .4 0 .4-.5 0-.4-.1-.7-.3-.8-.3-.2-.4-.2-.4.2m-187.5.4c0 .5.1.6.3.7.4 0 .4-.4.2-.9-.1-.1-.1-.1 0 0l.2-.1-.3-.2c-.3-.1-.4 0-.4.5m52.4 0c0 .4.1.6.3.6.4.1.5-.5.1-.7a1 1 0 01-.3-.4c0-.1-.1 0 0 .4m126-.4l-.1.3c0 .2.1.1.4 0 .3-.3.1-.5-.3-.3m29.2.3c0 .1-.1.2-.3.2-.3 0-.3.2 0 .5.2.1.2.2 0 .2-.1 0-.2.2-.2.6 0 .4 0 .5.1.3 0-.2.2-.4.3-.5.2-.1.3-.4.2-.9v-.4m32 .5V40v.3M338 56v8a1688.8 1688.8 0 000-8M149.4 40.8c0 .3 0 .5.3.5.4 0 .4-.7 0-.8-.3-.1-.4 0-.3.3m50.4.2c0 .5.1.7.3.7.2 0 .2-.2.2-.7 0-.5 0-.7-.2-.7s-.3.2-.3.7m-21 0c-.1.1 0 .3.1.4.3.2.3.3 0 .3-.1 0-.2 0-.2.2 0 .4.4.3.5 0 .2-.7-.2-1.3-.5-.9m-17.2.7v.7l-.6-.1h-.6v.7l.3.8c.2 0 .3 0 .2-.4V43c.1 0 .2.1.2.3 0 .2 0 .2.3 0 .3-.1.6-2.3.3-2.3l-.1.7m218-.5c0 .2-.1.3-.3.3-.2 0-.2.1-.2.3v9.8c.2.3 8.8.3 9.1 0 .4-.4.3-10 0-10.1-.4-.1-.5 3.5-.2 4v.3c-.2.2-.2 1.4-.2 2.9 0 1.6 0 2.5.1 2.3.2-.3.4-.2.3.3-.2.6-8.7.6-8.8 0v-.4c0 .2.1.3.2.3.2 0 .2-6.7 0-7v-2.7c.2-.3.2-.5.1-.5l-.1.3m-18.7 2.2c0 1.5 0 1.8.3 1.8l.3.2v-1.8-1.9c0 .2-.2.2-.3 0-.2-.1-.3.1-.3 1.7m38.7-1.1c0 .5.1 1 .4 1l.1-.3c0-.2 0-.3-.2-.3l-.2-.4v-.5.5m-249.7.1c0 .2 0 .3.2.2 0 0 .2 0 .2.2.2.1.2 0 .2-.2s-.1-.4-.3-.4c-.3 0-.3 0-.3.2m50.5.5v-.5.5m12.3.2c0 1.4.6 1.7.6.2 0-.7 0-.9-.2-.9-.1 0-.3 0-.3-.2v.9m-21.5-.7c-.4.3-.4 25.2 0 25.3.3 0 .3-1.4.3-12.3a297.7 297.7 0 00-.3-13m-19.9.4V43.4c0-.4.2-.6.3-.6l.3-.1c0-.4-.5-.2-.6.2m7.3.8V43.3v.4m188.1-.4c-.4.5-.3 2.2 0 2 .3 0 .4-.2.4-1.2v-1l-.4.2m-19 1.5c0 1 .1 1.5.3 1.4v.1c-.5.5-.2 2.5.3 2.5a26.9 26.9 0 00-.2-5.5c-.3 0-.3.2-.3 1.5M161 44.3c0 .3 0 .4-.2.2 0-.1-.1-.2-.1 0l.1.3c.2 0 .4-.3.3-.7v.1m-10.7.3c0 .2 0 .3.3.3.4 0 .4-.2 0-.4-.2-.2-.3-.1-.3 0m20.5.2v.6c0 .3 0 .3 0 0 0-.4.2-.5.3-.5.2 0 .3-.1.3-.2 0-.3-.5-.2-.6 0m7.3 1.2c0 1 0 1.3.3 1.4.2 0 .2 0 0 0-.4 0-.4.6 0 .6.2 0 .3-.5.3-1.2l-.1-1.3c0-1.3-.5-.9-.5.5m35 .1v-.3.3m-42.6.3c-.2.2-.3.5-.2.9v.6-.6c.1-.4.2-.7.4-.7 0 0 .2 0 .2-.2 0-.3 0-.3-.4 0m-19.8.1l.4.2c.2 0 .3 0 .3-.2l-.3-.2-.4.2m210.6.5v-.3.4m5.1.6c0 .5 0 .6.1.4V47v.4m-215.3.4c0 .2.2.4.4.4h.3l-.3-.4c-.3-.3-.4-.3-.4 0m18.6.1v.9c0 .4-.1.7-.2.7l-.3.8v.2c0-.2.2-.3.4-.3.1 0 .2-.3.2-1 0-.9 0-1 .3-1l.2-.1c0-.3-.4-.4-.6-.2m178.7 7.3v3a216.1 216.1 0 000-3m-196.8-5.4c0 .2.2.4.4.4s.3 0 .3-.3 0-.4-.3-.4c-.2 0-.4.1-.4.3m61.4 5.4v5.3l.4-.2c.2 0 .2-.8.2-5.1 0-4.4 0-5.2-.2-5.2-.1 0-.3 0-.3-.2l-.1 5.4m-60.8-3.8c-.2.3 0 .4.3.4.2 0 .3-.1.3-.2-.1-.2-.4-.3-.6-.2m16.5 0v.9c0 .4-.1.7-.3.8-.2 0-.3.3-.2.9v.2c.1-.4.2-.5.4-.5.2.1.2 0 .2-.9 0-.7 0-1 .3-1 0 0 .2 0 .2-.2 0-.3-.4-.4-.6-.2m-16 2c0 .1 0 .3.3.3h.3c0-.2-.2-.2-.2-.2-.1 0-.2 0-.3-.2-.1-.2-.2-.2-.2 0m.6 2c0 .4 0 .5.3.5.2 0 .3-.2.3-.4 0-.5-.6-.5-.6 0m14.7-.2c-.2.1-.3.3-.2.8 0 .6 0 .6 0 0 0-.3.2-.5.4-.5 0 0 .2-.1.2-.3 0-.2 0-.2-.4 0m-14.2 2v.2c0-.1.2-.2.4-.1.3.1.3-.2 0-.4s-.4-.1-.4.3m13.5 0v.4l.1-.1c0-.2 0-.3.3-.2l.2-.1c0-.3-.5-.2-.6 0M379 59.7c-.2.4-.1 8.8 0 8.9l.4.2v-.5-2.4c.1 0 .2-1.2.2-2.8 0-1.8 0-2.8-.2-2.8 0 0-.2 0-.2.2 0 0 0 .1 0 0v-.7h10.4l10.4-.1h-21m-31 2c-.4.3-.4 4.7.1 4.7.3 0 .3-.2.3-2.4v-2.4l-.4.2m18.4 1.3c0 .5 0 .7.1.5v-1 .5m-5.2 0V62.8v.4M178.2 63s0 .2.2.2l.3.1-.3.1c-.2 0-.2.1-.2 1.4 0 1 0 1.5.2 1.5.3 0 .5-3 .2-3.3-.2-.2-.4-.2-.4 0m35 1.5v-.3.3m148-.1c-.5.3-.5 3 0 3 .2 0 .2-.1.2-1.6v-1.6l-.3.2m5.5 1.7c0 .9 0 1.2.2 1.2l.3.2v-1.1c0-1.2 0-1.4-.2-1.4-.3-.1-.4 0-.3 1.1m24.9-.1c0 .3.6.4 2.2.4 1.3 0 1.6-.1 1.6-.3 0-.3 0-.3-2-.3-1.4 0-1.8 0-1.8.2m-2.7 0l-.1.4c0 .2-.1.3-.3.2-.2 0-.2 0-.2.3s0 .4.2.3c.1 0 .1 0 0 .1-.3.4-.2 1.8 0 1.7.2 0 .3 0 .3.2l-.3.1-.2.2h.3c.3 0 .3-.2.3-1.8 0-1.2 0-1.7.2-1.8.2 0 .2 0 0 0h-.2m-176.1 1.2v1c.1-.2.3-.3.4-.3.1 0 .2-.3.2-.9 0-.8 0-.9-.3-.9s-.3 0-.3 1.1m-12.3.2v-.6.5m195.8-.7h1.3l-.7-.1h-.6m-217.5.8V66.8v.4m21.2 2.1c0 .5 0 .7.2.7l.2-.2v-.6c0-.4 0-.5-.2-.5s-.2.2-.2.6m148-.4c0 .2-.2.3-.3.2-.1 0-.2.1-.2.7v.4c0-.2.2-.4.4-.4.1 0 .2-.2.2-.5v-.6c-.1 0-.2 0-.2.2m-169 .6c-.1.3 0 .5.1.5.2 0 .3-.2.3-.5 0-.7-.4-.7-.5 0m182.1 0s0 .2-.2.2-.3.2-.3.7c0 .6 0 .7.3.7.3-.1.6-1.8.3-1.8v.2m-128.6 1.2c0 .9 0 1.1.3 1.1.2 0 .2.2.2.7 0 .4.1.7.4.9.3.3.3.2.3 0 0-.3-.1-.4-.3-.4-.1 0-.2-.2-.2-1 0-.7 0-.8-.3-.7-.3 0-.3 0 0-.1.3-.2.4-.7.1-1-.2-.2-.2-.2 0-.2.3 0 .2-.3-.1-.4-.3 0-.4 0-.4 1M367 70c0 .3 0 .4.2.4l.4.2v-.3c0-.7-.5-1-.6-.3M219.4 71c0 1.7 0 2.3.4 2.3.1 0 .2-.3.2-1.4 0-1.1 0-1.4-.2-1.4s-.3-.2-.4-.4v.9m-27.9-.5c0 .4.1.7.3.9.4.3.4.2.4-.2s-.1-.5-.3-.5l-.3-.4v.2m20.7-.4l-.1.6v.3l.4-.2c.1 0 .2-.1.2-.4 0-.4-.3-.5-.5-.3m134.8 1l-.3.2c0 .3.5.2.6 0 .2-.2 0-.3-.3-.2m32.7 0c-.4.1-.4.8 0 1 0 0 .2-.1.2-.5.1-.6.2-.6-.2-.5m8.4.3c0 .2-.1.3-.3.2-.2 0-.2 0-.2.2 0 .3 0 .4.3.2s.5-1 .3-1l-.1.4m11.3.1c0 .3 0 .5.1.3v-.6.3m-187.4.3c0 .2-.1.4-.3.4-.1 0-.2.3-.2.7v.2l.4-.3c.2 0 .2-.2.2-.6v-.7l-.1.3m-33 .2c0 .2 0 .3.2.3s.3-.1.3-.3c0-.2-.1-.3-.3-.3-.1 0-.2.1-.2.3m20.1 0c0 .4.1.5.3.4l.2-.4c0-.2 0-.3-.2-.3s-.3.1-.3.4m41.3 0l-.4.2c-.1 0-.2.1-.1.3l-.1.2v.3c0 .2 0 .3-.2.2-.2 0-.3 0-.3.2s0 .3-.2.4c-.1 0-.1 0 0 0l.4-.1c0-.2 0-.3.2-.4.2 0 .3-.2.3-.3 0-.1 0-.3.2-.3s.3-.3.3-.4c0-.2.1-.4.3-.5.2 0 .2 0 0 0s-.4 0-.4.2m97.6 0c0 .2 0 .2.2.2l.3.3c0 .2.1.1.1-.1 0-.4 0-.5-.3-.5-.2 0-.3 0-.3.2m29.3 0c0 .2.1.3.3.3.1 0 .2.2.2.8 0 .5 0 .7.3.8.1 0 .2.3.2.7 0 .5 0 .7.3.7.4.1.5 0 .1-.2-.1 0-.2-.3-.2-.8 0-.4-.1-.7-.3-.8l-.3-.9c0-.7-.6-1.2-.6-.6m-175.5.3l.3.3c.3.2.4.2.4 0l-.3-.1-.3-.2c0-.2 0-.2 0 0m113 0c0 .2-.2.3-.4.3 0 0-.2.1-.2.3 0 .3-.3.3-.4 0l-.1.3-.1.6.6-.7c.4-.3.7-.7.6-.8 0-.2 0-.1 0 0m55.2 0s0 .2-.2.2-.3.1-.3.4c0 .3.1.4.4.3.3-.1.5-1 .2-1v.1m-14.1.5c0 .4-.2.5-.4.1v.7l.3-.3c.3-.3.3-.4.2-.5-.2-.2-.2-.2-.1 0m41.2 0c-.2 0-.3.2-.3.4 0 .3-.1.4-.2.4 0 0-.2.1-.2.3 0 .1 0 .2-.2.2s-.3.1-.4.3l-.3.2c-.3 0-.3 0 0 .2 0 0 .2 0 .3-.2.1-.1.3-.3.5-.3l.5-.6c.1-.3.3-.6.5-.7.3-.2.2-.3-.2-.2m-188.7.1v.2c0 .2.5 0 .5-.2 0-.1-.4-.2-.5 0m181.2 0c0 .2 0 .2.2.2l.1.2c0 .3 1.2 1.5 1.5 1.5l-.6-.7c-.4-.3-.7-.7-.7-.9 0-.2 0-.3-.2-.4-.2 0-.3 0-.3.2m19.2.2c0 .2 0 .4.2.5.2 0 .3 0 .3-.4 0-.3-.1-.5-.3-.5l-.2.4m-206.5.3l.1.1.2.2c0 .3.7 1 1.1 1 .2 0 .4.1.5.3 0 .1.2.2.5.2.4 0 .4 0 .1-.1-.3 0-.4-.2-.3-.3 0-.2 0-.3-.6-.3-.4 0-.6 0-.6-.2s-.1-.3-.3-.3c-.1 0-.2-.1-.2-.4 0-.2-.1-.4-.3-.4-.1 0-.2 0-.2.2m19 0c0 .2-.1.3-.3.4l-.2.4c0 .1 0 .2 0 0l.4-.2c.1 0 .2-.1.2-.4v-.4l-.1.2m86.1 0c0 .2.1.3.3.4h.2l-.2-.4c-.2-.2-.3-.2-.3 0m-118.1.2c0 .2 0 .3.2.3s.3 0 .3.2c0 0 0 .1 0 0 .2 0-.2-.7-.4-.7l-.1.2m59 .2l-.6.2c-.3 0-.4.1-.4.3l-.6.3h-.5.6c.4 0 .7 0 .9-.2l.4-.2.3-.3.1-.4-.2.3m64.5 0c0 .2-.2.2-.5.2-.4 0-.5.1-.5.3l-.5.3c-.4 0-.4 0 0 0h.7c0-.2.3-.3.5-.4.4-.1.6-.7.4-.7l-.1.3m42.1 0c0 .2-.2.2-.7.2-.6 0-.8.1-.8.3 0 .1-.1.2-.3.2-.1 0-.2 0 0 .1l.7-.1.8-.3c.2 0 .4-.2.5-.3.1-.3.1-.4 0-.4 0 0-.2.1-.2.3m-147.2.3a1 1 0 01-.9.4c-.3 0-.5.1-.5.3l-.2.3h.3c.2 0 .5-.2.5-.3l.3-.1c.2 0 1-.8.9-.9l-.4.3m36.1.3c.1.2.4.3.6.3.4 0 .4 0 .1-.1a.8.8 0 01-.5-.3c0-.2-.2-.3-.2-.3-.1 0-.1.2 0 .4m64.4 0c.3.2.5.3.8.3.3-.1.3-.1 0-.1s-.6-.2-.6-.3c0-.2-.2-.3-.3-.3l.1.4m43 0c0 .2.2.2.8.2h.5c-.2 0-.4-.2-.4-.3 0-.2-.2-.3-.5-.3-.4 0-.5.1-.5.3m18.3 0c0 .2 0 .2-.2.2s-.3.1-.3.2l.4.2c.2 0 .3-.1.3-.4v-.3c-.1 0-.2 0-.2.2m-124 .3c-.2.3.1.6.4.4.2-.1.2-.6-.1-.6l-.4.2m64.5.1c0 .2.2.3.3.3.1 0 .3-.1.3-.3 0-.2 0-.3-.3-.3s-.3.1-.3.3m82.2 0c0 .5 2.3.4 2.8 0 .3-.3.3-.3-1.3-.2-1.3 0-1.6 0-1.5.3m-98 0l.1.2c.2 0 .2 0 0 0-.3.1-.2.6.2.6.2 0 .3-.1.3-.5 0-.5-.4-.7-.6-.3m-64.5.2l.1.4h.3s.2-.1.2-.3c0-.2-.1-.3-.4-.3-.2 0-.3 0-.2.2m-9.1.2l-.1.5c0 .2-.1.4-.3.5l-.2.6c0 .3-.1.5-.3.5-.1 0-.2.1-.2.3 0 .2-.1.3-.2.3l-.3.5c-.2.4-.2.4 0 .1l.5-.2.1-.3c0-.3.1-.6.3-.6l.2-.6c0-.3.1-.5.3-.6l.2-.5c0-.2.1-.4.3-.5.3 0 .3 0 0 0h-.3m187.6.6c-.2.2-.2.3 0 .3s.3-.1.3-.3v-.4l-.3.4m-39.4.1c-.1.1-.1.2.2.2.2.1.3 0 .3-.1 0-.3-.1-.3-.5 0m-116.2.4c.3.1.3.7 0 .7-.2 0-.3-.2-.3-.4 0-.3 0-.3-.1 0l-.2.2-.2.2s.1.2.3.2l.2.1.3.1c.3 0 .4 0 .4-.6 0-.5-.1-.6-.3-.6h-.1M398 77c0 .2 0 .3-.2.3l-.1.2s0 .2.2.2.3-.2.3-.5l-.1-.5-.1.3m-113.1.1c0 .2.1.3.3.3.4 0 .4-.1 0-.4-.4-.2-.4-.2-.3.1m-103.7.2c0 .2 0 .4.2.4l.3-.1-.3-.4c-.2-.2-.2-.2-.2.1m39.2.1c0 .2 0 .3.3.3.4 0 .4-.3 0-.4l-.3.1m-38.7.7l.3.3h.3l-.3-.3c-.3-.2-.3-.2-.3 0M306 78c-.3.4-.3.4 0 .3.2 0 .4-.2.4-.3 0-.3 0-.3-.4 0m31.8.2c0 .2.2.4.3.4l.1.3c0 .2.2.3.4.4.3 0 .4 0 0-.1l-.2-.4c0-.2-.6-.9-.7-.9v.3m32.5 0l.2.5c.1.4.1.4.1 0 0-.5 0-.6-.2-.6h-.1m-149.3.5c0 .2.1.3.3.3h.2l-.3-.4c-.2-.3-.2-.3-.2 0m64.4 0l.3.2c.4 0 .4 0 0-.3-.3-.2-.4-.2-.3 0m-44.2.3c-.3 0-.3.4 0 .4.2 0 .3-.1.3-.3v-.2h-.3m66.3 1.1c0 .5.1.7.4.8.4 0 .4-.8 0-1.1-.4-.3-.4-.3-.4.3m29.7-.4c0 .1.1.2.3.2l.3-.2-.3-.2c-.2 0-.3 0-.3.2m34 0c0 .3 0 .4.2.4l.1.4.1.5c.3.2 0-.9-.3-1.2l-.3-.4.1.4m-13.8 0l.4.2c.2 0 .3-.1.2-.2l-.3-.2c-.2 0-.3.1-.3.2m-149.3.7l-.6.5c-.2 0-.8.6-.6.6.1 0 .3 0 .3-.2.1-.2.4-.3.7-.3h.2c-.3-.2-.2-.5 0-.5s.3 0 .3-.2.1-.3.3-.2h.1c-.1-.3-.3-.3-.7.3m35-.2c0 .5.1 1 .4 1 .2 0 .3-.2.2-.6 0-.7-.3-1-.5-.4m152.8 0c-.3.3-.4.6-.3.7 0 .1 0 .1 0 0 0-.2.2-.4.3-.4.1 0 .3-.1.3-.3.1-.4.1-.4-.3 0m-109.5.4c-.1.2 0 .4.4.4 0 0 .2 0 .2-.2 0-.3-.4-.4-.6-.2m85.6 0c0 .2.1.3.3.4.2 0 .4.2.4.3l.3.2-.1-.3-.5-.3-.3-.2c0-.2 0-.2 0 0m-67.8 0c-.1.5-.1.8 0 .8l.2-.4c0-.3-.1-.6-.2-.4m35 .2l.3.1.3.3c0 .3 0 .3 0 0 0-.1 0-.3-.2-.4-.3-.2-.4-.2-.4 0m-117 0l.2.3c0 .1 0 .2.2.2v-.3l-.5-.2c-.2 0-.2 0 0 0m172.5.3s-.1.2-.3.2c-.1 0-.3 0-.3.2s-.2.3-.4.3c0 0-.3 0-.4.2-.1.1-.4.3-.7.3-.2 0-.4.2-.4.3l-.6.2c-.5 0-.6 0-.6.3 0 .1 0 .2.1 0l.7-.2c.5 0 .7 0 .7-.2s.2-.3.5-.3.5 0 .5-.2.1-.3.3-.3c.1 0 .3 0 .3-.2s.3-.3.6-.3.5 0 .5-.2-.1-.3-.3-.3l-.2.2m-210.2.3c.2.1.3.3.2.4l.5.1c.3 0 .5.1.5.3 0 .1.1.2.4.2l.7.3c.2.3.2.3 0 0a.6.6 0 00-.5-.4c-.3 0-.5-.1-.5-.3l-.4-.2-.3-.2-.4-.2c-.4-.1-.4-.1-.2 0m102.6 0c.4.1.9.7.9.9l.2.1c.2 0 .3.1.4.3 0 .1.2.2.5.2.2 0 .4.1.5.3 0 .3 0 .3 0 0 0-.2 0-.3-.3-.4-.2 0-.3-.1-.3-.2l-.2-.2-.9-.5c-.3-.4-.6-.6-.8-.6-.1 0-.1 0 0 0m49.8 0c-.4.2-.3.8.1.8.2 0 .3-.2.3-.5s0-.4-.4-.2m3.6 0c.2 0 .3.2.3.3 0 .1.1.2.3.2l.3.3.3.2c.2 0 .3.1.3.3 0 .2.2.2.5.2h.1l-.3-.3-.3-.3c-.2 0-.6-.3-.8-.6l-.7-.4c-.2 0-.2 0 0 0m-37.6.5l-.4.3-.2.2c-.2 0-.3 0-.4.2l-.6.3c-.4 0-.6.2-.6.4 0 .3 0 .3.2 0l.6-.3c.2 0 .4 0 .4-.2s.3-.3.5-.3c.3 0 .4 0 .4-.2s.1-.3.3-.3l.2-.1c0-.2 0-.2-.4 0m-97.3.2c0 .2-.3.3-.5.3-.3 0-.5 0-.5.2 0 .1-.4.3-.8.3-.3 0-.6.2-.6.3l-.8.2c-.8 0-1.4.6-.7.6.2 0 .3 0 .3-.2s.2-.3.8-.3c.7 0 .9 0 .9-.2s.1-.3.5-.3c.3 0 .5 0 .5-.2s.1-.3.5-.3c.3 0 .5 0 .5-.2s0-.3.3-.2h.2c-.1-.3-.5-.3-.6 0m168.3-.1l.3.3c0 .1.1.2.5.2.3 0 .5.1.5.3 0 .2.1.2.5.2.3 0 .5.1.5.3 0 .2.2.2.9.2.6 0 .9.1.9.2l.1.3c.2 0 .2 0 .2-.2 0-.3-.2-.4-.8-.4-.4 0-.8-.2-1-.3l-.7-.2c-.2 0-.5-.1-.5-.3l-.5-.2c-.2 0-.5-.1-.5-.3l-.4-.2c-.3 0-.3 0 0 0M238 82l-.2.2c-.2 0-.4.1-.5.3v.3c.1 0 .2 0 .2-.2 0-.1.2-.3.5-.3l.4-.2c0-.2-.4-.3-.4-.1m116.7.4v.4l.1-.2.3-.3c.3 0 .3-.1 0-.1-.1 0-.3 0-.4.2m-130.5.2c0 .1.1.2.4.2.2 0 .4.1.4.3 0 .1 0 .2.2.2V83c-.1-.2-.3-.3-.5-.3l-.2-.2s0-.2-.2-.2l-.1.3m83.8 0a46 46 0 00.4.1l-.3-.2c0-.2 0-.1 0 0m-120.5.3l.2.3c0 .2.3.2.9.2.6 0 .8 0 .8.3 0 .1 0 .2.2.2.6 0 0-.6-.7-.6-.4 0-.8-.2-1-.3l-.4-.2c-.1 0-.1 0 0 0m166 .3v.3c.2 0 .2 0 .2-.2l.2-.3c.2 0 .2-.1 0-.1l-.3.3M343 83c0 .2.1.3.2.3.2 0 .3 0 .2-.2 0-.2-.2-.3-.3-.3l-.1.3m-117 .2c0 .2.1.4 0 .4l.3.1c.4 0 .4 0 .1-.4-.3-.3-.7-.3-.4 0m8.9 0c-.1.2-.5.3-1.4.3-1 0-1.3.1-1.3.3 0 .4 1.2.5 1.4 0 0 0 .3-.2.8-.2.6 0 .8 0 .8-.2 0-.1.1-.3.3-.3.4 0 .4 0 0-.1-.3 0-.5 0-.6.2M290.5 83.5c.2.4.5.4.5.1 0-.1-.1-.3-.3-.3-.3 0-.3 0-.2.2m9.1 0c-.3.3-.3.3 0 .3.1 0 .2 0 .2-.2l.2-.3c.2 0 .2-.1 0-.1 0 0-.3 0-.4.2m44.6-.1c.2 0 .3.2.3.3 0 .1.1.2.3.2.3 0 .3 0 0-.4l-.6-.2c-.3 0-.3 0 0 0m8.2.2c-.3.4-.3.4 0 .4.2 0 .3 0 .3-.2 0-.1.1-.3.3-.3.2 0 .2-.1 0-.1s-.4 0-.6.2m36.7-.1c-.2.1-.1.5 0 .5.2 0 .2 0 .2-.2s.3-.3.7-.3h.6l-.7-.1h-.8m-198.4.6h.3-.3m1.2 0c-.7.2-.2.5.8.5.9 0 1.1 0 1.1-.2 0-.4-1.3-.6-2-.3m6.3 0c-.3.3 0 .5.8.5.7 0 1 0 1-.2s.2-.3.6-.3h-.8c-.8-.1-1.5 0-1.6 0m29.2 0c.3 0 .5.2.6.3.2.3 1.1.3 1.1 0s.1-.3-1-.3h-.7m64.6 0c.2 0 .4.2.4.3 0 .2.2.2.6.2.4 0 .6 0 .6-.2 0-.3.1-.3-1-.3h-.6m4.9 0c-.4.3 0 .5.6.5l.8-.1c0-.4-1.1-.7-1.4-.4m49.2 0c.4 0 .7.1.7.3 0 .1.4.2 2.1.2 1.7 0 2.2 0 2.2-.2 0-.1.2-.3.5-.3H346m33.3 0c.4 0 .7.1.7.3 0 .1.3.2 1.4.2 1.3 0 1.4 0 1.3-.3-.2-.3-.4-.3-2.2-.3-1 0-1.6 0-1.2.1m5.1 0c-.3.3 0 .5 1.4.5 1.5 0 1.9 0 1.2-.5-.3-.2-2.4-.2-2.6 0m3.1 0h.3-.3" fill="#5c5c5c"/><path d="M325.5 3.4c.1.1.2 8.3.2 40v40c.2 0 .2-18 .2-40 0-40 0-40-.3-40h-.1m12.5.3c.1.2.2 5 .2 14.6 0 14.4 0 14.4.3 14.1.2-.1.3-.4.3-.6 0-.4 0-.4-.2 0-.2.2-.3-1.4-.3-13.7 0-13.6 0-14.8-.3-14.8-.1 0-.1.2 0 .4m-12.8 39.8v19.8a11354.3 11354.3 0 000-19.8M169.4 6c0 .3 0 .3.2.2.1-.2 2.3-.2 6.3-.2h5.9c-.4-.3-12.4-.2-12.4 0m-29.5.5c0 .5.3.8.4.3.1-.2 0-.4 0-.4v-.2l-.1-.2s-.2.2-.2.5M181.7 7c-.3.2-.2 1.2 0 1.2v-.2c0-.2 0-.3.2-.3s.3 0 .2-.3c0-.4-.3-.6-.5-.4m-28.3 1.2c0 .2.1.4.3.4l.2-.4c0-.3 0-.5-.2-.5s-.3.2-.3.5m15.2-.2c0 .1-.1.2-.3.2l-.2.4c0 .7.4.6.6 0V8l-.1.1m-28.2.7l.1.2c.1-.2.2-.2.3 0 0 .2.1.1.1-.2 0-.3 0-.5-.2-.5s-.3.2-.3.5m40.8.3c-.2.4 0 1.1.3 1v-.3c-.3 0-.2-.1 0-.2.3-.2.4-.8 0-.8-.1 0-.3.1-.3.3m-40.3 1.2c0 .2.1.4.3.4.2.1.2 0 .2-.3 0-.2 0-.4-.2-.4s-.3.1-.3.3m13.1 0c-.1.2 0 .5.3.5.2 0 .2-.4 0-.5h-.3m26.9.2c-.2.1-.3.4-.3.8 0 .5 0 .6.2.2 0-.2.2-.3.3-.3l.1-.4v-.5l-.3.2m-12.8.1c0 .1-.1.2-.3.2-.3 0-.3.3 0 .4.3.1.6-.5.4-.7l-.1.1M141.4 12c-.1.2 0 .5.3.5l.1-.3c0-.4-.2-.5-.4-.2m38.7.4l-.1.9c0 .5 0 .7-.3.7-.1 0-.2.2-.2.7 0 .4 0 .6.1.5 0-.2.2-.3.3-.4.2-.1.3-.5.3-1.3 0-.5 0-.6.2-.6.2.1.3 0 .3-.2 0-.4-.4-.5-.6-.3m-12.6.5l-.3.4c-.3.1-.3.5 0 .5s.6-.6.4-1c0-.1 0-.1 0 0m-13.3.3c0 .1.1.2.3.2a.3.3 0 10-.3-.2m-12.4.8c0 .5.4.5.4.1 0-.2 0-.3-.2-.3s-.3 0-.2.2m13 1.4c0 .2 0 .4.2.4l.2-.4c0-.2 0-.3-.2-.3s-.3.1-.3.3m12.2 0c0 .1 0 .2-.3.1-.1 0-.2 0-.2.4 0 .5.5.5.6-.1V15l-.1.2m-24.7.6c0 .4.1.5.3.5.1 0 .2-.1.2-.4 0-.2 0-.4-.2-.5-.2 0-.3 0-.3.4m36.7.9c0 .6.2.8.4.4.1 0 0-.1 0 0-.3.1-.3-.4 0-.6.3-.2.2-.5-.2-.5-.1 0-.2.2-.2.7m-36.2 1c0 .3.1.5.3.5.2.1.2 0 .2-.3 0-.2 0-.4-.2-.5-.2 0-.3 0-.3.3m12.5-.1c0 .1.1.2.3.2a.3.3 0 10-.3-.2m107.4 32.1v20.7a3358.7 3358.7 0 000-20.7m-96.4-31.9c-.4.4-.4.5 0 .5l.3-.3c.1-.5 0-.6-.3-.2m12.2.2c0 .4.4.4.6 0 .1-.3.1-.3-.3-.3-.2 0-.3 0-.3.3m97.2 32.3v16.1a7654 7654 0 000-16.2m-97.2-31c0 .2-.1.3-.3.3-.1 0-.2.1-.2.4v.4l.3-.4c.3-.4.5-1 .3-1l-.1.3m-35 0c-.3.1-.2.6 0 .6s.3-.1.3-.4c0-.4-.1-.5-.4-.3m12.4.9c0 .2.1.3.3.3.2 0 .2 0 .2-.2 0-.5-.5-.5-.5-.1m10.2-.2c0 .1-.1.2-.3.2-.3 0-.2.7 0 .8.3 0 .5-1 .4-1.1l-.1.1m-22.2 1.4c0 .2.2.3.4.4.2 0 .3 0 .2-.2V21l-.3-.1c-.2 0-.3.1-.3.2m33.7.6c0 .2 0 .4.2.4.1 0 .1 0 0 .2-.2.2-.2.3 0 .3l.1-.2.1-.5c0-.4 0-.5-.2-.5 0 0-.2.1-.2.3m-21.2.6c0 .3.2.4.4.5.3 0 .3 0 .2-.5-.1-.5-.6-.5-.6 0m9 0c-.4.3-.4.4 0 .4 0 0 .2 0 .3-.2.1-.4 0-.4-.3-.2m-20.9.4c-.2.2 0 .5.2.5l.2.2c0 .1 0 .2.1.1.1 0 0-1-.2-1l-.3.2m32.6.6c0 .3.1.4.3.4.1 0 .2-.1.2-.4 0-.2-.1-.3-.3-.3-.1 0-.2.1-.2.3m-12.2 1c-.2.1-.3.3-.3.5 0 .6.4.5.5 0 .2-.6.2-.5-.2-.4m-20 .4c0 .3.1.4.3.4.1 0 .2-.1.2-.3 0-.2 0-.3-.2-.4-.2 0-.3 0-.3.3m12 0c0 .3.1.4.3.4l.2-.1.1-.4c.1-.2 0-.3-.2-.3-.3 0-.4.1-.4.4m19.7.4c0 .5.4.4.5 0 0-.2 0-.3-.2-.3s-.3.1-.3.3m-19.1 1.3c0 .5 0 .7.2.7s.5-.4.3-.6v.1c0 .4-.4.2-.4-.3-.1-.5-.1-.5-.1.1m33.7-.4c0 .2 0 .3.3.3.1 0 .3-.1.3-.3l-.3-.2c-.2 0-.3.1-.3.3m9.3-.2c-.2.2 0 .4.3.4s.5 0 .5-.3c0-.2-.5-.3-.8 0m145.6 0c0 .2.1.3.3.3.2 0 .4-.1.4-.3l-.4-.2c-.2 0-.3.1-.3.3m6.5 0s.1.2.3.2c0 0 .2-.1.2-.3 0 0-.1-.2-.3-.2 0 0-.2.1-.2.3m26.7 0c0 .1.1.2.4.2.2 0 .4 0 .4-.3l-.4-.2c-.3 0-.4 0-.4.3m9 0s0 .2.2.2c.1 0 .3-.1.3-.3 0-.1 0-.2-.2-.2s-.3.1-.3.3m-242.9.4c0 .3.1.4.4.4.4 0 .4-.1 0-.5-.3-.4-.4-.3-.4.1m30.8 0c-.2.1-.1.6.2.6 0 0 .2-.1.2-.3 0-.3-.2-.6-.4-.4m12.4.2c-.1 0 0 .2.5.2s.6 0 .6-.2c-.1-.3-.9-.3-1.1 0m13.8 0l.4.2c.4 0 .3-.4 0-.5-.3 0-.4 0-.4.2m142 0c0 .2.1.3.3.3.1 0 .2-.1.2-.3 0 0 0-.2-.2-.2s-.3.1-.3.3m9.7 0c0 .1.1.2.4.2.5-.1.5-.4 0-.5-.3 0-.4 0-.4.3m22.7 0c.1.2.8.3.8 0 0-.2-.1-.3-.4-.3l-.4.2m13.7 0c0 .2 0 .3.4.3.2 0 .4 0 .4-.3l-.3-.2c-.2 0-.4.1-.5.3m-46.6 0l-.3.3c-.4 0-.3.4 0 .4s.6-.6.4-.8m-179.6.2c-.4.1-.4.4 0 .4 0 0 .2 0 .3-.2v-.2h-.3m22.9.3c0 .2.1.3.4.3.2 0 .4 0 .4-.2s-.3-.3-.4-.1h-.3c-.1-.2-.1-.2-.1 0m16.7 0c.2.3.4.4.4.1h.3c.2.2.2.2.1 0 0-.2-.2-.3-.5-.3-.2 0-.3 0-.3.3m28.5 20.9c0 20.2 0 21.4.3 21.4.2 0 .3 0 .3-.2 0-.1 0-.2-.2-.1-.3 0-.3-2.4-.3-21.2V27v21.3m8.6-21l-.1 22a206 206 0 01-.2 22.7 1238.3 1238.3 0 00.3-44.8m55.9 0l.4.3.1-.1c0-.2-.1-.3-.4-.3-.2 0-.3 0-.1.1m8.5 22.3c0 21.3 0 22.5-.3 22.4-.2-.1-.2-.1 0 0 .5.6.5-.2.4-22.5V27v22.5m12.9 5.8a1594.3 1594.3 0 00.2 0 2394.6 2394.6 0 00-.2 0m36.7-27.9c0 .2 0 .2 0 0h.3l.2-.1-.2-.2c-.2 0-.3.1-.3.3m20.4 0l.3.2c.2 0 .3-.1.3-.3l-.4-.2c-.2 0-.3 0-.2.3m16.4 0l.3.2c.2 0 .3-.1.3-.3 0 0-.1-.2-.3-.2-.2 0-.3.2-.3.3m-49.4.2c-.3 0-.4.5 0 .5l.3-.3c.1-.3.1-.3-.3-.2m-184.8.2c-.2.5 0 2 .4 2.1.3.2.3.1.3-.4 0-.4-.1-.5-.3-.4-.2 0-.2 0-.2-.5v-.8-.2c-.1 0-.2 0-.2.2m28.4 0c0 .2-.1.3-.3.3-.1 0-.2.1-.2.3 0 0 0 .2.2.2s.3-.1.3-.3c0 0 .1-.2.3-.2.2 0 .3-.1.3-.3 0-.2 0-.2-.2 0h-.3c0-.2-.1-.2-.1 0m19 0c0 .2 0 .3.2.3s.3.1.4.3l.3.2c.4 0 .3-.3-.2-.5l-.6-.4-.1.1m150.6 0c0 .2.1.3.3.3.1 0 .2.1.2.3l.4.2c.2 0 .3 0 .2.3 0 .1 0 .2.2.2.1 0 .2.1.2.3 0 0 .1.2.3.2l.3.3c0 .2.2.4.4.3.3 0 .3 0 0 0-.2 0-.3-.2-.3-.3 0 0 0-.1.2 0 .4.2-.5-.7-1.1-1.3l-.8-.8c0-.3-.5-.3-.5 0m18.9 0c0 .2 0 .3.2.3s.3-.1.3-.3c0 0-.1-.2-.3-.2-.1 0-.2.1-.2.3m18.3 0c0 .1.1.2.3.2.4-.1.4-.4 0-.5-.2 0-.3.1-.3.3M240.6 49.3v11a3285.2 3285.2 0 000-11m-21.5-.5v10.6a3086.8 3086.8 0 000-10.6m122.2-20.4c-.5.5-.5.5 0 .3l.4-.4c.2-.4.1-.4-.4.1m32.3-.1c0 .1 0 .2.2.2s.4-.1.4-.3c0 0-.1-.2-.3-.2l-.3.3m-227.8.4c0 .2.1.3.2.2l.4.1c0 .2.1.1 0-.2 0-.5-.6-.7-.6-.1m29.7 0c0 .2.1.3.3.3 0 0 .2-.1.2-.3 0 0-.1-.2-.3-.2 0 0-.2.1-.2.3m9.2 0c-.1.2-.3.3-.4.3-.1-.1-.1 0 0 0l-.3.4c-.4.2-.4.5 0 .5 0 0 .2-.1.2-.3 0 0 0-.2.2-.2s.3-.1.3-.3c0 0 .1-.2.3-.2.2 0 .3-.1.3-.3 0-.3-.4-.3-.6.1m22.4 0v.6l.4.1c.2 0 .3.1.3.3l.2.2s.2 0 .2.2c0 .3.8 1 1 1 .1-.1.1-.2 0-.2-.3 0-.4-.1-.4-.3 0-.2 0-.3-.2-.3s-.2 0-.2-.6c0-.2-.2-.3-.3-.3l-.4-.3c-.1-.2-.2-.2-.1 0v.1c-.2 0-.3-.1-.3-.3l-.1-.4-.1.3m-43.3 0c-.2.1-.3.3-.3.6 0 .6.4.5.5-.2l.1-.4h-.3m177 .3c0 .2 0 .3-.2.3s-.3.1-.3.3c0 0 0 .2-.2.2s-.3 0-.3.2.1.2.7-.3c.3-.3.5-.6.4-.8v.1m31.6 0c0 .3-.3.4-.4 0v.3c-.1.3-.2.5-.4.5 0 0-.2.1-.2.3 0 0-.1.2-.3.2 0 0-.2.1-.2.3l.8-.6.8-1c0-.2 0-.2 0 0m22.2-.1c0 .2 1 1 1.2 1 .2 0 .2 0 0 0s-.3-.2-.3-.4c0 0-.1-.2-.3-.2a.3.3 0 01-.2-.3l-.2-.2h-.2m-248.5 1.3c0 .3 0 .4.1.3l.4.1c.2.2.2.1.2-.2-.1-.5-.7-.7-.7-.2m37 0l-.4.2s-.2.1-.2.3l.2.2c.2 0 .3-.1.3-.3 0 0 0-.2.2-.2.3 0 .4-.3.1-.4l-.3.1m-8.2.4a.3.3 0 10.5 0 .3.3 0 00-.5 0m-16.7.6c0 .4.1.6.3.6l.3.2v-.3c0-.4 0-.5-.2-.3s-.2.1-.2-.4v-.5c-.1 0-.2.3-.2.7m180.7-.4c-.2.2-.2.3 0 0l.6-.2c.3 0 .3 0 0 0-.2 0-.5 0-.6.2m19.3 0c0 .2.2.4.4.4h.3c0-.2-.1-.4-.3-.5-.3-.2-.4-.2-.4.1m12 .7l-.5.5-.2.3c0 .3 0 .4.2.4.1 0 .3-.2.3-.4l.2-.3c.1 0 .2-.2.2-.5V31l-.3.5m26.5-.3c0 .2.1.3.3.3.2.1.3.2.2.4 0 .2 0 .3.2.3s.3 0 .1-.1c-.1-.1-.1-.2 0-.4.2-.1.1-.2 0-.2-.2 0-.3-.1-.3-.3 0 0-.1-.2-.3-.2l-.2.2m-233.7.3c0 .2.1.3.3.3.3 0 .3-.2 0-.4-.2-.2-.2-.1-.3.1m46.3.3l.2.2s.2.1.2.3c.1.4.6.5.6.2 0-.1 0-.2-.2-.1-.3 0-.3 0-.1-.1V32s-.2-.1-.2-.3c0 0 0-.2-.2-.2s-.3.1-.3.3m149.5 0c0 .5.6.5.6 0 0-.1 0-.1-.2 0-.2.2-.2.2-.1 0l-.1-.2s-.2 0-.2.2m-212 .6c0 .3.1.4.4.3.2 0 .3-.2.2-.3V32l-.3-.1c-.2 0-.3.2-.3.4m27.7 0c0 .6.4.5.5 0 0-.3 0-.4-.2-.4s-.3.1-.3.4m7.2-.1s0 .2.2.2.3-.1.3-.3c0 0-.1-.2-.3-.2-.1 0-.2.1-.2.3m-.5.4s0 .1.2 0c.1 0 .1 0 0 .2-.2.2-.2.3 0 .3s.3-.1.2-.3c0-.3-.4-.5-.4-.2m178.1.4c0 .5.1.6.4.6.2 0 .3-.1.3-.4 0-.2 0-.3-.3-.2-.2.1-.2 0-.2-.2v-.4l-.2.6m38.4-.3c0 .2 0 .4.2.4s.3-.2.3-.4-.1-.3-.3-.3c-.1 0-.2.1-.2.3m-238.8.9c0 .9.5 1 .5.2v-.2c-.1.5-.4.3-.5-.2v.2m51.4-.5c0 .2.1.3.3.3.1 0 .2-.1.2-.3a.3.3 0 00-.5 0m159-.1c.1.3 0 .5-.1.2-.2-.2-.2-.1-.2.2 0 .2.1.3.3.3.3 0 .5-.4.2-.7-.1 0-.2-.1-.2 0m-188.6.6s0 .1.1 0l.2.1c0 .1 0 .2-.2.2l-.1.2.2.1c.2 0 .3-.1.3-.4 0-.2-.1-.4-.3-.4-.1 0-.2 0-.2.2m217.5.2c0 .7.4.7.4.1 0-.3 0-.5-.2-.5s-.2.1-.2.4m-250.8-.1v1.1c.2 0 .2 0 .2-.3-.1-.3-.1-.3.1 0 .3.3.4.1.2-.6-.1-.3-.3-.4-.5-.2m15.4.1c-.4.1-.4.6 0 .6 0 0 .2-.1.2-.3l.1-.3h-.3m11.2.3c0 .2.1.3.3.3 0 0 .2-.1.2-.3 0-.2-.1-.4-.3-.4l-.2.4m36.8.1c0 .2.1.4.3.4.2 0 .2-.1.2-.3 0-.4-.5-.5-.5 0m149.1-.2v.7c0 .7.5.7.5 0v-.3c-.2.4-.4.2-.4-.2.1-.4 0-.5-.1-.2m8.6.3c0 .3.1.3.3.3.4 0 .5-.6 0-.6-.2 0-.3.1-.3.3m-188.3.2s0 .1.1 0l.2.1c0 .1 0 .2-.2.2l-.1.3s0 .2.2.2.3-.2.3-.5-.1-.5-.3-.5c-.1 0-.2 0-.2.2m15 .3c-.4 0-.5.3-.1.4.2.1.3 0 .4-.1.2-.4.7-.4.7 0 0 0 0 .2.2.2.3 0 .3-.4 0-.6h-1.2m187 0c-.3.1-.3.6.1.6.2 0 .3-.1.3-.3v-.3h-.3m2.3.3l.3.3c.4 0 .3-.4 0-.6-.4-.1-.4-.1-.3.3m-173.2 0c-.2.1 0 .8.2.8l.2-.4c0-.4-.2-.7-.4-.5m-52 .9c0 .9.6 1.6.6.8 0-.2-.1-.3-.2-.3-.2 0-.3-.2-.4-.7v.2m38-.5c-.3.1-.3.2 0 .2l.3.1c0 .1 0 .2.2.2s.3.1.3.3c0 0 0 .2.2.2s.3.2.3.4c0 .3 0 .5.2.5s.2.2.2.3v.2c.2 0 .2 0 .2-.2s0-.4-.2-.4-.3-.1-.3-.5l-.1-.5-.7-.5c-.3-.3-.5-.4-.7-.3m201.4 0v.4c.2.2.5 0 .5-.3s-.4-.3-.5 0m-250.9.2c0 .3.1.3.3.3.1-.1.2 0 .2.2l.1.2v-.6c0-.5-.6-.5-.6 0m45.9-.1s-.1.2-.3.2c-.1 0-.2.1-.2.3l.1.2c.1 0 .3-.1.3-.3l.3-.2c.2 0 .3-.1.3-.3 0 0-.1-.2-.3-.2-.1 0-.2.1-.2.3m148.3 0c0 .1.1.2.3.2.3-.1.3-.4 0-.5-.2 0-.3 0-.3.3m2.5 0l.3.2c.2 0 .3 0 .3-.3-.2-.3-.5-.3-.6 0m23.5.1c0 .2.1.4.3.4l.2-.4c0-.2-.1-.3-.3-.3 0 0-.2.1-.2.3m13.2 0s-.1.2-.3.2c-.1 0-.2.1-.2.3 0 .3.2.2.6-.3.3-.4.3-.5.1-.5-.1 0-.2.1-.2.3m4.5-.1s0 .2.2.2.3.2.3.4c0 .1 0 .2.2.2s.3-.1.3-.3c0 0-.1-.2-.3-.2a.3.3 0 01-.2-.3s-.1-.2-.3-.2c-.1 0-.2 0-.2.2m-212.2.4c0 .2 0 .4.3.4l.2-.4c0-.3 0-.4-.3-.4-.1 0-.2.1-.2.4m6.2.1c0 .5 0 .6.2.6s.3-.1.3-.4c0-.2-.1-.4-.2-.3 0 0-.2 0-.2-.2l-.1.3m161.5 0c0 .3.4.3.6 0h-.3c0-.1 0-.2-.2-.2l-.1.2m4.3 0c-.1.2 0 .2.2.3.2 0 .4 0 .5.2.2.1.2.2 0 0l-.3.1c0 .2.4.2.5 0 .1 0 0-.3-.2-.5-.4-.4-.4-.4-.7 0m14.9.7c0 .8.6 1.3.6.5 0-.2-.1-.3-.2-.3-.2 0-.3-.2-.4-.5v.3M162 36.7c0 .2.1.3.3.3 0 0 .2-.1.2-.3 0 0-.1-.2-.3-.2 0 0-.2.1-.2.3m30.8.2l.2.3c.1.2.1.2.2 0 0-.3-.1-.5-.3-.5-.2 0-.2 0-.1.2m19 .2c0 .2.1.3.3.3.1 0 .2-.1.2-.3 0-.2 0-.3-.2-.3s-.3.1-.3.3m174.9 0c0 .2 0 .3.2.3s.3-.1.3-.2c0-.2-.1-.3-.3-.4-.2 0-.2 0-.2.3m-6.7.3c0 .4 0 .5.3.5.2 0 .2 0 0-.2-.2-.1-.2-.2 0-.3.5-.2.4-.5 0-.5-.2 0-.3.1-.3.5m-12-.2c0 .1-.1.2-.3.2 0 0-.2.1-.2.3 0 .3.5.3.6-.1v-.5l-.1.1m-219.7.4c0 .2.1.3.2.2 0 0 .2 0 .3.2.2.3.2.2.2-.2 0-.6-.7-.8-.7-.2m191.8 0c-.1.2-.1.2-.3 0-.1-.2-.1-.2-.1 0s-.1.3-.2.3c0 0-.2.1-.2.3 0 0 0 .2.2.2.1 0 .8-.8.8-1 0-.3 0-.2-.2.1m6.3 0c0 .4.3.4.4 0 0-.2 0-.3-.2-.3s-.3.1-.2.3m52.8 0c0 .3 0 .4.2.4s.3-.1.3-.2c0-.2-.1-.3-.3-.4-.2 0-.2 0-.2.3m-226.2.1c0 .2 0 .4.2.5h.1l.1-.3-.1-.4c-.2 0-.3 0-.3.2m6.3.1c-.2.2-.1.6.1.6s.3-.1.3-.2c0-.3-.3-.5-.4-.4m12.9.3c0 .2 0 .3.2.3s.3-.1.3-.3c0-.2-.1-.4-.3-.4l-.2.4m-32.3.5c0 .7.6 1.2.6.6 0-.2-.1-.3-.2-.3-.2 0-.3-.2-.4-.5v.2m39.4-.2v.4c0 .2.1.3.3.3l.2-.4c0-.1 0-.3-.2-.3l-.3-.1m147.6.4l.1.6c.1 0 .1 0 0-.2 0-.2 0-.2.2-.1.3 0 .3 0 .2-.2v-.4l-.3-.2c-.2 0-.2.2-.2.5m-8 0l-.2.4c0 .3 0 .3.3 0 .4-.4.4-.5 0-.4m40.6 0c-.2.2 0 .7.2.7.4.1.5 0 .3-.6-.1-.3-.3-.3-.5-.1m7.6.2c0 .2 0 .4.2.4s.3.3.3.4V39.3c0-.7-.5-.9-.5-.3m-225.7.2c0 .2.1.3.3.3 0 0 .2-.1.2-.3 0-.2-.1-.4-.3-.4l-.2.4m50.7 0l.1.5c0 .4.5.2.5-.1 0-.3 0-.4-.2-.4l-.3-.2c0-.2-.1 0 0 .2m-63.4.4c0 .4 0 .5.2.5h.2l.1.2c.2-.2 0-1.1-.3-1.2-.1 0-.2.1-.2.5m23.6 0c0 .3 0 .4.3.4.1 0 .2-.1.2-.4-.1-.5-.5-.6-.5 0m195-.3c0 .1-.1.2-.3.2 0 0-.2.1-.2.3 0 .3.5.3.6-.1v-.5l-.1.1m-29 .5c-.5.3-.5 32.2 0 32.2.2 0 .3 0 .3-.2 0 0 0-.1-.2 0-.2 0-.3-1.8-.3-15.7a101.3 101.3 0 01.5-16c0-.5 0-.5-.3-.3m22.4.8c0 1 .3 1.8.5 1.1.2-.4.1-.5-.1-.5s-.3-.3-.3-.8c-.1-.8-.1-.7-.1.2m18.6-.3c0 .4 0 .7.2.9v-.5c-.1-1-.2-1.1-.2-.4m-200.8.3c0 .3 0 .4.2.3.2 0 .3-.2.3-.4s-.1-.3-.3-.3c-.1 0-.2.1-.2.4m12.9 0v.4c0-.2.2-.3.3-.4.3-.1.3-.4 0-.4-.1 0-.3.2-.3.4m208 .1c0 .2.1.3.2.3s.2-.1.2-.3c0 0 0-.2-.2-.2l-.1.3m-52.4 0l.3.3.3.7v-.2c0-.7-.6-1.5-.6-.8m-187 .7c.1.9 1.2 1.3 1.2.5 0-.2-.1-.3-.3-.3-.6 0-.7 0-.8-.5v.3m-11 0c0 .3 0 .5.3.6.4 0 .4-.7 0-1-.2 0-.3 0-.3.4m22.8-.3c-.2 0-.2.2-.1.4 0 .3.1.3.3 0 .2-.4 0-.6-.2-.4m227.5.9l.1.7c.1 0 .2-.3.2-.7 0-.4 0-.8-.2-.8l-.1.8m-187-.4c0 .4.1.8.4.8.3 0 .3-.3 0-.5a.9.9 0 01-.3-.3c0-.2-.1-.2-.1 0m166.8 0V43c.1.8.1.8.1-.3 0-1 0-1.4-.1-.8m-179.7.2c0 .2.1.3.3.4.2 0 .2 0 .2-.3s0-.4-.2-.4-.3.1-.3.3m167.2.2c0 .2-.1.5-.3.5-.2.1-.3.8 0 .8.2 0 .5-.7.4-1.2v-.1m-217.2 1v.5c.2-.3.4-.2.5 0v-.1c.1-.5-.2-1.1-.5-1.1v.7m21.6 0c0 .2.1.3.3.3 0 0 .2-.1.2-.3 0-.2-.1-.4-.3-.4l-.2.4m-10.7.4c0 1.1.2 1.2.2.3l-.1-.9-.1.6m17.5.5c-.2.2-.1.4.1.4s.3-.1.3-.3c0-.2-.2-.3-.4 0m209.4.4V44.2v.4m-237.3.2c-.2.2 0 .5.2.4.1 0 .2 0 .3.4v-.2c0-.6-.2-.9-.5-.6m20.6.1c0 .5.4.6.5.2 0-.3 0-.4-.3-.4 0 0-.2 0-.2.2m20.6 10.3V60a609.4 609.4 0 000-4.8M151 46.4c-.2.3 0 .7 0 .7.2 0 .3 0 .4.2V47c0-.4-.3-1-.4-.6m19.5.3c0 .2.1.3.3.3 0 0 .2-.1.2-.3 0-.2-.1-.4-.3-.4l-.2.4m42.7 1.2v1.8c.2.3.7.4.6.1l-.2-.1-.3-1.7v-1.8l-.1 1.7m148.2 7v3.8a362.9 362.9 0 000-3.8m-210-6.3c0 .4 0 .5.2.5.1 0 .2 0 .3.2v-.4c0-.8-.6-1-.6-.3m18.7 0c0 .3 0 .4.3.4.1 0 .2-.1.2-.4-.1-.5-.5-.6-.5 0m196.6 6.6v3.5a321.6 321.6 0 000-3.5m-18.8-6.4c0 .2.1.4.3.4.2 0 .2.7.2 6 0 5.2 0 6-.2 6s-.3.1-.3.3c0 .3 0 .3.4.2.3-.2.3-.4.3-6.5 0-6 0-6.3-.3-6.6-.4-.3-.4-.2-.4.2m-196 1.6c0 .2.2.3.3.2l.3.5v-.2c0-.5 0-.7-.3-.7-.2 0-.3 0-.2.2m17.6.1c0 .2 0 .3.2.3l.2.2v-.3c0-.4 0-.5-.2-.5 0 0-.2.1-.2.3m209.7.5c0 .4.2.7.3.5l-.1-.5c-.1 0-.2-.1-.2 0m8.5.2c0 .3 0 .6.2.5.2-.2.3-.9.1-.9l-.3.4m-235.2.6c-.2.2-.2.9.1.8.1 0 .2 0 .3.3v-.3c.1-.8 0-1-.4-.8m16.5.4c0 .2.1.3.3.3 0 0 .2-.1.2-.3 0-.2-.1-.4-.3-.4l-.2.4M152.8 54c0 .2.1.3.2.3.2 0 .3.1.3.3 0 .3 0 .4-.2.3-.1-.1-.1 0 0 .2.4.3.4.3.3-.6 0-.8-.6-1.3-.6-.5m15.7-.1c0 .1 0 .3.2.4 0 0 .1.2 0 .4 0 .2 0 .3.2.2.2-.2 0-1.1-.2-1.2-.1 0-.2 0-.2.2m-.5 1.8c0 .2.1.3.3.4.1 0 .2 0 .2-.3 0-.2-.1-.3-.3-.3l-.2.2m-14.6.1c-.1.2.2.9.4.9.3 0 .2-1 0-1l-.4.1m.5 1.5c0 .5.2.9.4.9.3 0 .2-.7-.1-1-.3-.3-.3-.3-.3.1m13.6.2c-.1.2 0 .3.2.2.4 0 .4-.3 0-.4 0 0-.2 0-.2.2m-13.1 13.2a109.7 109.7 0 010 .1V58.4v12.3M379.3 60v.4c0-.2 2.6-.2 10.4-.3h10.4-10.3a108.5 108.5 0 01-10.5 0m-166 .6v3.4-1.7c0-1.4 0-1.7.3-1.7l.2-.2c0-.3-.5-.2-.6.2m177.2 5h-1l1 .1 1.1-.1v-.2l-1 .2m4.6 0l.2.4c0 .4.8.3.8-.1 0-.3 0-.3-.6-.3h-.4m-6.9.5c0 .5.4.6.5 0 0-.3 0-.4-.2-.4-.3 0-.3.1-.3.4m11.2-.2s0 .2-.2.2c-.3 0-.2 0 .3.2.6.1.6 0 .1-.4-.1 0-.3-.1-.2 0m-221.2.5c.1.3.5.4.5.1l-.3-.3-.2.2m201.3.1v1l.1.8v-1c0-.8 0-1-.1-.8m20.2 2.2l.1 1.9c.1 0 .2-.8.2-2 0-1.1 0-1.9-.2-1.9l-.1 2m-51.8-1c0 .4-.1.5-.3.5-.2 0-.3.2-.2.5 0 .3 0 .5.2.4.3 0 .5-1 .4-1.6-.1-.3-.1-.2-.1.2m13-.4v2-.8c.1-.6.2-.8.4-.7.1 0 .2 0 .2-.2 0-.3-.4-.4-.6-.3m5.6.1l.3.3.2.5c0 .3 0 .4.1.1.1-.4 0-1-.4-1l-.2.1m-166.6.4c-.2.3 0 .8.2.8.1 0 .2-.2.2-.5 0-.4-.1-.5-.4-.3m12.8.3v.7l.1-.2c0-.2.1-.4.3-.4.3-.2.3-.5 0-.5l-.4.4m166.8 1.2c0 .4 0 .5.1.3V69v.4m-188 .4v.7l.3.2c.3 0 .3-.6 0-.8a1 1 0 01-.3-.4v.3m-13 .5c0 .2.2.4.3.4.2 0 .3-.2.3-.4s-.1-.3-.3-.3c-.1 0-.2.1-.2.3m168.2.5c0 .3 0 .4.2.3.4 0 .5-.5.1-.6-.2-.1-.3 0-.3.3m20.1-.1c0 .2 0 .3.3.2.1 0 .2 0 .2.2l.1.2v-.5c-.1-.6-.6-.6-.6-.1m12.5 0c0 .6.6.6.6 0v-.2c0 .2-.2.3-.3.3l-.2-.3v.2m8.3.1c-.3.3-.2.9 0 .9s.5-1 .4-1.1l-.4.2m-175.6.3c-.2.4-.2.4.2.2.2 0 .3-.2.3-.3 0-.3-.4-.2-.5.1m187.4 0l.1.2c.1 0 .2 0 .2-.2s0-.3-.2-.3l-.1.3m-200.4.3c0 .1.1.3.3.3l.2-.3c0-.2 0-.3-.2-.3s-.3 0-.3.3m161.1-.3v1l.4-.5c.3-.2.3-.6 0-.6l-.4.1m19.6 1c0 .7 0 .9.3 1 .4 0 .5-.2.1-.3l-.3-.7c0-.7 0-.7 0 0m-181 .2c0 .1 0 .2-.1.1-.2 0-.2 0-.1.1l-.1.5c-.1.1 0 .1.2 0 .3 0 .5-1 .3-1l-.1.3m98.1.1c0 .3.2.4.4.5l.3-.1c0-.1-.1-.4-.3-.5-.4-.3-.4-.3-.4.1m49.3-.1c-.3.2-.3.2 0 .2 0 0 .3 0 .3-.2.2-.3 0-.3-.3 0m-154.5.1c0 .2.2.3.3.3.4 0 .3-.3 0-.4l-.3.1m-13 .2a.3.3 0 10.6 0 .3.3 0 00-.5 0m53.8 0c0 .3.1.4.3.4 0 0 .2-.1.2-.3 0-.2-.1-.4-.3-.4l-.2.4m71.6-.1l-.4.2v.3c0 .1 0 .2.2.2l.1-.2c0-.2.1-.3.3-.3 0 0 .2 0 .2-.2s0-.3-.2-.3c0 0-.2.1-.2.3m34.2 0c0 .1.1.2.3.2.1 0 .2.1.2.3l.2.2s.2 0 .2-.2l-.1-.3c-.2 0-.3 0-.3-.2 0-.1 0-.2-.2-.2s-.3 0-.3.2m48.5 0c-.1.3-.1.4.1.4.3 0 .4-.2.3-.5-.1-.2-.2-.1-.4.1m-19.8.2c0 .2.1.4.3.4l.2-.4c0-.2-.1-.3-.3-.3 0 0-.2.1-.2.3m-174.6.3c.1.2 0 .2 0 .2-.1-.1-.2 0-.2 0 0 .1 0 .2.2.2.3 0 .4-.4.1-.6-.1 0-.1 0 0 .2m18.8 0v.4c.2 0 .3 0 .3.3l.1.3.1-.7c0-.6-.4-.8-.5-.2m27.7-.2l.3.3.2-.1c0-.2-.2-.3-.3-.3l-.2.1m44.3.1c0 .3.1.4.3.3.1 0 .2 0 .3.5v-.1c0-.9-.6-1.5-.6-.7m-85.6.7c-.3.2-.4.4-.2.3h.2c0 .2-.1.2-.3.2l-.3.3v.2c.2 0 1.2-1 1.2-1.3 0-.3-.2-.2-.6.3m21.1-.2c0 .1.1.2.3.2l.3.7v-.2c.1-.9 0-1-.2-1s-.4.1-.4.3m14.5 0c0 .2 0 .2-.2.1-.4-.1-.3 0 0 .3.4.3.4.3.4-.2 0-.2 0-.5-.2-.5v.3m5.3-.2c-.2.2-.1.4.2.4 0 0 .2 0 .2-.2 0-.3-.2-.3-.4-.2m58.9.2c0 .1 0 .2.2.2l.2.3V74c0-.5-.4-.8-.4-.3m5.6-.2c-.2.2-.1.4.1.4s.3 0 .3-.2c0-.3-.2-.3-.4-.2m36.2.2l.3.2c.2 0 .2 0 0-.2 0-.2-.2-.3-.2-.3v.3m5.8 0h-.2-.2c0 .2 0 .2-.2.2s-.3.1-.3.3c0 .1.1.2.3.2.1 0 .2 0 .2-.2s.1-.3.3-.3c.1 0 .2 0 .2-.2v-.3l-.1.2m14.2 0v.7c0-.2.2-.4.3-.3.1 0 .2 0 .3-.3 0-.3-.3-.4-.6-.2m20.6.1c0 .2.1.4.3.5.4.3.4.3.4 0 0-.2-.1-.3-.3-.3-.3 0-.3 0 0-.2.1-.1.1-.2-.1-.2s-.3.1-.3.2m6.2 0c0 .2-.2.3-.3.4l-.2.3-.2.1c-.2 0-.3.1-.3.3 0 .1 0 .2.2.2.1 0 .3 0 .3-.2s.2-.3.4-.3c.1 0 .2 0 .2-.2s.1-.3.2-.3c0 0 .2 0 .2-.2s-.1-.3-.3-.3c-.1 0-.2.1-.2.3m-193.5.5c0 .1 0 .2.2.2s.3.1.3.3a.3.3 0 10.2-.3.3.3 0 01-.2-.2c0-.2-.1-.3-.3-.3-.1 0-.2.1-.2.3m45-.2c-.3.3-.2.4.1.4.2 0 .4 0 .4-.2.1-.3 0-.3-.4 0-.1.1-.2.1 0 0 0-.3 0-.3-.2-.2m64.5 0c-.2.3-.1.4.2.4.2 0 .4 0 .4-.2 0-.3-.4-.4-.6-.2m38 .2c0 .2.2.2.6.2.5 0 .5 0 .2-.2-.4-.3-.7-.3-.7 0m58.5.4c0 .5 0 .6.2.5.3-.2.2-1 0-1.1-.1 0-.2.1-.2.6m-31.2 0c0 .3.1.4.3.4.3-.1.3-.7 0-.8-.2 0-.3 0-.3.4m-188.3 0s0 .2.2.2.3-.1.3-.3c0-.1-.1-.2-.3-.2-.1 0-.2 0-.2.2m31.6.1c0 .3 0 .4.2.4.1 0 .2 0 .1.2v.1c.3-.1.3-.9 0-.9-.2 0-.3.1-.3.2m23.1 0c0 .2.2.3.4.3.1 0 .2 0 .2-.2s-.1-.3-.3-.3c-.3 0-.3.1-.3.3m2.7 0l.3.2c.2 0 .3 0 .3-.2s-.2-.3-.4-.3-.3.1-.2.3m61.7 0l.4.2c.1 0 .2 0 .2-.2s-.1-.3-.3-.3c-.3 0-.4.1-.3.3m2.6 0c.3.3.8.3.8 0 0-.2-.2-.2-.5-.2-.4 0-.5 0-.3.2m41.1 0c0 .2.6.4 1 .3.6-.2.4-.6-.3-.6-.5 0-.7.1-.7.3m39 0l.4.2c.1 0 .3 0 .3-.2s-.2-.3-.4-.3c-.3 0-.4.1-.4.3m-186.4.3c-.4.4.7.7 1.3.5.5-.1.5-.6 0-.5l-.2.2c0 .1 0 .2-.3.2-.2 0-.3 0-.3-.2s-.4-.3-.6-.2m164.5.8v.2l.4-.2c.1 0 .2 0 .2-.2s-.1-.3-.3-.3c-.3 0-.4 0-.3.5m39.3 0c0 .2 0 .3.1.2.1 0 .2 0 .3.2V76c0-.4 0-.6-.2-.6l-.2.4m-218.5.2c0 .2.1.4.3.3.2-.1.2-.7 0-.7s-.3.2-.3.4m39.6 0c0 .5 0 .6.3.5.2 0 .3 0 .2.4v.5c.1 0 .2-.3.2-.7 0-.6 0-.8-.2-.8s-.3 0-.4-.2v.4m148.6-.2c0 .3 0 .4.2.2.2-.1.3-.1.4 0 0 .2 0 .1 0 0 0-.6-.6-.6-.6-.2m-157.7.1c0 .1.1.3.3.3.2 0 .2 0 .2-.2s0-.3-.2-.3-.3 0-.3.2m73.5.4c0 .3.1.3.3.3h.2l-.1.2c-.1 0-.2.1-.1.2.1.3.4-.1.4-.6 0-.3-.1-.4-.3-.4-.3 0-.4.1-.4.3m-73.8.3c-.3.1-.2.7 0 .7s.3-.1.3-.4v-.4l-.3.1m148.3.3c0 .4 0 .4.2.3 0-.1.2-.2.3-.1.2 0 .2 0 .2-.2-.1-.5-.7-.5-.7 0m39.4-.2l.2.1.3-.1c0-.1-.1-.2-.3-.2-.1 0-.2 0-.2.2m-217.4.1c-.2.2 0 .5.2.5.1 0 .2-.1.2-.3 0-.4-.3-.4-.4-.2m61.7.2c0 .2.2.4.3.5.3 0 .2-.6 0-.7-.3-.1-.3 0-.3.2m64.5 0c.1.4 0 .6-.2.7-.4.1-.4.1 0 .1.6 0 .7 0 .7.7 0 .3 0 .7-.2.7.5 0 .4-2.4 0-2.5-.3 0-.3 0-.3.4m62.2-.3c-.3 0-.3.5 0 .5.2 0 .3-.1.3-.3v-.3h-.3m-84.4 1c0 .3 0 .5.1.4l.4.1c.2.2.2.1.2-.3-.1-.6-.7-.7-.7-.1m-103.6 0l.1.2.3.4c.1.5.6.6.6.2 0-.2-.1-.3-.3-.3-.1 0-.2-.1-.2-.3 0-.2-.1-.3-.3-.3l-.2.1m28.8 0c-.3 0-.2.5 0 .5s.3-.1.3-.3v-.3h-.3m10.4.2l.1.4h.3s.2-.1.2-.3c0-.2-.1-.3-.4-.3-.2 0-.3 0-.2.2m21.7 0c0 .2 0 .3-.2.4-.4 0-.5.5-.2.5.2 0 .3-.1.3-.2l.1-.3.3-.3c0-.2 0-.3-.2-.3-.1 0-.1 0 0 .2m116.3-.1l-.2.3c0 .4.6.2.7-.1 0-.3 0-.4-.5-.2m11 0c0 .3.7 1 .9 1l.1-.2-.1-.3-.3-.3c0-.3-.6-.5-.6-.1m28.3-.1l.2.4c.1.1.1 0 .2-.2 0-.2-.1-.3-.3-.3h-.1m-155.2.2c-.2.3-.1.6.2.7.3 0 .4 0 .3-.3 0-.4-.3-.6-.5-.4m155 .2c0 .1 0 .2-.2.2-.1 0-.2.1-.2.3 0 .4.4.3.5-.1V78v.1m-60 .3c0 .1 0 .3.2.4.4.1.4 0 0-.4-.2-.3-.2-.3-.2 0m-31.7.3c0 .3-.1.5-.3.5-.2 0-.2 0 0 0 .2.2.8-.3.8-.6 0-.2-.1-.3-.3-.3-.1 0-.2.2-.2.5m-96.5 0v.3h-.2-.3c-.3.2-.5.7-.2.7s.6-.3.4-.3c-.2 0-.1 0 .1-.2.4-.2.5-.5.2-.6-.2 0-.2 0 0 .1m11.4.2l.1.3.3.1s.2 0 .2-.2l-.2-.2-.3-.1m64.4 0l.1.6c0 .2 0 .2.2 0 0-.2.1-.1.2.3 0 .5.6.8.6.3l-.2-.3c-.2 0-.3-.2-.3-.5 0-.4-.2-.5-.4-.6-.2 0-.3 0-.2.2m72.7-.1c-.3 0-.4.5 0 .5.1 0 .3 0 .3-.2.2-.3.1-.4-.3-.3m12.6.5c.3 0 .4.4.1.4l.2.3c.3.4.5.4.5 0l-.1-.2-.3-.3c0-.2-.2-.3-.4-.3-.3 0-.3 0 0 0m-33.2.3c-.2.1-.3.4-.3 1s.2 1 .4.7V81c-.2 0-.3-.2-.3-.4 0-.3.1-.4.3-.4.1 0 .2-.2.2-.5v-.4l-.3.2m.9 0c0 .3.4.4.4.1 0-.1 0-.3-.2-.3s-.3.1-.2.2m-97.6.2l-.4.1h.5l.4-.1v-.2l-.5.2m-19.4 0l.1.4c0 .1.1.2.3.2 0 0 .2 0 .2-.2s0-.3-.2-.3h-.4m136 .2c0 .2-.2.3-.3.3-.2 0-.3.1-.3.3 0 .1 0 .2-.2.2s-.3.1-.3.3c0 .1 0 .2-.2.2s-.3.1-.3.3c0 .1 0 .2-.2.2-.1 0-.3.2-.3.4s-.2.3-.3.2c0 0-.2 0-.2.2 0 .1.1.2.3.2h.2c0-.3 1.2-1.5 1.4-1.5l.1-.2c0-.2.1-.3.3-.3.1 0 .3-.2.3-.5 0-.2.2-.5.4-.5s.2-.1 0-.1c-.4 0-.5 0-.5.3m-149 0c0 .2 0 .3-.2.3-.1 0-.3.2-.3.4l-.4.2s-.2 0-.3.2c-.1.3 0 .3.5.1l.2-.3c0-.2.1-.2.3-.2.1 0 .2 0 .3-.2 0-.2.2-.3.3-.2l.1-.1c-.1-.4-.5-.4-.5-.1m96.7 0c0 .1-.1.2-.3.2l-.2.3c0 .2 0 .2.1.1l.5-.3c.5-.3.5-.6.1-.6 0 0-.2.1-.2.3m-121.8 0c0 .2 0 .2.2.2s.3.1.3.3l.1.2c.2 0 .2 0 0-.3-.1-.3-.6-.6-.6-.3m156 .6l.5.5s0-.2-.3-.5l-.5-.5s0 .3.3.5m32.5-.3s0 .2.2.3c.2 0 .3.2.2.3l.4.2c.2 0 .3 0 .2-.2l-.3-.3c-.1 0-.3 0-.3-.2-.1-.3-.4-.4-.4-.1m23.8.3c-.2.4-.2.4.2.1l.4-.3-.1-.1c-.2 0-.3 0-.5.3m-156.1.1c-.3.3-.4.4-.2.4s.3 0 .3-.2.1-.3.3-.3l.2-.1c0-.3-.1-.2-.6.2m68.1 0c0 .3 0 .4.2.3.2 0 .3.1.4.6v-.3c0-1-.6-1.6-.6-.6m-64.5 0l.3.4c.3.2.4.2.4 0s-.1-.3-.3-.3c-.1 0-.2 0-.3-.2 0-.1 0-.1 0 0m43.4.2c0 .1 0 .1.2 0l.2.2c0 .1 0 .1 0 0l-.1-.4c-.2 0-.3.1-.3.2m17.5.2c-.1.2-.2.3-.4.2l-.3.1c0 .5.5.3.8-.2.1-.3.2-.5 0-.5l-.1.4m-119.9 0l.2.3.4.1c.1 0-.5-.6-.6-.5m156.2.5c0 .1.1.2.3.2.1 0 .2.1.2.3l.4.2c.2 0 .3 0 .2-.2 0-.2-.2-.3-.3-.3-.2 0-.3 0-.3-.2s0-.3-.2-.3-.3.1-.3.3m53.7.3c-.1.4-.1.5 0 .2l.5-.3s.2 0 .2-.2c0-.5-.5-.3-.7.3m-208.8.1c0 .2.1.3.4.4.3.2.3.2.2-.2-.2-.4-.6-.5-.6-.2m20.5 0c0 .2.1.3.3.3.4 0 .4-.4 0-.4-.2 0-.3 0-.3.2m131.2-.1c-.1 0-.2.3-.2.8 0 .4 0 .7.1.6l.1-.2v-.6c.1-.2.2-.3.3 0l.1-.2c0-.4-.1-.6-.4-.4m36.7 0c0 .2.2.3.3.3.2 0 .3 0 .3-.2s-.2-.3-.4-.3-.3.1-.2.3m-187.4.5c0 .1 0 .2.2.2s.4.1.5.3c.4.3 1 .3 1 0 0-.2-.2-.3-.5-.2-.3 0-.5 0-.6-.3-.3-.3-.6-.4-.6 0m18.5 0c0 .1.1.2.3.2.2 0 .3 0 .2-.2 0-.2-.2-.3-.3-.3-.1 0-.2.1-.2.3m32.8 0a.3.3 0 10.5 0 .3.3 0 00-.5 0m64.4 0c0 .2 0 .2.3.2.2 0 .3 0 .3-.2s-.1-.3-.2-.3c-.2 0-.3.1-.4.3m72.8 0a.3.3 0 10.5 0 .3.3 0 00-.5 0m17.8 0c0 .2 0 .2.3 0l.2-.2h-.3s-.2 0-.2.2m-188.8.5a.3.3 0 10.5 0 .3.3 0 00-.5 0m20.8 0a.3.3 0 10.5 0 .3.3 0 00-.5 0m12 0c-.2.3.4.3.6 0 .2-.1.1-.2-.2-.2-.2 0-.4 0-.5.2m52.6 0a.3.3 0 10.5 0 .3.3 0 00-.5 0m12 0c-.2.3.7.4 1 0h-.5c0-.4-.4-.3-.6 0m7.1 0l.5.2c.5 0 .3-.2-.2-.3h-.3m34.3 0c0 .1.1.1.2 0 0 0 .2 0 .2.2l.1.1c.1 0 .2 0 .2-.2s-.1-.3-.3-.3l-.4.2m11.5 0c0 .2.1.3.3.3a.3.3 0 10-.3-.2m21.9 0a.3.3 0 10.5 0 .3.3 0 00-.5 0m15.4 0c0 .2 0 .2.2.2s.4 0 .4-.2-.1-.3-.3-.3l-.3.3m-128.4 0c.1.2.3.2.5.2.3 0 .3 0 .1-.1-.3-.2-.7-.2-.6 0m-74.2.4c-.1.2 0 .2.4.2s.6 0 .6-.2c0-.3-.7-.3-1 0m13.5 0c0 .1.1.2.3.2.2 0 .4 0 .4-.2s-.2-.3-.4-.3-.3.1-.3.3m23.5 0c0 .2.1.2.3.2.3 0 .3-.4 0-.4-.2 0-.3 0-.3.2m9.7 0c0 .1.1.2.3.2.4 0 .4-.4 0-.4-.2 0-.3 0-.3.2m54.8 0c0 .1.1.2.3.2.3 0 .3 0 .3-.2s-.2-.3-.4-.3c-.1 0-.2.1-.2.3m9.8 0l.4.2c.3 0 .4 0 .4-.2s-.3-.3-.5-.3c-.1 0-.3.1-.3.3m44 0c.2.3.7.3.7 0 0-.2-.1-.3-.3-.3-.3 0-.4.1-.3.2m8.8 0c0 .2.1.3.3.3.2 0 .3 0 .3-.2s-.1-.3-.3-.3c-.2 0-.3.1-.3.3m24.5 0c0 .1.1.2.4.2.2 0 .3 0 .3-.2s-.1-.3-.3-.3c-.3 0-.4.1-.4.3m12.1 0l.3.2c.2 0 .4 0 .5-.2 0-.2 0-.3-.4-.3-.2 0-.4.1-.4.3m-198.1.5a.3.3 0 10.5 0 .3.3 0 00-.5 0m8.6 0c0 .1.1.2.3.2a.3.3 0 10-.3-.2m27.6-.2c-.2.3 0 .4.3.4.2 0 .3 0 .2-.2-.1-.3-.3-.3-.5-.2m6.2 0c-.2.3 0 .4.3.4l.4-.2c0-.2-.5-.3-.7-.2m58.2 0c.1 0 .2.2.1.3l.2.1c.1 0 .2 0 .2-.2s-.1-.3-.3-.3l-.2.1m6.3.2l.4.2c.4 0 .2-.5-.2-.5-.2 0-.3.1-.2.3m47.9 0c0 .1.1.2.3.2.2 0 .4 0 .4-.2s-.2-.3-.4-.3-.3.1-.3.3m5 0l.2.2c.2 0 .3 0 .2-.2 0-.2-.2-.3-.3-.3l-.1.3m28.5 0c0 .1.1.2.3.2 0 0 .2 0 .2-.2s-.1-.3-.3-.3c0 0-.2.1-.2.3m7.8 0l.2.2c.1 0 .2 0 .2-.2s-.1-.3-.3-.3c-.1 0-.2.1-.1.3m-38.7.2H349h-.3m-154.7.2l.1.2c.2 0 .2-.3 0-.3h-.1m100.1 0c0 .4.4.5.6.3.1-.2 0-.2-.2-.1h-.2v-.3l-.2.2m88.8 0c.2.2 1 .3 1.1.1h-.4c-.2 0-.5 0-.7-.2-.2-.1-.2-.1 0 .1" fill="#646464"/></g></svg>